font.ufo
<glyph name="A" format="1">
	<unicode hex="0041"/>
	<advance width="526"/>
	<outline>
		<contour>
			<point x="8" y="0" type="line"/>
			<point x="54" y="0" type="line"/>
			<point x="188" y="388" type="line" smooth="yes"/>
			<point x="215" y="466"/>
			<point x="238" y="535"/>
			<point x="261" y="616" type="curve"/>
			<point x="265" y="616" type="line"/>
			<point x="288" y="535"/>
			<point x="311" y="466"/>
			<point x="338" y="388" type="curve" smooth="yes"/>
			<point x="470" y="0" type="line"/>
			<point x="518" y="0" type="line"/>
			<point x="286" y="659" type="line"/>
			<point x="240" y="659" type="line"/>
		</contour>
		<contour>
			<point x="114" y="226" type="line"/>
			<point x="410" y="226" type="line"/>
			<point x="410" y="265" type="line"/>
			<point x="114" y="265" type="line"/>
		</contour>
		<contour>
			<point name="aboveUC" x="263" y="681" type="move"/>
		</contour>
		<contour>
			<point name="ogonekUC" x="459" y="0" type="move"/>
		</contour>
		<contour>
			<point name="belowLC" x="263" y="-22" type="move"/>
		</contour>
	</outline>
</glyph>
<glyph name="divide" format="1">
	<unicode hex="00F7"/>
	<advance width="479"/>
	<outline>
		<contour>
			<point x="34" y="311" type="line"/>
			<point x="445" y="311" type="line"/>
			<point x="445" y="349" type="line"/>
			<point x="34" y="349" type="line"/>
		</contour>
		<contour>
			<point x="239" y="109" type="curve" smooth="yes"/>
			<point x="261" y="109"/>
			<point x="277" y="125"/>
			<point x="277" y="150" type="curve" smooth="yes"/>
			<point x="277" y="173"/>
			<point x="261" y="189"/>
			<point x="239" y="189" type="curve" smooth="yes"/>
			<point x="218" y="189"/>
			<point x="201" y="173"/>
			<point x="201" y="150" type="curve" smooth="yes"/>
			<point x="201" y="125"/>
			<point x="218" y="109"/>
		</contour>
		<contour>
			<point x="239" y="469" type="curve" smooth="yes"/>
			<point x="261" y="469"/>
			<point x="277" y="485"/>
			<point x="277" y="510" type="curve" smooth="yes"/>
			<point x="277" y="533"/>
			<point x="261" y="549"/>
			<point x="239" y="549" type="curve" smooth="yes"/>
			<point x="218" y="549"/>
			<point x="201" y="533"/>
			<point x="201" y="510" type="curve" smooth="yes"/>
			<point x="201" y="485"/>
			<point x="218" y="469"/>
		</contour>
	</outline>
</glyph>
<glyph name="schwa" format="1">
	<unicode hex="0259"/>
	<advance width="483"/>
	<outline>
		<contour>
			<point x="231" y="-12" type="curve" smooth="yes"/>
			<point x="346" y="-12"/>
			<point x="431" y="84"/>
			<point x="431" y="241" type="curve" smooth="yes"/>
			<point x="431" y="401"/>
			<point x="345" y="492"/>
			<point x="227" y="492" type="curve" smooth="yes"/>
			<point x="156" y="492"/>
			<point x="108" y="469"/>
			<point x="68" y="442" type="curve"/>
			<point x="86" y="408" type="line"/>
			<point x="125" y="435"/>
			<point x="167" y="454"/>
			<point x="222" y="454" type="curve" smooth="yes"/>
			<point x="325" y="454"/>
			<point x="384" y="369"/>
			<point x="386" y="257" type="curve"/>
			<point x="40" y="257" type="line"/>
			<point x="38" y="245"/>
			<point x="38" y="231"/>
			<point x="38" y="219" type="curve" smooth="yes"/>
			<point x="38" y="69"/>
			<point x="119" y="-12"/>
		</contour>
		<contour>
			<point x="230" y="26" type="curve" smooth="yes"/>
			<point x="142" y="26"/>
			<point x="79" y="87"/>
			<point x="79" y="221" type="curve"/>
			<point x="386" y="221" type="line"/>
			<point x="377" y="100"/>
			<point x="320" y="26"/>
		</contour>
		<contour>
			<point name="ogonekLC" x="233" y="0" type="move"/>
		</contour>
		<contour>
			<point name="aboveLC" x="235" y="504" type="move"/>
		</contour>
		<contour>
			<point name="belowLC" x="233" y="-22" type="move"/>
		</contour>
	</outline>
</glyph>
<glyph name="dotlessjstroke" format="1">
	<unicode hex="025F"/>
	<advance width="241"/>
	<outline>
		<contour>
			<point x="5" y="236" type="line"/>
			<point x="232" y="236" type="line"/>
			<point x="232" y="269" type="line"/>
			<point x="99" y="269" type="line"/>
			<point x="5" y="265" type="line"/>
		</contour>
		<component base="dotlessj" xOffset="6"/>
		<contour>
			<point name="aboveLC" x="121" y="504" type="move"/>
		</contour>
	</outline>
</glyph>
<glyph name="Ismall" format="1">
	<unicode hex="026A"/>
	<advance width="310"/>
	<outline>
		<contour>
			<point x="43" y="0" type="line"/>
			<point x="267" y="0" type="line"/>
			<point x="267" y="39" type="line"/>
			<point x="177" y="39" type="line"/>
			<point x="177" y="442" type="line"/>
			<point x="267" y="442" type="line"/>
			<point x="267" y="480" type="line"/>
			<point x="43" y="480" type="line"/>
			<point x="43" y="442" type="line"/>
			<point x="133" y="442" type="line"/>
			<point x="133" y="39" type="line"/>
			<point x="43" y="39" type="line"/>
		</contour>
		<contour>
			<point name="aboveLC" x="156" y="504" type="move"/>
		</contour>
		<contour>
			<point name="ogonekUC" x="131" y="0" type="move"/>
		</contour>
		<contour>
			<point name="belowLC" x="156" y="-22" type="move"/>
		</contour>
	</outline>
</glyph>
<glyph name="lezh" format="1">
	<unicode hex="026E"/>
	<advance width="540"/>
	<outline>
		<contour>
			<point x="119" y="442" type="line"/>
			<point x="219" y="442" type="line"/>
			<point x="219" y="480" type="line"/>
			<point x="119" y="480" type="line"/>
		</contour>
		<component base="l.alt"/>
		<component base="ezh" xOffset="136"/>
	</outline>
</glyph>
<glyph name="dotlessjstrokehook" format="1">
	<unicode hex="0284"/>
	<advance width="241"/>
	<outline>
		<contour>
			<point x="5" y="236" type="line"/>
			<point x="232" y="236" type="line"/>
			<point x="232" y="269" type="line"/>
			<point x="99" y="269" type="line"/>
			<point x="5" y="265" type="line"/>
		</contour>
		<component base="esh" xOffset="6"/>
	</outline>
</glyph>
<glyph name="zcurl" format="1">
	<unicode hex="0291"/>
	<advance width="418"/>
	<outline>
		<contour>
			<point x="209" y="-80" type="line"/>
			<point x="240" y="81"/>
			<point x="296" y="153"/>
			<point x="347" y="153" type="curve" smooth="yes"/>
			<point x="382" y="153"/>
			<point x="394" y="133"/>
			<point x="394" y="106" type="curve" smooth="yes"/>
			<point x="394" y="72"/>
			<point x="360" y="38"/>
			<point x="299" y="38" type="curve" smooth="yes"/>
			<point x="227" y="38"/>
			<point x="156" y="38"/>
			<point x="84" y="39" type="curve"/>
			<point x="367" y="457" type="line"/>
			<point x="367" y="480" type="line"/>
			<point x="58" y="480" type="line"/>
			<point x="58" y="442" type="line"/>
			<point x="311" y="442" type="line"/>
			<point x="27" y="24" type="line"/>
			<point x="27" y="0" type="line"/>
			<point x="289" y="0" type="line" smooth="yes"/>
			<point x="385" y="0"/>
			<point x="432" y="48"/>
			<point x="432" y="105" type="curve" smooth="yes"/>
			<point x="432" y="156"/>
			<point x="401" y="187"/>
			<point x="349" y="187" type="curve" smooth="yes"/>
			<point x="273" y="187"/>
			<point x="212" y="98"/>
			<point x="174" y="-73" type="curve"/>
		</contour>
		<contour>
			<point name="aboveLC" x="220" y="504" type="move"/>
		</contour>
	</outline>
</glyph>
<glyph name="jcrossedtail" format="1">
	<unicode hex="029D"/>
	<advance width="239"/>
	<outline>
		<contour>
			<point x="206" y="-284" type="curve"/>
			<point x="240" y="-266" type="line"/>
			<point x="165" y="-139"/>
			<point x="88" y="-60"/>
			<point x="0" y="-60" type="curve" smooth="yes"/>
			<point x="-67" y="-60"/>
			<point x="-103" y="-93"/>
			<point x="-103" y="-139" type="curve" smooth="yes"/>
			<point x="-103" y="-186"/>
			<point x="-63" y="-229"/>
			<point x="2" y="-229" type="curve" smooth="yes"/>
			<point x="102" y="-229"/>
			<point x="147" y="-156"/>
			<point x="147" y="-44" type="curve" smooth="yes"/>
			<point x="147" y="480" type="line"/>
			<point x="102" y="480" type="line"/>
			<point x="102" y="-52" type="line" smooth="yes"/>
			<point x="102" y="-116"/>
			<point x="85" y="-191"/>
			<point x="3" y="-191" type="curve" smooth="yes"/>
			<point x="-33" y="-191"/>
			<point x="-61" y="-170"/>
			<point x="-61" y="-141" type="curve" smooth="yes"/>
			<point x="-61" y="-116"/>
			<point x="-42" y="-96"/>
			<point x="0" y="-96" type="curve" smooth="yes"/>
			<point x="71" y="-96"/>
			<point x="133" y="-166"/>
		</contour>
		<contour>
			<point x="125" y="596" type="curve" smooth="yes"/>
			<point x="147" y="596"/>
			<point x="166" y="612"/>
			<point x="166" y="635" type="curve" smooth="yes"/>
			<point x="166" y="660"/>
			<point x="147" y="675"/>
			<point x="125" y="675" type="curve" smooth="yes"/>
			<point x="104" y="675"/>
			<point x="85" y="660"/>
			<point x="85" y="635" type="curve" smooth="yes"/>
			<point x="85" y="612"/>
			<point x="104" y="596"/>
		</contour>
	</outline>
</glyph>
<glyph name="breve" format="1">
	<unicode hex="02D8"/>
	<advance width="535"/>
	<outline>
		<component base="brevecmb" xOffset="267"/>
		<contour>
			<point name="_aboveLC" x="267" y="504" type="move"/>
		</contour>
		<contour>
			<point name="aboveLC" x="267" y="700" type="move"/>
		</contour>
	</outline>
</glyph>
<glyph name="tilde" format="1">
	<unicode hex="02DC"/>
	<advance width="535"/>
	<outline>
		<component base="tildecmb" xOffset="267"/>
		<contour>
			<point name="_aboveLC" x="267" y="504" type="move"/>
		</contour>
	</outline>
</glyph>
<glyph name="acutecmb" format="1">
	<unicode hex="0301"/>
	<outline>
		<contour>
			<point x="-29" y="574" type="line"/>
			<point x="115" y="725" type="line"/>
			<point x="81" y="754" type="line"/>
			<point x="-53" y="597" type="line"/>
		</contour>
		<contour>
			<point name="_aboveLC" x="0" y="504" type="move"/>
		</contour>
	</outline>
</glyph>
<glyph name="downtackbelowcmb" format="1">
	<unicode hex="031E"/>
	<outline>
		<contour>
			<point x="89" y="-138" type="line"/>
			<point x="89" y="-105" type="line"/>
			<point x="-89" y="-105" type="line"/>
			<point x="-89" y="-138" type="line"/>
			<point x="-17" y="-138" type="line"/>
			<point x="-17" y="-244" type="line"/>
			<point x="17" y="-244" type="line"/>
			<point x="17" y="-138" type="line"/>
		</contour>
		<contour>
			<point name="_belowLC" x="0" y="-22" type="move"/>
		</contour>
	</outline>
</glyph>
<glyph name="squarebelowcmb" format="1">
	<unicode hex="033B"/>
	<outline>
		<contour>
			<point x="-117" y="-236" type="line"/>
			<point x="117" y="-236" type="line"/>
			<point x="117" y="-84" type="line"/>
			<point x="-117" y="-84" type="line"/>
		</contour>
		<contour>
			<point x="-86" y="-204" type="line"/>
			<point x="-86" y="-115" type="line"/>
			<point x="86" y="-115" type="line"/>
			<point x="86" y="-204" type="line"/>
		</contour>
		<contour>
			<point name="_belowLC" x="0" y="-22" type="move"/>
		</contour>
	</outline>
</glyph>
<glyph name="delta" format="1">
	<unicode hex="03B4"/>
	<advance width="522"/>
	<outline>
		<contour>
			<point x="267" y="-12" type="curve" smooth="yes"/>
			<point x="395" y="-12"/>
			<point x="469" y="80"/>
			<point x="469" y="217" type="curve" smooth="yes"/>
			<point x="469" y="339"/>
			<point x="389" y="406"/>
			<point x="308" y="464" type="curve" smooth="yes"/>
			<point x="227" y="524"/>
			<point x="159" y="567"/>
			<point x="159" y="629" type="curve" smooth="yes"/>
			<point x="159" y="662"/>
			<point x="189" y="694"/>
			<point x="259" y="694" type="curve" smooth="yes"/>
			<point x="304" y="694"/>
			<point x="360" y="685"/>
			<point x="451" y="652" type="curve"/>
			<point x="464" y="692" type="line"/>
			<point x="376" y="721"/>
			<point x="316" y="731"/>
			<point x="261" y="731" type="curve" smooth="yes"/>
			<point x="158" y="731"/>
			<point x="114" y="682"/>
			<point x="114" y="629" type="curve" smooth="yes"/>
			<point x="114" y="550"/>
			<point x="196" y="495"/>
			<point x="281" y="434" type="curve" smooth="yes"/>
			<point x="356" y="379"/>
			<point x="424" y="319"/>
			<point x="424" y="215" type="curve" smooth="yes"/>
			<point x="424" y="109"/>
			<point x="376" y="27"/>
			<point x="267" y="27" type="curve" smooth="yes"/>
			<point x="183" y="27"/>
			<point x="104" y="99"/>
			<point x="104" y="207" type="curve" smooth="yes"/>
			<point x="104" y="313"/>
			<point x="179" y="393"/>
			<point x="305" y="419" type="curve"/>
			<point x="281" y="447" type="line"/>
			<point x="155" y="420"/>
			<point x="59" y="334"/>
			<point x="59" y="205" type="curve" smooth="yes"/>
			<point x="59" y="69"/>
			<point x="165" y="-12"/>
		</contour>
	</outline>
</glyph>
<glyph name="omicron" format="1">
	<unicode hex="03BF"/>
	<advance width="524"/>
	<outline>
		<contour>
			<point x="262" y="-12" type="curve" smooth="yes"/>
			<point x="381" y="-12"/>
			<point x="472" y="79"/>
			<point x="472" y="239" type="curve" smooth="yes"/>
			<point x="472" y="402"/>
			<point x="381" y="492"/>
			<point x="262" y="492" type="curve" smooth="yes"/>
			<point x="143" y="492"/>
			<point x="52" y="402"/>
			<point x="52" y="239" type="curve" smooth="yes"/>
			<point x="52" y="79"/>
			<point x="143" y="-12"/>
		</contour>
		<contour>
			<point x="262" y="27" type="curve" smooth="yes"/>
			<point x="161" y="27"/>
			<point x="98" y="111"/>
			<point x="98" y="239" type="curve" smooth="yes"/>
			<point x="98" y="367"/>
			<point x="161" y="453"/>
			<point x="262" y="453" type="curve" smooth="yes"/>
			<point x="363" y="453"/>
			<point x="426" y="367"/>
			<point x="426" y="239" type="curve" smooth="yes"/>
			<point x="426" y="111"/>
			<point x="363" y="27"/>
		</contour>
		<contour>
			<point name="aboveLC" x="262" y="504" type="move"/>
		</contour>
	</outline>
</glyph>
<glyph name="tau" format="1">
	<unicode hex="03C4"/>
	<advance width="441"/>
	<outline>
		<contour>
			<point x="275" y="-12" type="curve" smooth="yes"/>
			<point x="298" y="-12"/>
			<point x="320" y="-6"/>
			<point x="333" y="-1" type="curve"/>
			<point x="325" y="35" type="line"/>
			<point x="312" y="31"/>
			<point x="296" y="27"/>
			<point x="281" y="27" type="curve" smooth="yes"/>
			<point x="252" y="27"/>
			<point x="240" y="42"/>
			<point x="240" y="76" type="curve" smooth="yes"/>
			<point x="240" y="197"/>
			<point x="240" y="318"/>
			<point x="242" y="442" type="curve"/>
			<point x="415" y="442" type="line"/>
			<point x="415" y="480" type="line"/>
			<point x="93" y="480" type="line"/>
			<point x="26" y="476" type="line"/>
			<point x="26" y="442" type="line"/>
			<point x="198" y="442" type="line"/>
			<point x="198" y="82" type="line" smooth="yes"/>
			<point x="198" y="17"/>
			<point x="218" y="-12"/>
		</contour>
	</outline>
</glyph>
<glyph name="upsilon" format="1">
	<unicode hex="03C5"/>
	<advance width="497"/>
	<outline>
		<contour>
			<point x="242" y="-12" type="curve" smooth="yes"/>
			<point x="348" y="-12"/>
			<point x="435" y="70"/>
			<point x="435" y="233" type="curve" smooth="yes"/>
			<point x="435" y="321"/>
			<point x="421" y="405"/>
			<point x="389" y="492" type="curve"/>
			<point x="345" y="480" type="line"/>
			<point x="380" y="391"/>
			<point x="389" y="313"/>
			<point x="389" y="233" type="curve" smooth="yes"/>
			<point x="389" y="92"/>
			<point x="324" y="27"/>
			<point x="244" y="27" type="curve" smooth="yes"/>
			<point x="176" y="27"/>
			<point x="114" y="62"/>
			<point x="114" y="169" type="curve" smooth="yes"/>
			<point x="114" y="226"/>
			<point x="120" y="309"/>
			<point x="120" y="372" type="curve" smooth="yes"/>
			<point x="120" y="413"/>
			<point x="120" y="446"/>
			<point x="114" y="480" type="curve"/>
			<point x="70" y="480" type="line"/>
			<point x="77" y="431"/>
			<point x="77" y="396"/>
			<point x="77" y="358" type="curve"/>
			<point x="77" y="295"/>
			<point x="73" y="232"/>
			<point x="73" y="169" type="curve"/>
			<point x="73" y="39"/>
			<point x="145" y="-12"/>
		</contour>
		<contour>
			<point name="aboveLC" x="235" y="504" type="move"/>
		</contour>
	</outline>
</glyph>
<glyph name="kai" format="1">
	<unicode hex="03D7"/>
	<advance width="463"/>
	<outline>
		<contour>
			<point x="327" y="-186" type="line"/>
			<point x="371" y="-136"/>
			<point x="422" y="-70"/>
			<point x="466" y="0" type="curve"/>
			<point x="420" y="1" type="line"/>
			<point x="381" y="-59"/>
			<point x="332" y="-123"/>
			<point x="276" y="-180" type="curve"/>
		</contour>
		<component base="kappa"/>
	</outline>
</glyph>
<glyph name="Dje" format="1">
	<unicode hex="0402"/>
	<advance width="679"/>
	<outline>
		<contour>
			<point x="449" y="-12" type="curve" smooth="yes"/>
			<point x="531" y="-12"/>
			<point x="623" y="37"/>
			<point x="623" y="192" type="curve" smooth="yes"/>
			<point x="623" y="336"/>
			<point x="531" y="397"/>
			<point x="391" y="397" type="curve" smooth="yes"/>
			<point x="346" y="397"/>
			<point x="299" y="392"/>
			<point x="265" y="386" type="curve"/>
			<point x="265" y="619" type="line"/>
			<point x="508" y="619" type="line"/>
			<point x="508" y="659" type="line"/>
			<point x="29" y="659" type="line"/>
			<point x="29" y="619" type="line"/>
			<point x="219" y="619" type="line"/>
			<point x="219" y="0" type="line"/>
			<point x="265" y="0" type="line"/>
			<point x="265" y="345" type="line"/>
			<point x="297" y="351"/>
			<point x="344" y="357"/>
			<point x="387" y="357" type="curve" smooth="yes"/>
			<point x="506" y="357"/>
			<point x="576" y="307"/>
			<point x="576" y="192" type="curve" smooth="yes"/>
			<point x="576" y="68"/>
			<point x="503" y="29"/>
			<point x="445" y="29" type="curve" smooth="yes"/>
			<point x="430" y="29"/>
			<point x="407" y="34"/>
			<point x="398" y="38" type="curve"/>
			<point x="388" y="-2" type="line"/>
			<point x="401" y="-6"/>
			<point x="428" y="-12"/>
		</contour>
	</outline>
</glyph>
<glyph name="Zhe" format="1">
	<unicode hex="0416"/>
	<advance width="768"/>
	<outline>
		<contour>
			<point x="9" y="0" type="line"/>
			<point x="62" y="0" type="line"/>
			<point x="251" y="331" type="line"/>
			<point x="362" y="331" type="line"/>
			<point x="362" y="0" type="line"/>
			<point x="406" y="0" type="line"/>
			<point x="406" y="331" type="line"/>
			<point x="517" y="331" type="line"/>
			<point x="706" y="0" type="line"/>
			<point x="759" y="0" type="line"/>
			<point x="543" y="370" type="line"/>
			<point x="406" y="370" type="line"/>
			<point x="406" y="659" type="line"/>
			<point x="362" y="659" type="line"/>
			<point x="362" y="370" type="line"/>
			<point x="225" y="370" type="line"/>
		</contour>
		<contour>
			<point x="550" y="349" type="line"/>
			<point x="630" y="528" type="line"/>
			<point x="671" y="615"/>
			<point x="695" y="624"/>
			<point x="723" y="624" type="curve" smooth="yes"/>
			<point x="729" y="624"/>
			<point x="738" y="623"/>
			<point x="744" y="620" type="curve"/>
			<point x="753" y="666" type="line"/>
			<point x="746" y="669"/>
			<point x="736" y="671"/>
			<point x="727" y="671" type="curve" smooth="yes"/>
			<point x="677" y="671"/>
			<point x="643" y="652"/>
			<point x="593" y="546" type="curve"/>
			<point x="508" y="358" type="line"/>
		</contour>
		<contour>
			<point x="218" y="349" type="line"/>
			<point x="260" y="358" type="line"/>
			<point x="174" y="546" type="line"/>
			<point x="125" y="652"/>
			<point x="91" y="671"/>
			<point x="41" y="671" type="curve" smooth="yes"/>
			<point x="32" y="671"/>
			<point x="22" y="669"/>
			<point x="15" y="666" type="curve"/>
			<point x="23" y="620" type="line"/>
			<point x="30" y="623"/>
			<point x="38" y="624"/>
			<point x="44" y="624" type="curve" smooth="yes"/>
			<point x="73" y="624"/>
			<point x="97" y="615"/>
			<point x="138" y="528" type="curve"/>
		</contour>
		<contour>
			<point name="aboveUC" x="379" y="681" type="move"/>
		</contour>
	</outline>
</glyph>
<glyph name="Yeru" format="1">
	<unicode hex="042B"/>
	<advance width="766"/>
	<outline>
		<contour>
			<point x="97" y="0" type="line"/>
			<point x="270" y="0" type="line" smooth="yes"/>
			<point x="418" y="0"/>
			<point x="502" y="65"/>
			<point x="502" y="195" type="curve" smooth="yes"/>
			<point x="502" y="319"/>
			<point x="410" y="372"/>
			<point x="267" y="372" type="curve" smooth="yes"/>
			<point x="143" y="372" type="line"/>
			<point x="143" y="659" type="line"/>
			<point x="97" y="659" type="line"/>
		</contour>
		<contour>
			<point x="143" y="39" type="line"/>
			<point x="143" y="333" type="line"/>
			<point x="255" y="333" type="line" smooth="yes"/>
			<point x="388" y="333"/>
			<point x="456" y="291"/>
			<point x="456" y="193" type="curve" smooth="yes"/>
			<point x="456" y="86"/>
			<point x="389" y="39"/>
			<point x="259" y="39" type="curve" smooth="yes"/>
		</contour>
		<contour>
			<point x="623" y="0" type="line"/>
			<point x="669" y="0" type="line"/>
			<point x="669" y="659" type="line"/>
			<point x="623" y="659" type="line"/>
		</contour>
		<contour>
			<point name="aboveUC" x="394" y="681" type="move"/>
		</contour>
	</outline>
</glyph>
<glyph name="ka" format="1">
	<unicode hex="043A"/>
	<advance width="470"/>
	<outline>
		<contour>
			<point x="92" y="0" type="line"/>
			<point x="136" y="0" type="line"/>
			<point x="136" y="231" type="line"/>
			<point x="257" y="231" type="line"/>
			<point x="404" y="0" type="line"/>
			<point x="454" y="0" type="line"/>
			<point x="279" y="270" type="line"/>
			<point x="136" y="270" type="line"/>
			<point x="136" y="480" type="line"/>
			<point x="92" y="480" type="line"/>
		</contour>
		<contour>
			<point x="284" y="239" type="line"/>
			<point x="340" y="371" type="line" smooth="yes"/>
			<point x="368" y="437"/>
			<point x="389" y="447"/>
			<point x="414" y="447" type="curve" smooth="yes"/>
			<point x="421" y="447"/>
			<point x="423" y="447"/>
			<point x="429" y="445" type="curve"/>
			<point x="439" y="488" type="line"/>
			<point x="434" y="490"/>
			<point x="424" y="492"/>
			<point x="416" y="492" type="curve" smooth="yes"/>
			<point x="374" y="492"/>
			<point x="342" y="474"/>
			<point x="306" y="388" type="curve" smooth="yes"/>
			<point x="245" y="245" type="line"/>
		</contour>
		<contour>
			<point name="aboveLC" x="266" y="504" type="move"/>
		</contour>
	</outline>
</glyph>
<glyph name="em" format="1">
	<unicode hex="043C"/>
	<advance width="618"/>
	<outline>
		<contour>
			<point x="92" y="0" type="line"/>
			<point x="134" y="0" type="line"/>
			<point x="134" y="272" type="line" smooth="yes"/>
			<point x="134" y="309"/>
			<point x="131" y="365"/>
			<point x="129" y="412" type="curve"/>
			<point x="133" y="412" type="line"/>
			<point x="147" y="377"/>
			<point x="162" y="344"/>
			<point x="176" y="311" type="curve"/>
			<point x="290" y="47" type="line"/>
			<point x="330" y="47" type="line"/>
			<point x="442" y="311" type="line"/>
			<point x="456" y="344"/>
			<point x="471" y="377"/>
			<point x="485" y="412" type="curve"/>
			<point x="489" y="412" type="line"/>
			<point x="486" y="365"/>
			<point x="483" y="309"/>
			<point x="483" y="272" type="curve" smooth="yes"/>
			<point x="483" y="0" type="line"/>
			<point x="526" y="0" type="line"/>
			<point x="526" y="480" type="line"/>
			<point x="474" y="480" type="line"/>
			<point x="361" y="219" type="line" smooth="yes"/>
			<point x="347" y="178"/>
			<point x="328" y="137"/>
			<point x="311" y="96" type="curve"/>
			<point x="307" y="96" type="line"/>
			<point x="292" y="137"/>
			<point x="275" y="178"/>
			<point x="259" y="219" type="curve" smooth="yes"/>
			<point x="144" y="480" type="line"/>
			<point x="92" y="480" type="line"/>
		</contour>
	</outline>
</glyph>
<glyph name="hadescender" format="1">
	<unicode hex="04B3"/>
	<advance width="443"/>
	<outline>
		<contour>
			<point x="375" y="-172" type="line"/>
			<point x="413" y="-172" type="line"/>
			<point x="418" y="13" type="line"/>
			<point x="418" y="39" type="line"/>
			<point x="351" y="39" type="line"/>
			<point x="351" y="0" type="line"/>
			<point x="375" y="0" type="line"/>
		</contour>
		<component base="x"/>
	</outline>
</glyph>
<glyph name="chedescender" format="1">
	<unicode hex="04B7"/>
	<advance width="488"/>
	<outline>
		<contour>
			<point x="421" y="-172" type="line"/>
			<point x="459" y="-172" type="line"/>
			<point x="464" y="13" type="line"/>
			<point x="464" y="39" type="line"/>
			<point x="378" y="39" type="line"/>
			<point x="378" y="0" type="line"/>
			<point x="421" y="0" type="line"/>
		</contour>
		<component base="che"/>
	</outline>
</glyph>
<glyph name="obarcyr" format="1">
	<unicode hex="04E9"/>
	<advance width="535"/>
	<outline>
		<component base="obar"/>
		<contour>
			<point name="aboveLC" x="267" y="504" type="move"/>
		</contour>
	</outline>
</glyph>
<glyph name="asperacute" format="1">
	<unicode hex="1FDE"/>
	<advance width="535"/>
	<outline>
		<component base="asperacutecmb" xOffset="267"/>
		<contour>
			<point name="_aboveLC" x="267" y="504" type="move"/>
		</contour>
	</outline>
</glyph>
<glyph name="oxia" format="1">
	<unicode hex="1FFD"/>
	<advance width="535"/>
	<outline>
		<component base="tonoscmb" xOffset="267"/>
		<contour>
			<point name="_aboveLC" x="267" y="504" type="move"/>
		</contour>
	</outline>
</glyph>
<glyph name="colonmonetary" format="1">
	<unicode hex="20A1"/>
	<advance width="479"/>
	<outline>
		<contour>
			<point x="289" y="-12" type="curve" smooth="yes"/>
			<point x="363" y="-12"/>
			<point x="414" y="24"/>
			<point x="456" y="82" type="curve"/>
			<point x="427" y="107" type="line"/>
			<point x="388" y="53"/>
			<point x="348" y="26"/>
			<point x="292" y="26" type="curve" smooth="yes"/>
			<point x="178" y="26"/>
			<point x="112" y="143"/>
			<point x="112" y="322" type="curve" smooth="yes"/>
			<point x="112" y="500"/>
			<point x="181" y="613"/>
			<point x="305" y="613" type="curve" smooth="yes"/>
			<point x="352" y="613"/>
			<point x="389" y="586"/>
			<point x="418" y="545" type="curve"/>
			<point x="447" y="572" type="line"/>
			<point x="417" y="614"/>
			<point x="366" y="651"/>
			<point x="305" y="651" type="curve" smooth="yes"/>
			<point x="158" y="651"/>
			<point x="65" y="524"/>
			<point x="65" y="321" type="curve" smooth="yes"/>
			<point x="65" y="118"/>
			<point x="154" y="-12"/>
		</contour>
		<contour>
			<point x="157" y="-110" type="line"/>
			<point x="188" y="-110" type="line"/>
			<point x="290" y="749" type="line"/>
			<point x="259" y="749" type="line"/>
		</contour>
		<contour>
			<point x="256" y="-110" type="line"/>
			<point x="286" y="-110" type="line"/>
			<point x="388" y="749" type="line"/>
			<point x="358" y="749" type="line"/>
		</contour>
	</outline>
</glyph>
<glyph name="dong" format="1">
	<unicode hex="20AB"/>
	<advance width="479"/>
	<outline>
		<contour>
			<point x="224" y="107" type="curve" smooth="yes"/>
			<point x="275" y="107"/>
			<point x="313" y="132"/>
			<point x="343" y="164" type="curve"/>
			<point x="346" y="164" type="line"/>
			<point x="351" y="117" type="line"/>
			<point x="384" y="117" type="line"/>
			<point x="384" y="673" type="line"/>
			<point x="343" y="673" type="line"/>
			<point x="343" y="516" type="line"/>
			<point x="347" y="423" type="line"/>
			<point x="312" y="454"/>
			<point x="283" y="474"/>
			<point x="232" y="474" type="curve" smooth="yes"/>
			<point x="146" y="474"/>
			<point x="69" y="404"/>
			<point x="69" y="295" type="curve" smooth="yes"/>
			<point x="69" y="173"/>
			<point x="130" y="107"/>
		</contour>
		<contour>
			<point x="230" y="144" type="curve" smooth="yes"/>
			<point x="154" y="144"/>
			<point x="113" y="203"/>
			<point x="113" y="297" type="curve" smooth="yes"/>
			<point x="113" y="374"/>
			<point x="166" y="437"/>
			<point x="234" y="437" type="curve" smooth="yes"/>
			<point x="277" y="437"/>
			<point x="304" y="422"/>
			<point x="343" y="386" type="curve"/>
			<point x="343" y="206" type="line"/>
			<point x="305" y="162"/>
			<point x="268" y="144"/>
		</contour>
		<contour>
			<point x="197" y="561" type="line"/>
			<point x="384" y="561" type="line"/>
			<point x="465" y="566" type="line"/>
			<point x="465" y="595" type="line"/>
			<point x="197" y="595" type="line"/>
		</contour>
		<contour>
			<point x="80" y="0" type="line"/>
			<point x="415" y="0" type="line"/>
			<point x="415" y="34" type="line"/>
			<point x="80" y="34" type="line"/>
		</contour>
	</outline>
</glyph>
<glyph name="litre" format="1">
	<unicode hex="2113"/>
	<advance width="373"/>
	<outline>
		<contour>
			<point x="243" y="-12" type="curve" smooth="yes"/>
			<point x="293" y="-12"/>
			<point x="332" y="17"/>
			<point x="358" y="43" type="curve"/>
			<point x="338" y="71" type="line"/>
			<point x="314" y="48"/>
			<point x="289" y="27"/>
			<point x="247" y="27" type="curve" smooth="yes"/>
			<point x="195" y="27"/>
			<point x="150" y="68"/>
			<point x="150" y="176" type="curve" smooth="yes"/>
			<point x="150" y="541" type="line" smooth="yes"/>
			<point x="150" y="644"/>
			<point x="186" y="694"/>
			<point x="228" y="694" type="curve" smooth="yes"/>
			<point x="268" y="694"/>
			<point x="298" y="665"/>
			<point x="298" y="584" type="curve" smooth="yes"/>
			<point x="298" y="427"/>
			<point x="172" y="263"/>
			<point x="28" y="163" type="curve"/>
			<point x="48" y="132" type="line"/>
			<point x="200" y="237"/>
			<point x="340" y="418"/>
			<point x="340" y="586" type="curve" smooth="yes"/>
			<point x="340" y="682"/>
			<point x="292" y="731"/>
			<point x="227" y="731" type="curve" smooth="yes"/>
			<point x="160" y="731"/>
			<point x="106" y="677"/>
			<point x="106" y="530" type="curve" smooth="yes"/>
			<point x="106" y="165" type="line" smooth="yes"/>
			<point x="106" y="49"/>
			<point x="168" y="-12"/>
		</contour>
	</outline>
</glyph>
<glyph name="summation" format="1">
	<unicode hex="2211"/>
	<advance width="487"/>
	<outline>
		<contour>
			<point x="19" y="-120" type="line"/>
			<point x="487" y="-120" type="line"/>
			<point x="487" y="-80" type="line"/>
			<point x="78" y="-80" type="line"/>
			<point x="78" y="-76" type="line"/>
			<point x="328" y="261" type="line"/>
			<point x="89" y="596" type="line"/>
			<point x="89" y="600" type="line"/>
			<point x="456" y="600" type="line"/>
			<point x="456" y="639" type="line"/>
			<point x="31" y="639" type="line"/>
			<point x="31" y="606" type="line"/>
			<point x="276" y="260" type="line"/>
			<point x="19" y="-87" type="line"/>
		</contour>
	</outline>
</glyph>
<glyph name="radical" format="1">
	<unicode hex="221A"/>
	<advance width="539"/>
	<outline>
		<contour>
			<point x="283" y="-105" type="line"/>
			<point x="324" y="-105" type="line"/>
			<point x="541" y="820" type="line"/>
			<point x="503" y="820" type="line"/>
			<point x="314" y="7" type="line"/>
			<point x="309" y="-10"/>
			<point x="307" y="-28"/>
			<point x="303" y="-45" type="curve"/>
			<point x="299" y="-45" type="line"/>
			<point x="295" y="-28"/>
			<point x="290" y="-10"/>
			<point x="284" y="7" type="curve"/>
			<point x="158" y="384" type="line"/>
			<point x="49" y="333" type="line"/>
			<point x="64" y="302" type="line"/>
			<point x="133" y="334" type="line"/>
		</contour>
	</outline>
</glyph>
<glyph name="A.sups" format="1">
  <advance width="348"/>
  <outline>
    <contour>
      <point x="2" y="269" type="line"/>
      <point x="40" y="269" type="line"/>
      <point x="126" y="520" type="line" smooth="yes"/>
      <point x="143" y="570"/>
      <point x="158" y="615"/>
      <point x="173" y="667" type="curve"/>
      <point x="175" y="667" type="line"/>
      <point x="191" y="617"/>
      <point x="206" y="571"/>
      <point x="223" y="520" type="curve" smooth="yes"/>
      <point x="307" y="269" type="line"/>
      <point x="347" y="269" type="line"/>
      <point x="196" y="701" type="line"/>
      <point x="155" y="701" type="line"/>
    </contour>
    <contour>
      <point x="76" y="412" type="line"/>
      <point x="273" y="412" type="line"/>
      <point x="273" y="444" type="line"/>
      <point x="76" y="444" type="line"/>
    </contour>
  </outline>
</glyph>
<glyph name="AE" format="1">
  <advance width="809"/>
  <outline>
    <contour>
      <point x="580" y="681" type="move" name="aboveUC"/>
    </contour>
    <contour>
      <point x="21" y="0" type="line"/>
      <point x="70" y="0" type="line"/>
      <point x="283" y="388" type="line"/>
      <point x="325" y="467"/>
      <point x="366" y="545"/>
      <point x="407" y="619" type="curve"/>
      <point x="411" y="619" type="line"/>
      <point x="411" y="0" type="line"/>
      <point x="762" y="0" type="line"/>
      <point x="762" y="40" type="line"/>
      <point x="457" y="40" type="line"/>
      <point x="457" y="330" type="line"/>
      <point x="702" y="330" type="line"/>
      <point x="702" y="370" type="line"/>
      <point x="457" y="370" type="line"/>
      <point x="457" y="619" type="line"/>
      <point x="752" y="619" type="line"/>
      <point x="752" y="659" type="line"/>
      <point x="386" y="659" type="line"/>
    </contour>
    <contour>
      <point x="170" y="217" type="line"/>
      <point x="445" y="217" type="line"/>
      <point x="445" y="255" type="line"/>
      <point x="170" y="255" type="line"/>
    </contour>
  </outline>
</glyph>
<glyph name="A.sc" format="1">
  <advance width="451"/>
  <outline>
    <contour>
      <point x="225" y="562" type="move" name="aboveUC"/>
    </contour>
    <contour>
      <point x="364" y="0" type="move" name="ogonekUC"/>
    </contour>
    <contour>
      <point x="225" y="-22" type="move" name="belowLC"/>
    </contour>
    <contour>
      <point x="8" y="0" type="line"/>
      <point x="54" y="0" type="line"/>
      <point x="164" y="298" type="line" smooth="yes"/>
      <point x="186" y="359"/>
      <point x="203" y="408"/>
      <point x="223" y="468" type="curve"/>
      <point x="227" y="468" type="line"/>
      <point x="247" y="409"/>
      <point x="265" y="360"/>
      <point x="287" y="298" type="curve" smooth="yes"/>
      <point x="395" y="0" type="line"/>
      <point x="443" y="0" type="line"/>
      <point x="249" y="512" type="line"/>
      <point x="202" y="512" type="line"/>
    </contour>
    <contour>
      <point x="99" y="168" type="line"/>
      <point x="350" y="168" type="line"/>
      <point x="350" y="205" type="line"/>
      <point x="99" y="205" type="line"/>
    </contour>
  </outline>
</glyph>
<glyph name="Acyr" format="1">
  <advance width="526"/>
  <outline>
    <contour>
      <point x="263" y="681" type="move" name="aboveUC"/>
    </contour>
    <component base="A"/>
  </outline>
</glyph>
<glyph name="Alpha.sc" format="1">
  <advance width="451"/>
  <outline>
    <contour>
      <point x="225" y="562" type="move" name="aboveLC"/>
    </contour>
    <contour>
      <point x="225" y="-22" type="move" name="belowLC"/>
    </contour>
    <component base="A.sc"/>
  </outline>
</glyph>
<glyph name="B.sups" format="1">
  <advance width="382"/>
  <outline>
    <contour>
      <point x="61" y="269" type="line"/>
      <point x="192" y="269" type="line" smooth="yes"/>
      <point x="291" y="269"/>
      <point x="356" y="311"/>
      <point x="356" y="395" type="curve" smooth="yes"/>
      <point x="356" y="455"/>
      <point x="317" y="490"/>
      <point x="253" y="500" type="curve"/>
      <point x="253" y="503" type="line"/>
      <point x="304" y="515"/>
      <point x="330" y="552"/>
      <point x="330" y="596" type="curve" smooth="yes"/>
      <point x="330" y="669"/>
      <point x="272" y="701"/>
      <point x="184" y="701" type="curve" smooth="yes"/>
      <point x="61" y="701" type="line"/>
    </contour>
    <contour>
      <point x="100" y="513" type="line"/>
      <point x="100" y="670" type="line"/>
      <point x="176" y="670" type="line" smooth="yes"/>
      <point x="253" y="670"/>
      <point x="292" y="648"/>
      <point x="292" y="595" type="curve" smooth="yes"/>
      <point x="292" y="540"/>
      <point x="258" y="513"/>
      <point x="173" y="513" type="curve" smooth="yes"/>
    </contour>
    <contour>
      <point x="100" y="300" type="line"/>
      <point x="100" y="483" type="line"/>
      <point x="184" y="483" type="line" smooth="yes"/>
      <point x="270" y="483"/>
      <point x="318" y="455"/>
      <point x="318" y="395" type="curve" smooth="yes"/>
      <point x="318" y="327"/>
      <point x="268" y="300"/>
      <point x="184" y="300" type="curve" smooth="yes"/>
    </contour>
  </outline>
</glyph>
<glyph name="B.sc" format="1">
  <advance width="514"/>
  <outline>
    <contour>
      <point x="268" y="562" type="move" name="aboveUC"/>
    </contour>
    <contour>
      <point x="279" y="-22" type="move" name="belowLC"/>
    </contour>
    <contour>
      <point x="97" y="0" type="line"/>
      <point x="261" y="0" type="line" smooth="yes"/>
      <point x="387" y="0"/>
      <point x="469" y="49"/>
      <point x="469" y="150" type="curve" smooth="yes"/>
      <point x="469" y="220"/>
      <point x="418" y="260"/>
      <point x="346" y="273" type="curve"/>
      <point x="346" y="277" type="line"/>
      <point x="404" y="293"/>
      <point x="435" y="334"/>
      <point x="435" y="386" type="curve" smooth="yes"/>
      <point x="435" y="475"/>
      <point x="362" y="512"/>
      <point x="250" y="512" type="curve" smooth="yes"/>
      <point x="97" y="512" type="line"/>
    </contour>
    <contour>
      <point x="143" y="288" type="line"/>
      <point x="143" y="476" type="line"/>
      <point x="240" y="476" type="line" smooth="yes"/>
      <point x="340" y="476"/>
      <point x="392" y="449"/>
      <point x="392" y="385" type="curve" smooth="yes"/>
      <point x="392" y="322"/>
      <point x="347" y="288"/>
      <point x="236" y="288" type="curve" smooth="yes"/>
    </contour>
    <contour>
      <point x="143" y="36" type="line"/>
      <point x="143" y="254" type="line"/>
      <point x="251" y="254" type="line" smooth="yes"/>
      <point x="362" y="254"/>
      <point x="425" y="221"/>
      <point x="425" y="150" type="curve" smooth="yes"/>
      <point x="425" y="64"/>
      <point x="354" y="36"/>
      <point x="251" y="36" type="curve" smooth="yes"/>
    </contour>
  </outline>
</glyph>
<glyph name="Beta.sc" format="1">
  <advance width="514"/>
  <outline>
    <contour>
      <point x="268" y="562" type="move" name="aboveLC"/>
    </contour>
    <contour>
      <point x="279" y="-22" type="move" name="belowLC"/>
    </contour>
    <component base="B.sc"/>
  </outline>
</glyph>
<glyph name="Bstroke.sc" format="1">
  <advance width="531"/>
  <outline>
    <contour>
      <point x="114" y="0" type="line"/>
      <point x="278" y="0" type="line" smooth="yes"/>
      <point x="404" y="0"/>
      <point x="486" y="49"/>
      <point x="486" y="150" type="curve" smooth="yes"/>
      <point x="486" y="220"/>
      <point x="435" y="260"/>
      <point x="363" y="273" type="curve"/>
      <point x="363" y="277" type="line"/>
      <point x="421" y="293"/>
      <point x="452" y="334"/>
      <point x="452" y="386" type="curve" smooth="yes"/>
      <point x="452" y="475"/>
      <point x="379" y="512"/>
      <point x="267" y="512" type="curve" smooth="yes"/>
      <point x="114" y="512" type="line"/>
    </contour>
    <contour>
      <point x="160" y="288" type="line"/>
      <point x="160" y="478" type="line"/>
      <point x="257" y="478" type="line" smooth="yes"/>
      <point x="357" y="478"/>
      <point x="409" y="451"/>
      <point x="409" y="386" type="curve" smooth="yes"/>
      <point x="409" y="322"/>
      <point x="364" y="288"/>
      <point x="253" y="288" type="curve" smooth="yes"/>
    </contour>
    <contour>
      <point x="160" y="34" type="line"/>
      <point x="160" y="254" type="line"/>
      <point x="268" y="254" type="line" smooth="yes"/>
      <point x="379" y="254"/>
      <point x="442" y="221"/>
      <point x="442" y="149" type="curve" smooth="yes"/>
      <point x="442" y="63"/>
      <point x="371" y="34"/>
      <point x="268" y="34" type="curve" smooth="yes"/>
    </contour>
    <contour>
      <point x="37" y="132" type="line"/>
      <point x="305" y="132" type="line"/>
      <point x="305" y="163" type="line"/>
      <point x="115" y="163" type="line"/>
      <point x="37" y="161" type="line"/>
    </contour>
  </outline>
</glyph>
<glyph name="Be.sc" format="1">
  <advance width="506"/>
  <outline>
    <contour>
      <point x="97" y="0" type="line"/>
      <point x="254" y="0" type="line" smooth="yes"/>
      <point x="380" y="0"/>
      <point x="461" y="49"/>
      <point x="461" y="150" type="curve" smooth="yes"/>
      <point x="461" y="247"/>
      <point x="375" y="288"/>
      <point x="254" y="288" type="curve" smooth="yes"/>
      <point x="142" y="288" type="line"/>
      <point x="142" y="474" type="line"/>
      <point x="423" y="474" type="line"/>
      <point x="423" y="512" type="line"/>
      <point x="97" y="512" type="line"/>
    </contour>
    <contour>
      <point x="142" y="36" type="line"/>
      <point x="142" y="253" type="line"/>
      <point x="244" y="253" type="line" smooth="yes"/>
      <point x="354" y="253"/>
      <point x="417" y="220"/>
      <point x="417" y="150" type="curve" smooth="yes"/>
      <point x="417" y="72"/>
      <point x="352" y="36"/>
      <point x="244" y="36" type="curve" smooth="yes"/>
    </contour>
  </outline>
</glyph>
<glyph name="C" format="1">
  <advance width="564"/>
  <outline>
    <contour>
      <point x="321" y="681" type="move" name="aboveUC"/>
    </contour>
    <contour>
      <point x="339" y="0" type="move" name="baseLC"/>
    </contour>
    <contour>
      <point x="339" y="-22" type="move" name="belowLC"/>
    </contour>
    <contour>
      <point x="331" y="-12" type="curve" smooth="yes"/>
      <point x="416" y="-12"/>
      <point x="476" y="24"/>
      <point x="527" y="82" type="curve"/>
      <point x="500" y="111" type="line"/>
      <point x="452" y="58"/>
      <point x="401" y="30"/>
      <point x="333" y="30" type="curve" smooth="yes"/>
      <point x="191" y="30"/>
      <point x="103" y="148"/>
      <point x="103" y="331" type="curve" smooth="yes"/>
      <point x="103" y="514"/>
      <point x="192" y="629"/>
      <point x="337" y="629" type="curve" smooth="yes"/>
      <point x="397" y="629"/>
      <point x="445" y="602"/>
      <point x="481" y="561" type="curve"/>
      <point x="508" y="592" type="line"/>
      <point x="473" y="633"/>
      <point x="413" y="671"/>
      <point x="336" y="671" type="curve" smooth="yes"/>
      <point x="169" y="671"/>
      <point x="55" y="540"/>
      <point x="55" y="331" type="curve" smooth="yes"/>
      <point x="55" y="121"/>
      <point x="168" y="-12"/>
    </contour>
  </outline>
</glyph>
<glyph name="C.sups" format="1">
  <advance width="372"/>
  <outline>
    <contour>
      <point x="220" y="261" type="curve" smooth="yes"/>
      <point x="276" y="261"/>
      <point x="317" y="285"/>
      <point x="350" y="323" type="curve"/>
      <point x="328" y="346" type="line"/>
      <point x="298" y="313"/>
      <point x="265" y="295"/>
      <point x="221" y="295" type="curve" smooth="yes"/>
      <point x="130" y="295"/>
      <point x="74" y="369"/>
      <point x="74" y="487" type="curve" smooth="yes"/>
      <point x="74" y="601"/>
      <point x="132" y="676"/>
      <point x="224" y="676" type="curve" smooth="yes"/>
      <point x="262" y="676"/>
      <point x="293" y="659"/>
      <point x="317" y="633" type="curve"/>
      <point x="339" y="657" type="line"/>
      <point x="315" y="685"/>
      <point x="275" y="709"/>
      <point x="223" y="709" type="curve" smooth="yes"/>
      <point x="112" y="709"/>
      <point x="34" y="622"/>
      <point x="34" y="485" type="curve" smooth="yes"/>
      <point x="34" y="347"/>
      <point x="111" y="261"/>
    </contour>
  </outline>
</glyph>
<glyph name="Che" format="1">
  <advance width="579"/>
  <outline>
    <contour>
      <point x="283" y="681" type="move" name="aboveUC"/>
    </contour>
    <contour>
      <point x="436" y="0" type="line"/>
      <point x="482" y="0" type="line"/>
      <point x="482" y="659" type="line"/>
      <point x="436" y="659" type="line"/>
      <point x="436" y="352" type="line"/>
      <point x="405" y="346"/>
      <point x="363" y="341"/>
      <point x="308" y="341" type="curve" smooth="yes"/>
      <point x="187" y="341"/>
      <point x="116" y="378"/>
      <point x="116" y="499" type="curve" smooth="yes"/>
      <point x="116" y="659" type="line"/>
      <point x="71" y="659" type="line"/>
      <point x="71" y="499" type="line" smooth="yes"/>
      <point x="71" y="352"/>
      <point x="159" y="300"/>
      <point x="304" y="300" type="curve" smooth="yes"/>
      <point x="361" y="300"/>
      <point x="402" y="306"/>
      <point x="436" y="311" type="curve"/>
    </contour>
  </outline>
</glyph>
<glyph name="Chedescender" format="1">
  <advance width="584"/>
  <outline>
    <contour>
      <point x="506" y="-188" type="line"/>
      <point x="544" y="-188" type="line"/>
      <point x="551" y="14" type="line"/>
      <point x="551" y="40" type="line"/>
      <point x="462" y="40" type="line"/>
      <point x="462" y="0" type="line"/>
      <point x="506" y="0" type="line"/>
    </contour>
    <component base="Che"/>
  </outline>
</glyph>
<glyph name="Chedescender.sc" format="1">
  <advance width="517"/>
  <outline>
    <contour>
      <point x="440" y="-172" type="line"/>
      <point x="478" y="-172" type="line"/>
      <point x="484" y="13" type="line"/>
      <point x="484" y="39" type="line"/>
      <point x="398" y="39" type="line"/>
      <point x="398" y="0" type="line"/>
      <point x="440" y="0" type="line"/>
    </contour>
    <component base="Che.sc" xOffset="-5"/>
  </outline>
</glyph>
<glyph name="Chi.sc" format="1">
  <advance width="420"/>
  <outline>
    <component base="X.sc"/>
    <contour>
      <point x="288" y="580" type="move" name="aboveUC"/>
    </contour>
    <contour>
      <point x="287" y="0" type="move" name="baseLC"/>
    </contour>
    <contour>
      <point x="287" y="-22" type="move" name="belowLC"/>
    </contour>
  </outline>
</glyph>
<glyph name="Chi.sc" format="1">
  <advance width="420"/>
  <outline>
    <contour>
      <point x="288" y="580" type="move" name="aboveUC"/>
    </contour>
    <contour>
      <point x="287" y="0" type="move" name="baseLC"/>
    </contour>
    <contour>
      <point x="287" y="-22" type="move" name="belowLC"/>
    </contour>
    <component base="X.sc"/>
  </outline>
</glyph>
<glyph name="Che.sc" format="1">
  <advance width="519"/>
  <outline>
    <contour>
      <point x="377" y="0" type="line"/>
      <point x="422" y="0" type="line"/>
      <point x="422" y="512" type="line"/>
      <point x="377" y="512" type="line"/>
      <point x="377" y="277" type="line"/>
      <point x="348" y="268"/>
      <point x="303" y="262"/>
      <point x="266" y="262" type="curve" smooth="yes"/>
      <point x="175" y="262"/>
      <point x="115" y="296"/>
      <point x="115" y="382" type="curve"/>
      <point x="115" y="512" type="line"/>
      <point x="71" y="512" type="line"/>
      <point x="71" y="382" type="line"/>
      <point x="71" y="271"/>
      <point x="150" y="224"/>
      <point x="263" y="224" type="curve"/>
      <point x="301" y="224"/>
      <point x="346" y="231"/>
      <point x="377" y="240" type="curve"/>
    </contour>
  </outline>
</glyph>
<glyph name="D.sc" format="1">
	<advance width="540"/>
	<outline>
		<contour>
			<point x="97" y="0" type="line"/>
			<point x="229" y="0" type="line" smooth="yes"/>
			<point x="400" y="0"/>
			<point x="485" y="100"/>
			<point x="485" y="257" type="curve" smooth="yes"/>
			<point x="485" y="415"/>
			<point x="400" y="512"/>
			<point x="228" y="512" type="curve" smooth="yes"/>
			<point x="97" y="512" type="line"/>
		</contour>
		<contour>
			<point x="143" y="37" type="line"/>
			<point x="143" y="475" type="line"/>
			<point x="226" y="475" type="line" smooth="yes"/>
			<point x="373" y="475"/>
			<point x="437" y="387"/>
			<point x="437" y="257" type="curve" smooth="yes"/>
			<point x="437" y="119"/>
			<point x="373" y="37"/>
			<point x="226" y="37" type="curve" smooth="yes"/>
		</contour>
		<contour>
			<point name="aboveUC" x="276" y="562" type="move"/>
		</contour>
		<contour>
			<point name="belowLC" x="271" y="-22" type="move"/>
		</contour>
	</outline>
</glyph>
<glyph name="D.sups" format="1">
  <advance width="402"/>
  <outline>
    <contour>
      <point x="61" y="269" type="line"/>
      <point x="167" y="269" type="line" smooth="yes"/>
      <point x="300" y="269"/>
      <point x="367" y="354"/>
      <point x="367" y="487" type="curve" smooth="yes"/>
      <point x="367" y="619"/>
      <point x="300" y="701"/>
      <point x="166" y="701" type="curve" smooth="yes"/>
      <point x="61" y="701" type="line"/>
    </contour>
    <contour>
      <point x="100" y="301" type="line"/>
      <point x="100" y="669" type="line"/>
      <point x="163" y="669" type="line" smooth="yes"/>
      <point x="276" y="669"/>
      <point x="327" y="599"/>
      <point x="327" y="487" type="curve" smooth="yes"/>
      <point x="327" y="375"/>
      <point x="276" y="301"/>
      <point x="166" y="301" type="curve" smooth="yes"/>
    </contour>
  </outline>
</glyph>
<glyph name="De" format="1">
  <advance width="619"/>
  <outline>
    <contour>
      <point x="79" y="0" type="line"/>
      <point x="540" y="0" type="line"/>
      <point x="540" y="-188" type="line"/>
      <point x="579" y="-188" type="line"/>
      <point x="586" y="14" type="line"/>
      <point x="586" y="40" type="line"/>
      <point x="33" y="40" type="line"/>
      <point x="33" y="14" type="line"/>
      <point x="40" y="-188" type="line"/>
      <point x="79" y="-188" type="line"/>
    </contour>
    <contour>
      <point x="470" y="23" type="line"/>
      <point x="516" y="23" type="line"/>
      <point x="516" y="659" type="line"/>
      <point x="216" y="659" type="line"/>
      <point x="193" y="509"/>
      <point x="179" y="421"/>
      <point x="154" y="281" type="curve" smooth="yes"/>
      <point x="120" y="99"/>
      <point x="90" y="51"/>
      <point x="63" y="40" type="curve"/>
      <point x="89" y="16" type="line"/>
      <point x="126" y="31"/>
      <point x="160" y="77"/>
      <point x="196" y="272" type="curve" smooth="yes"/>
      <point x="220" y="400"/>
      <point x="230" y="489"/>
      <point x="253" y="619" type="curve"/>
      <point x="470" y="619" type="line"/>
    </contour>
  </outline>
</glyph>
<glyph name="De.sc" format="1">
  <advance width="538"/>
  <outline>
    <contour>
      <point x="77" y="-172" type="line"/>
      <point x="77" y="0" type="line"/>
      <point x="470" y="0" type="line"/>
      <point x="470" y="-172" type="line"/>
      <point x="508" y="-172" type="line"/>
      <point x="513" y="13" type="line"/>
      <point x="513" y="39" type="line"/>
      <point x="33" y="39" type="line"/>
      <point x="33" y="13" type="line"/>
      <point x="38" y="-172" type="line"/>
    </contour>
    <contour>
      <point x="401" y="14" type="line"/>
      <point x="447" y="14" type="line"/>
      <point x="447" y="512" type="line"/>
      <point x="187" y="512" type="line"/>
      <point x="167" y="398"/>
      <point x="156" y="330"/>
      <point x="134" y="225" type="curve" smooth="yes"/>
      <point x="106" y="85"/>
      <point x="81" y="47"/>
      <point x="58" y="38" type="curve"/>
      <point x="80" y="14" type="line"/>
      <point x="115" y="24"/>
      <point x="146" y="65"/>
      <point x="176" y="216" type="curve" smooth="yes"/>
      <point x="195" y="311"/>
      <point x="205" y="377"/>
      <point x="223" y="474" type="curve"/>
      <point x="401" y="474" type="line"/>
    </contour>
  </outline>
</glyph>
<glyph name="De.sc" format="1">
  <advance width="519"/>
  <outline>
    <contour>
      <point x="381" y="0" type="line"/>
      <point x="427" y="0" type="line"/>
      <point x="427" y="512" type="line"/>
      <point x="143" y="512" type="line"/>
      <point x="143" y="369" type="line" smooth="yes"/>
      <point x="143" y="288"/>
      <point x="138" y="220"/>
      <point x="125" y="164" type="curve" smooth="yes"/>
      <point x="112" y="105"/>
      <point x="89" y="60"/>
      <point x="52" y="38" type="curve"/>
      <point x="71" y="12" type="line"/>
      <point x="121" y="38"/>
      <point x="153" y="87"/>
      <point x="168" y="158" type="curve" smooth="yes"/>
      <point x="181" y="216"/>
      <point x="186" y="287"/>
      <point x="186" y="371" type="curve" smooth="yes"/>
      <point x="186" y="474" type="line"/>
      <point x="381" y="474" type="line"/>
    </contour>
    <contour>
      <point x="39" y="-149" type="line"/>
      <point x="77" y="-149" type="line"/>
      <point x="77" y="0" type="line"/>
      <point x="476" y="0" type="line"/>
      <point x="476" y="38" type="line"/>
      <point x="33" y="38" type="line"/>
      <point x="33" y="11" type="line"/>
    </contour>
    <contour>
      <point x="442" y="-149" type="line"/>
      <point x="479" y="-149" type="line"/>
      <point x="486" y="11" type="line"/>
      <point x="486" y="38" type="line"/>
      <point x="46" y="38" type="line"/>
      <point x="46" y="0" type="line"/>
      <point x="442" y="0" type="line"/>
    </contour>
  </outline>
</glyph>
<glyph name="Dje.sc" format="1">
  <advance width="598"/>
  <outline>
    <contour>
      <point x="397" y="-122" type="curve" smooth="yes"/>
      <point x="467" y="-122"/>
      <point x="541" y="-65"/>
      <point x="541" y="110" type="curve" smooth="yes"/>
      <point x="541" y="259"/>
      <point x="456" y="310"/>
      <point x="339" y="310" type="curve" smooth="yes"/>
      <point x="303" y="310"/>
      <point x="261" y="302"/>
      <point x="233" y="293" type="curve"/>
      <point x="233" y="512" type="line"/>
      <point x="188" y="512" type="line"/>
      <point x="188" y="0" type="line"/>
      <point x="233" y="0" type="line"/>
      <point x="233" y="257" type="line"/>
      <point x="258" y="266"/>
      <point x="300" y="271"/>
      <point x="335" y="271" type="curve" smooth="yes"/>
      <point x="431" y="271"/>
      <point x="495" y="232"/>
      <point x="495" y="110" type="curve" smooth="yes"/>
      <point x="495" y="-40"/>
      <point x="441" y="-83"/>
      <point x="393" y="-83" type="curve" smooth="yes"/>
      <point x="378" y="-83"/>
      <point x="363" y="-80"/>
      <point x="352" y="-77" type="curve"/>
      <point x="343" y="-113" type="line"/>
      <point x="355" y="-118"/>
      <point x="378" y="-122"/>
    </contour>
    <contour>
      <point x="29" y="474" type="line"/>
      <point x="407" y="474" type="line"/>
      <point x="407" y="512" type="line"/>
      <point x="29" y="512" type="line"/>
    </contour>
  </outline>
</glyph>
<glyph name="Dzhe.sc" format="1">
  <advance width="570"/>
  <outline>
    <contour>
      <point x="97" y="0" type="line"/>
      <point x="472" y="0" type="line"/>
      <point x="472" y="512" type="line"/>
      <point x="428" y="512" type="line"/>
      <point x="428" y="38" type="line"/>
      <point x="142" y="38" type="line"/>
      <point x="142" y="512" type="line"/>
      <point x="97" y="512" type="line"/>
    </contour>
    <contour>
      <point x="266" y="-149" type="line"/>
      <point x="304" y="-149" type="line"/>
      <point x="310" y="11" type="line"/>
      <point x="266" y="0" type="line"/>
    </contour>
  </outline>
</glyph>
<glyph name="E" format="1">
  <advance width="515"/>
  <outline>
    <contour>
      <point x="283" y="681" type="move" name="aboveUC"/>
    </contour>
    <contour>
      <point x="385" y="0" type="move" name="ogonekUC"/>
    </contour>
    <contour>
      <point x="299" y="-22" type="move" name="belowLC"/>
    </contour>
    <contour>
      <point x="97" y="0" type="line"/>
      <point x="468" y="0" type="line"/>
      <point x="468" y="40" type="line"/>
      <point x="143" y="40" type="line"/>
      <point x="143" y="330" type="line"/>
      <point x="407" y="330" type="line"/>
      <point x="407" y="370" type="line"/>
      <point x="143" y="370" type="line"/>
      <point x="143" y="619" type="line"/>
      <point x="458" y="619" type="line"/>
      <point x="458" y="659" type="line"/>
      <point x="97" y="659" type="line"/>
    </contour>
  </outline>
</glyph>
<glyph name="E.sups" format="1">
  <advance width="341"/>
  <outline>
    <contour>
      <point x="61" y="269" type="line"/>
      <point x="311" y="269" type="line"/>
      <point x="311" y="301" type="line"/>
      <point x="100" y="301" type="line"/>
      <point x="100" y="482" type="line"/>
      <point x="273" y="482" type="line"/>
      <point x="273" y="515" type="line"/>
      <point x="100" y="515" type="line"/>
      <point x="100" y="669" type="line"/>
      <point x="305" y="669" type="line"/>
      <point x="305" y="701" type="line"/>
      <point x="61" y="701" type="line"/>
    </contour>
  </outline>
</glyph>
<glyph name="E.sups" format="1">
  <advance width="341"/>
  <outline>
    <contour>
      <point x="61" y="406" type="line"/>
      <point x="311" y="406" type="line"/>
      <point x="311" y="438" type="line"/>
      <point x="100" y="438" type="line"/>
      <point x="100" y="619" type="line"/>
      <point x="273" y="619" type="line"/>
      <point x="273" y="652" type="line"/>
      <point x="100" y="652" type="line"/>
      <point x="100" y="805" type="line"/>
      <point x="305" y="805" type="line"/>
      <point x="305" y="838" type="line"/>
      <point x="61" y="838" type="line"/>
    </contour>
  </outline>
</glyph>
<glyph name="Ecyr" format="1">
  <advance width="564"/>
  <outline>
    <contour>
      <point x="245" y="-12" type="curve" smooth="yes"/>
      <point x="404" y="-12"/>
      <point x="510" y="113"/>
      <point x="510" y="331" type="curve" smooth="yes"/>
      <point x="510" y="549"/>
      <point x="408" y="671"/>
      <point x="244" y="671" type="curve" smooth="yes"/>
      <point x="165" y="671"/>
      <point x="94" y="633"/>
      <point x="57" y="592" type="curve"/>
      <point x="84" y="561" type="line"/>
      <point x="122" y="602"/>
      <point x="181" y="629"/>
      <point x="243" y="629" type="curve" smooth="yes"/>
      <point x="385" y="629"/>
      <point x="464" y="520"/>
      <point x="464" y="337" type="curve" smooth="yes"/>
      <point x="464" y="139"/>
      <point x="379" y="30"/>
      <point x="243" y="30" type="curve" smooth="yes"/>
      <point x="169" y="30"/>
      <point x="115" y="58"/>
      <point x="65" y="111" type="curve"/>
      <point x="38" y="82" type="line"/>
      <point x="91" y="24"/>
      <point x="154" y="-12"/>
    </contour>
    <contour>
      <point x="160" y="330" type="line"/>
      <point x="494" y="330" type="line"/>
      <point x="494" y="370" type="line"/>
      <point x="160" y="370" type="line"/>
    </contour>
    <contour>
      <point x="260" y="681" type="move" name="aboveUC"/>
    </contour>
  </outline>
</glyph>
<glyph name="El" format="1">
  <advance width="614"/>
  <outline>
    <contour>
      <point x="50" y="-12" type="curve" smooth="yes"/>
      <point x="114" y="-12"/>
      <point x="150" y="27"/>
      <point x="185" y="217" type="curve" smooth="yes"/>
      <point x="210" y="351"/>
      <point x="231" y="483"/>
      <point x="256" y="619" type="curve"/>
      <point x="471" y="619" type="line"/>
      <point x="471" y="0" type="line"/>
      <point x="517" y="0" type="line"/>
      <point x="517" y="659" type="line"/>
      <point x="219" y="659" type="line"/>
      <point x="192" y="503"/>
      <point x="168" y="368"/>
      <point x="141" y="222" type="curve" smooth="yes"/>
      <point x="109" y="58"/>
      <point x="81" y="35"/>
      <point x="46" y="35" type="curve" smooth="yes"/>
      <point x="36" y="35"/>
      <point x="28" y="37"/>
      <point x="18" y="40" type="curve"/>
      <point x="6" y="-4" type="line"/>
      <point x="22" y="-10"/>
      <point x="37" y="-12"/>
    </contour>
  </outline>
</glyph>
<glyph name="El.sc" format="1">
	<advance width="539"/>
	<outline>
		<contour>
			<point x="44" y="-12" type="curve" smooth="yes"/>
			<point x="100" y="-12"/>
			<point x="132" y="23"/>
			<point x="163" y="173" type="curve" smooth="yes"/>
			<point x="184" y="272"/>
			<point x="201" y="372"/>
			<point x="222" y="474" type="curve"/>
			<point x="396" y="474" type="line"/>
			<point x="396" y="0" type="line"/>
			<point x="442" y="0" type="line"/>
			<point x="442" y="512" type="line"/>
			<point x="186" y="512" type="line"/>
			<point x="163" y="394"/>
			<point x="143" y="289"/>
			<point x="120" y="177" type="curve" smooth="yes"/>
			<point x="93" y="52"/>
			<point x="69" y="33"/>
			<point x="40" y="33" type="curve" smooth="yes"/>
			<point x="32" y="33"/>
			<point x="27" y="34"/>
			<point x="18" y="37" type="curve"/>
			<point x="6" y="-6" type="line"/>
			<point x="17" y="-10"/>
			<point x="34" y="-12"/>
		</contour>
	</outline>
</glyph>
<glyph name="Endescender.sc" format="1">
  <advance width="580"/>
  <outline>
    <contour>
      <point x="503" y="-172" type="line"/>
      <point x="541" y="-172" type="line"/>
      <point x="547" y="13" type="line"/>
      <point x="547" y="39" type="line"/>
      <point x="461" y="39" type="line"/>
      <point x="461" y="0" type="line"/>
      <point x="503" y="0" type="line"/>
    </contour>
    <component base="En.sc"/>
  </outline>
</glyph>
<glyph name="Eng.alt" format="1">
  <advance width="636"/>
  <outline>
    <contour>
      <point x="432" y="-156" type="curve" smooth="yes"/>
      <point x="505" y="-156"/>
      <point x="539" y="-110"/>
      <point x="539" y="-15" type="curve" smooth="yes"/>
      <point x="539" y="659" type="line"/>
      <point x="495" y="659" type="line"/>
      <point x="495" y="255" type="line" smooth="yes"/>
      <point x="495" y="191"/>
      <point x="499" y="127"/>
      <point x="501" y="63" type="curve"/>
      <point x="497" y="63" type="line"/>
      <point x="423" y="194" type="line"/>
      <point x="145" y="659" type="line"/>
      <point x="97" y="659" type="line"/>
      <point x="97" y="0" type="line"/>
      <point x="141" y="0" type="line"/>
      <point x="141" y="409" type="line" smooth="yes"/>
      <point x="141" y="473"/>
      <point x="137" y="533"/>
      <point x="135" y="596" type="curve"/>
      <point x="139" y="596" type="line"/>
      <point x="213" y="465" type="line"/>
      <point x="491" y="0" type="line"/>
      <point x="495" y="0" type="line"/>
      <point x="495" y="-71"/>
      <point x="485" y="-113"/>
      <point x="431" y="-113" type="curve" smooth="yes"/>
      <point x="411" y="-113"/>
      <point x="392" y="-108"/>
      <point x="380" y="-104" type="curve"/>
      <point x="370" y="-143" type="line"/>
      <point x="385" y="-150"/>
      <point x="409" y="-156"/>
    </contour>
  </outline>
</glyph>
<glyph name="Eng.sc" format="1">
  <advance width="548"/>
  <outline>
    <contour>
      <point x="335" y="681" type="move" name="aboveUC"/>
    </contour>
    <contour>
      <point x="357" y="-12" type="curve" smooth="yes"/>
      <point x="433" y="-12"/>
      <point x="495" y="59"/>
      <point x="495" y="261" type="curve" smooth="yes"/>
      <point x="495" y="451"/>
      <point x="413" y="524"/>
      <point x="303" y="524" type="curve" smooth="yes"/>
      <point x="242" y="524"/>
      <point x="182" y="485"/>
      <point x="143" y="444" type="curve"/>
      <point x="143" y="512" type="line"/>
      <point x="97" y="512" type="line"/>
      <point x="97" y="0" type="line"/>
      <point x="143" y="0" type="line"/>
      <point x="143" y="400" type="line"/>
      <point x="179" y="444"/>
      <point x="245" y="483"/>
      <point x="294" y="483" type="curve" smooth="yes"/>
      <point x="385" y="483"/>
      <point x="447" y="430"/>
      <point x="447" y="261" type="curve" smooth="yes"/>
      <point x="447" y="85"/>
      <point x="403" y="29"/>
      <point x="353" y="29" type="curve" smooth="yes"/>
      <point x="334" y="29"/>
      <point x="320" y="32"/>
      <point x="308" y="38" type="curve"/>
      <point x="294" y="-2" type="line"/>
      <point x="310" y="-9"/>
      <point x="336" y="-12"/>
    </contour>
  </outline>
</glyph>
<glyph name="Epsilon.sc" format="1">
  <advance width="461"/>
  <outline>
    <contour>
      <point x="262" y="562" type="move" name="aboveLC"/>
    </contour>
    <contour>
      <point x="265" y="-22" type="move" name="belowLC"/>
    </contour>
    <component base="E.sc"/>
  </outline>
</glyph>
<glyph name="Esdescender.sc" format="1">
  <advance width="494"/>
  <outline>
    <contour>
      <point x="256" y="-172" type="line"/>
      <point x="293" y="-172" type="line"/>
      <point x="298" y="10" type="line"/>
      <point x="254" y="10" type="line"/>
    </contour>
    <component base="Es.sc"/>
  </outline>
</glyph>
<glyph name="Eta.sc" format="1">
  <advance width="578"/>
  <outline>
    <contour>
      <point x="289" y="562" type="move" name="aboveLC"/>
    </contour>
    <contour>
      <point x="289" y="-22" type="move" name="belowLC"/>
    </contour>
    <component base="H.sc"/>
  </outline>
</glyph>
<glyph name="Euro" format="1">
  <advance width="479"/>
  <outline>
    <contour>
      <point x="308" y="-12" type="curve" smooth="yes"/>
      <point x="382" y="-12"/>
      <point x="432" y="24"/>
      <point x="474" y="82" type="curve"/>
      <point x="445" y="107" type="line"/>
      <point x="406" y="53"/>
      <point x="366" y="26"/>
      <point x="311" y="26" type="curve" smooth="yes"/>
      <point x="198" y="26"/>
      <point x="132" y="143"/>
      <point x="132" y="322" type="curve" smooth="yes"/>
      <point x="132" y="500"/>
      <point x="201" y="613"/>
      <point x="323" y="613" type="curve" smooth="yes"/>
      <point x="369" y="613"/>
      <point x="406" y="586"/>
      <point x="435" y="546" type="curve"/>
      <point x="464" y="573" type="line"/>
      <point x="435" y="615"/>
      <point x="383" y="651"/>
      <point x="323" y="651" type="curve" smooth="yes"/>
      <point x="177" y="651"/>
      <point x="85" y="524"/>
      <point x="85" y="321" type="curve" smooth="yes"/>
      <point x="85" y="118"/>
      <point x="174" y="-12"/>
    </contour>
    <contour>
      <point x="24" y="246" type="line"/>
      <point x="374" y="246" type="line"/>
      <point x="374" y="279" type="line"/>
      <point x="89" y="279" type="line"/>
      <point x="24" y="275" type="line"/>
    </contour>
    <contour>
      <point x="24" y="356" type="line"/>
      <point x="414" y="356" type="line"/>
      <point x="414" y="389" type="line"/>
      <point x="91" y="389" type="line"/>
      <point x="24" y="385" type="line"/>
    </contour>
  </outline>
</glyph>
<glyph name="Ecyr.sc" format="1">
  <advance width="492"/>
  <outline>
    <contour>
      <point x="212" y="-9" type="curve" smooth="yes"/>
      <point x="342" y="-9"/>
      <point x="438" y="93"/>
      <point x="438" y="256" type="curve" smooth="yes"/>
      <point x="438" y="419"/>
      <point x="346" y="519"/>
      <point x="210" y="519" type="curve" smooth="yes"/>
      <point x="145" y="519"/>
      <point x="85" y="490"/>
      <point x="53" y="458" type="curve"/>
      <point x="79" y="429" type="line"/>
      <point x="111" y="460"/>
      <point x="159" y="480"/>
      <point x="209" y="480" type="curve" smooth="yes"/>
      <point x="323" y="480"/>
      <point x="393" y="391"/>
      <point x="393" y="261" type="curve" smooth="yes"/>
      <point x="393" y="119"/>
      <point x="319" y="31"/>
      <point x="210" y="31" type="curve" smooth="yes"/>
      <point x="151" y="31"/>
      <point x="105" y="52"/>
      <point x="64" y="91" type="curve"/>
      <point x="38" y="64" type="line"/>
      <point x="83" y="18"/>
      <point x="136" y="-9"/>
    </contour>
    <contour>
      <point x="138" y="251" type="line"/>
      <point x="420" y="251" type="line"/>
      <point x="420" y="289" type="line"/>
      <point x="138" y="289" type="line"/>
    </contour>
  </outline>
</glyph>
<glyph name="El.sc" format="1">
  <advance width="560"/>
  <outline>
    <contour>
      <point x="62" y="-9" type="curve" smooth="yes"/>
      <point x="125" y="-9"/>
      <point x="175" y="45"/>
      <point x="193" y="156" type="curve" smooth="yes"/>
      <point x="202" y="215"/>
      <point x="211" y="287"/>
      <point x="211" y="371" type="curve" smooth="yes"/>
      <point x="211" y="474" type="line"/>
      <point x="410" y="474" type="line"/>
      <point x="410" y="0" type="line"/>
      <point x="454" y="0" type="line"/>
      <point x="454" y="512" type="line"/>
      <point x="168" y="512" type="line"/>
      <point x="168" y="369" type="line" smooth="yes"/>
      <point x="168" y="288"/>
      <point x="160" y="219"/>
      <point x="149" y="163" type="curve" smooth="yes"/>
      <point x="136" y="85"/>
      <point x="102" y="34"/>
      <point x="56" y="34" type="curve" smooth="yes"/>
      <point x="43" y="34"/>
      <point x="37" y="37"/>
      <point x="29" y="39" type="curve"/>
      <point x="18" y="-3" type="line"/>
      <point x="36" y="-8"/>
      <point x="41" y="-9"/>
    </contour>
  </outline>
</glyph>
<glyph name="Esdescender.sc" format="1">
  <advance width="564"/>
  <outline>
    <contour>
      <point x="310" y="-188" type="line"/>
      <point x="349" y="-188" type="line"/>
      <point x="355" y="13" type="line"/>
      <point x="310" y="0" type="line"/>
    </contour>
    <component base="C"/>
  </outline>
</glyph>
<glyph name="Eth.sc" format="1">
  <advance width="557"/>
  <outline>
    <contour>
      <point x="37" y="255" type="line"/>
      <point x="305" y="255" type="line"/>
      <point x="305" y="288" type="line"/>
      <point x="115" y="288" type="line"/>
      <point x="37" y="286" type="line"/>
    </contour>
    <component base="D.sc" xOffset="17"/>
  </outline>
</glyph>
<glyph name="F" format="1">
  <advance width="477"/>
  <outline>
    <contour>
      <point x="97" y="0" type="line"/>
      <point x="143" y="0" type="line"/>
      <point x="143" y="317" type="line"/>
      <point x="408" y="317" type="line"/>
      <point x="408" y="357" type="line"/>
      <point x="143" y="357" type="line"/>
      <point x="143" y="619" type="line"/>
      <point x="456" y="619" type="line"/>
      <point x="456" y="659" type="line"/>
      <point x="97" y="659" type="line"/>
    </contour>
    <contour>
      <point x="285" y="681" type="move" name="aboveUC"/>
    </contour>
    <contour>
      <point x="121" y="-22" type="move" name="belowLC"/>
    </contour>
  </outline>
</glyph>
<glyph name="F.sc" format="1">
	<advance width="424"/>
	<outline>
		<contour>
			<point x="97" y="0" type="line"/>
			<point x="143" y="0" type="line"/>
			<point x="143" y="241" type="line"/>
			<point x="363" y="241" type="line"/>
			<point x="363" y="278" type="line"/>
			<point x="143" y="278" type="line"/>
			<point x="143" y="474" type="line"/>
			<point x="404" y="474" type="line"/>
			<point x="404" y="512" type="line"/>
			<point x="97" y="512" type="line"/>
		</contour>
		<contour>
			<point name="aboveUC" x="264" y="562" type="move"/>
		</contour>
		<contour>
			<point name="belowLC" x="121" y="-22" type="move"/>
		</contour>
	</outline>
</glyph>
<glyph name="F.sups" format="1">
  <advance width="316"/>
  <outline>
    <contour>
      <point x="61" y="269" type="line"/>
      <point x="100" y="269" type="line"/>
      <point x="100" y="473" type="line"/>
      <point x="273" y="473" type="line"/>
      <point x="273" y="505" type="line"/>
      <point x="100" y="505" type="line"/>
      <point x="100" y="669" type="line"/>
      <point x="305" y="669" type="line"/>
      <point x="305" y="701" type="line"/>
      <point x="61" y="701" type="line"/>
    </contour>
  </outline>
</glyph>
<glyph name="F.sc" format="1">
  <advance width="424"/>
  <outline>
    <contour>
      <point x="264" y="562" type="move" name="aboveUC"/>
    </contour>
    <contour>
      <point x="121" y="-22" type="move" name="belowLC"/>
    </contour>
    <contour>
      <point x="97" y="0" type="line"/>
      <point x="143" y="0" type="line"/>
      <point x="143" y="241" type="line"/>
      <point x="363" y="241" type="line"/>
      <point x="363" y="278" type="line"/>
      <point x="143" y="278" type="line"/>
      <point x="143" y="474" type="line"/>
      <point x="404" y="474" type="line"/>
      <point x="404" y="512" type="line"/>
      <point x="97" y="512" type="line"/>
    </contour>
  </outline>
</glyph>
<glyph name="Fita" format="1">
  <advance width="652"/>
  <outline>
    <contour>
      <point x="326" y="681" type="move" name="aboveUC"/>
    </contour>
    <contour>
      <point x="326" y="-12" type="curve" smooth="yes"/>
      <point x="486" y="-12"/>
      <point x="598" y="115"/>
      <point x="598" y="332" type="curve" smooth="yes"/>
      <point x="598" y="548"/>
      <point x="486" y="671"/>
      <point x="326" y="671" type="curve" smooth="yes"/>
      <point x="166" y="671"/>
      <point x="55" y="548"/>
      <point x="55" y="332" type="curve" smooth="yes"/>
      <point x="55" y="115"/>
      <point x="166" y="-12"/>
    </contour>
    <contour>
      <point x="326" y="29" type="curve" smooth="yes"/>
      <point x="190" y="29"/>
      <point x="101" y="139"/>
      <point x="101" y="337" type="curve" smooth="yes"/>
      <point x="101" y="521"/>
      <point x="190" y="630"/>
      <point x="326" y="630" type="curve" smooth="yes"/>
      <point x="462" y="630"/>
      <point x="552" y="521"/>
      <point x="552" y="337" type="curve" smooth="yes"/>
      <point x="552" y="139"/>
      <point x="462" y="29"/>
    </contour>
    <contour>
      <point x="85" y="331" type="line"/>
      <point x="566" y="331" type="line"/>
      <point x="566" y="369" type="line"/>
      <point x="85" y="369" type="line"/>
    </contour>
  </outline>
</glyph>
<glyph name="Fita.sc" format="1">
  <advance width="574"/>
  <outline>
    <contour>
      <point x="287" y="-12" type="curve" smooth="yes"/>
      <point x="422" y="-12"/>
      <point x="519" y="88"/>
      <point x="519" y="257" type="curve" smooth="yes"/>
      <point x="519" y="427"/>
      <point x="422" y="524"/>
      <point x="287" y="524" type="curve" smooth="yes"/>
      <point x="151" y="524"/>
      <point x="55" y="427"/>
      <point x="55" y="257" type="curve" smooth="yes"/>
      <point x="55" y="88"/>
      <point x="151" y="-12"/>
    </contour>
    <contour>
      <point x="287" y="28" type="curve" smooth="yes"/>
      <point x="175" y="28"/>
      <point x="100" y="113"/>
      <point x="100" y="259" type="curve" smooth="yes"/>
      <point x="100" y="402"/>
      <point x="175" y="484"/>
      <point x="287" y="484" type="curve" smooth="yes"/>
      <point x="398" y="484"/>
      <point x="473" y="402"/>
      <point x="473" y="259" type="curve" smooth="yes"/>
      <point x="473" y="113"/>
      <point x="398" y="28"/>
    </contour>
    <contour>
      <point x="485" y="253" type="line"/>
      <point x="485" y="290" type="line"/>
      <point x="85" y="290" type="line"/>
      <point x="85" y="253" type="line"/>
    </contour>
  </outline>
</glyph>
<glyph name="Fita.sc" format="1">
  <advance width="574"/>
  <outline>
    <contour>
      <point x="85" y="253" type="line"/>
      <point x="485" y="253" type="line"/>
      <point x="485" y="290" type="line"/>
      <point x="85" y="290" type="line"/>
    </contour>
    <component base="O.sc"/>
  </outline>
</glyph>
<glyph name="G" format="1">
  <advance width="605"/>
  <outline>
    <contour>
      <point x="345" y="681" type="move" name="aboveUC"/>
    </contour>
    <contour>
      <point x="339" y="-22" type="move" name="belowLC"/>
    </contour>
    <contour>
      <point x="338" y="-12" type="curve" smooth="yes"/>
      <point x="424" y="-12"/>
      <point x="492" y="19"/>
      <point x="533" y="63" type="curve"/>
      <point x="533" y="324" type="line"/>
      <point x="331" y="324" type="line"/>
      <point x="331" y="285" type="line"/>
      <point x="489" y="285" type="line"/>
      <point x="489" y="80" type="line"/>
      <point x="457" y="48"/>
      <point x="401" y="30"/>
      <point x="341" y="30" type="curve" smooth="yes"/>
      <point x="191" y="30"/>
      <point x="103" y="148"/>
      <point x="103" y="331" type="curve" smooth="yes"/>
      <point x="103" y="514"/>
      <point x="196" y="629"/>
      <point x="347" y="629" type="curve" smooth="yes"/>
      <point x="419" y="629"/>
      <point x="465" y="598"/>
      <point x="499" y="561" type="curve"/>
      <point x="526" y="592" type="line"/>
      <point x="491" y="629"/>
      <point x="435" y="671"/>
      <point x="346" y="671" type="curve" smooth="yes"/>
      <point x="172" y="671"/>
      <point x="55" y="540"/>
      <point x="55" y="331" type="curve" smooth="yes"/>
      <point x="55" y="121"/>
      <point x="168" y="-12"/>
    </contour>
  </outline>
</glyph>
<glyph name="G.sups" format="1">
  <advance width="400"/>
  <outline>
    <contour>
      <point x="225" y="261" type="curve" smooth="yes"/>
      <point x="282" y="261"/>
      <point x="328" y="282"/>
      <point x="355" y="310" type="curve"/>
      <point x="355" y="485" type="line"/>
      <point x="220" y="485" type="line"/>
      <point x="220" y="453" type="line"/>
      <point x="320" y="453" type="line"/>
      <point x="320" y="325" type="line"/>
      <point x="301" y="307"/>
      <point x="265" y="295"/>
      <point x="228" y="295" type="curve" smooth="yes"/>
      <point x="130" y="295"/>
      <point x="74" y="369"/>
      <point x="74" y="487" type="curve" smooth="yes"/>
      <point x="74" y="602"/>
      <point x="134" y="676"/>
      <point x="230" y="676" type="curve" smooth="yes"/>
      <point x="277" y="676"/>
      <point x="307" y="656"/>
      <point x="329" y="633" type="curve"/>
      <point x="351" y="658" type="line"/>
      <point x="327" y="682"/>
      <point x="289" y="709"/>
      <point x="230" y="709" type="curve" smooth="yes"/>
      <point x="114" y="709"/>
      <point x="34" y="623"/>
      <point x="34" y="486" type="curve" smooth="yes"/>
      <point x="34" y="347"/>
      <point x="112" y="261"/>
    </contour>
  </outline>
</glyph>
<glyph name="Gamma" format="1">
  <advance width="485"/>
  <outline>
    <contour>
      <point x="97" y="0" type="line"/>
      <point x="143" y="0" type="line"/>
      <point x="143" y="619" type="line"/>
      <point x="456" y="619" type="line"/>
      <point x="456" y="659" type="line"/>
      <point x="97" y="659" type="line"/>
    </contour>
  </outline>
</glyph>
<glyph name="Gamma.sc" format="1">
	<advance width="433"/>
	<outline>
		<contour>
			<point x="97" y="0" type="line"/>
			<point x="143" y="0" type="line"/>
			<point x="143" y="473" type="line"/>
			<point x="405" y="473" type="line"/>
			<point x="405" y="512" type="line"/>
			<point x="97" y="512" type="line"/>
		</contour>
	</outline>
</glyph>
<glyph name="Germandbls" format="1">
  <advance width="644"/>
  <outline>
    <contour>
      <point x="416" y="-12" type="curve" smooth="yes"/>
      <point x="522" y="-12"/>
      <point x="599" y="65"/>
      <point x="599" y="167" type="curve" smooth="yes"/>
      <point x="599" y="260"/>
      <point x="545" y="337"/>
      <point x="382" y="363" type="curve"/>
      <point x="538" y="533" type="line"/>
      <point x="499" y="616"/>
      <point x="439" y="671"/>
      <point x="339" y="671" type="curve" smooth="yes"/>
      <point x="196" y="671"/>
      <point x="98" y="583"/>
      <point x="98" y="422" type="curve" smooth="yes"/>
      <point x="98" y="0" type="line"/>
      <point x="144" y="0" type="line"/>
      <point x="144" y="409" type="line" smooth="yes"/>
      <point x="144" y="562"/>
      <point x="219" y="630"/>
      <point x="337" y="630" type="curve" smooth="yes"/>
      <point x="412" y="630"/>
      <point x="460" y="588"/>
      <point x="485" y="535" type="curve"/>
      <point x="331" y="365" type="line"/>
      <point x="334" y="330" type="line"/>
      <point x="513" y="302"/>
      <point x="551" y="241"/>
      <point x="551" y="166" type="curve" smooth="yes"/>
      <point x="551" y="87"/>
      <point x="502" y="29"/>
      <point x="416" y="29" type="curve" smooth="yes"/>
      <point x="356" y="29"/>
      <point x="311" y="51"/>
      <point x="270" y="99" type="curve"/>
      <point x="239" y="67" type="line"/>
      <point x="282" y="17"/>
      <point x="346" y="-12"/>
    </contour>
  </outline>
</glyph>
<glyph name="Ghe" format="1">
  <advance width="485"/>
  <outline>
    <contour>
      <point x="287" y="681" type="move" name="aboveUC"/>
    </contour>
    <component base="Gamma"/>
  </outline>
</glyph>
<glyph name="Ghe.sc" format="1">
  <advance width="433"/>
  <outline>
    <component base="Gamma.sc"/>
    <contour>
      <point x="267" y="534" type="move" name="aboveUC"/>
    </contour>
  </outline>
</glyph>
<glyph name="Ghe.sc" format="1">
  <advance width="433"/>
  <outline>
    <contour>
      <point x="267" y="534" type="move" name="aboveUC"/>
    </contour>
    <component base="Gamma.sc"/>
  </outline>
</glyph>
<glyph name="Ghestroke" format="1">
  <advance width="506"/>
  <outline>
    <contour>
      <point x="37" y="321" type="line"/>
      <point x="327" y="321" type="line"/>
      <point x="327" y="354" type="line"/>
      <point x="120" y="354" type="line"/>
      <point x="37" y="352" type="line"/>
    </contour>
    <component base="Gamma" xOffset="21"/>
  </outline>
</glyph>
<glyph name="Ghestroke.sc" format="1">
	<advance width="454"/>
	<outline>
		<contour>
			<point x="37" y="243" type="line"/>
			<point x="327" y="243" type="line"/>
			<point x="327" y="277" type="line"/>
			<point x="120" y="277" type="line"/>
			<point x="37" y="274" type="line"/>
		</contour>
		<component base="Ghe.sc" xOffset="21"/>
	</outline>
</glyph>
<glyph name="Gheup.sc" format="1">
  <advance width="433"/>
  <outline>
    <contour>
      <point x="333" y="473" type="line"/>
      <point x="405" y="473" type="line"/>
      <point x="413" y="683" type="line"/>
      <point x="377" y="683" type="line"/>
      <point x="364" y="511" type="line"/>
      <point x="333" y="511" type="line"/>
    </contour>
    <component base="Gamma.sc"/>
  </outline>
</glyph>
<glyph name="Gsmall" format="1">
  <advance width="486"/>
  <outline>
    <contour>
      <point x="276" y="-12" type="curve" smooth="yes"/>
      <point x="345" y="-12"/>
      <point x="399" y="15"/>
      <point x="432" y="47" type="curve"/>
      <point x="432" y="242" type="line"/>
      <point x="268" y="242" type="line"/>
      <point x="268" y="205" type="line"/>
      <point x="390" y="205" type="line"/>
      <point x="390" y="66" type="line"/>
      <point x="366" y="44"/>
      <point x="325" y="26"/>
      <point x="280" y="26" type="curve" smooth="yes"/>
      <point x="169" y="26"/>
      <point x="96" y="108"/>
      <point x="96" y="243" type="curve" smooth="yes"/>
      <point x="96" y="373"/>
      <point x="175" y="454"/>
      <point x="283" y="454" type="curve" smooth="yes"/>
      <point x="338" y="454"/>
      <point x="375" y="429"/>
      <point x="401" y="402" type="curve"/>
      <point x="427" y="432" type="line"/>
      <point x="397" y="461"/>
      <point x="352" y="492"/>
      <point x="281" y="492" type="curve" smooth="yes"/>
      <point x="147" y="492"/>
      <point x="52" y="396"/>
      <point x="52" y="243" type="curve" smooth="yes"/>
      <point x="52" y="82"/>
      <point x="145" y="-12"/>
    </contour>
    <contour>
      <point x="301" y="504" type="move" name="aboveUC"/>
    </contour>
    <contour>
      <point x="294" y="-22" type="move" name="belowLC"/>
    </contour>
  </outline>
</glyph>
<glyph name="Gheup" format="1">
  <advance width="485"/>
  <outline>
    <contour>
      <point x="362" y="569" type="line"/>
      <point x="431" y="569" type="line"/>
      <point x="438" y="799" type="line"/>
      <point x="440" y="799" type="line"/>
      <point x="428" y="659" type="line"/>
      <point x="362" y="659" type="line"/>
    </contour>
    <contour>
      <point x="120" y="51" type="line"/>
      <point x="168" y="51" type="line"/>
      <point x="169" y="651" type="line"/>
      <point x="443" y="651" type="line"/>
      <point x="432" y="659" type="line"/>
      <point x="120" y="659" type="line"/>
    </contour>
  </outline>
</glyph>
<glyph name="Gheup.sc" format="1">
  <advance width="430"/>
  <outline>
    <contour>
      <point x="97" y="0" type="line"/>
      <point x="142" y="0" type="line"/>
      <point x="142" y="474" type="line"/>
      <point x="403" y="474" type="line"/>
      <point x="394" y="512" type="line"/>
      <point x="97" y="512" type="line"/>
    </contour>
    <contour>
      <point x="337" y="474" type="line"/>
      <point x="403" y="474" type="line"/>
      <point x="410" y="645" type="line"/>
      <point x="373" y="645" type="line"/>
      <point x="361" y="512" type="line"/>
      <point x="337" y="512" type="line"/>
    </contour>
  </outline>
</glyph>
<glyph name="Ghook" format="1">
  <advance width="605"/>
  <outline>
    <contour>
      <point x="338" y="-12" type="curve" smooth="yes"/>
      <point x="424" y="-12"/>
      <point x="492" y="19"/>
      <point x="533" y="63" type="curve"/>
      <point x="533" y="324" type="line"/>
      <point x="331" y="324" type="line"/>
      <point x="331" y="285" type="line"/>
      <point x="489" y="285" type="line"/>
      <point x="489" y="80" type="line"/>
      <point x="457" y="48"/>
      <point x="401" y="30"/>
      <point x="341" y="30" type="curve" smooth="yes"/>
      <point x="191" y="30"/>
      <point x="103" y="148"/>
      <point x="103" y="331" type="curve" smooth="yes"/>
      <point x="103" y="514"/>
      <point x="196" y="629"/>
      <point x="347" y="629" type="curve" smooth="yes"/>
      <point x="419" y="629"/>
      <point x="465" y="607"/>
      <point x="499" y="580" type="curve"/>
      <point x="526" y="611" type="line"/>
      <point x="491" y="639"/>
      <point x="435" y="671"/>
      <point x="346" y="671" type="curve" smooth="yes"/>
      <point x="172" y="671"/>
      <point x="55" y="540"/>
      <point x="55" y="331" type="curve" smooth="yes"/>
      <point x="55" y="121"/>
      <point x="168" y="-12"/>
    </contour>
    <contour>
      <point x="511" y="611" type="curve"/>
      <point x="488" y="647"/>
      <point x="495" y="664"/>
      <point x="495" y="694" type="curve" smooth="yes"/>
      <point x="494" y="722"/>
      <point x="509" y="750"/>
      <point x="543" y="752" type="curve" smooth="yes"/>
      <point x="557" y="755"/>
      <point x="569" y="751"/>
      <point x="582" y="748" type="curve"/>
      <point x="583" y="748"/>
      <point x="591" y="771"/>
      <point x="592" y="770" type="curve"/>
      <point x="580" y="776"/>
      <point x="570" y="794"/>
      <point x="555" y="794" type="curve" smooth="yes"/>
      <point x="510" y="795"/>
      <point x="471" y="769"/>
      <point x="467" y="721" type="curve" smooth="yes"/>
      <point x="457" y="692"/>
      <point x="458" y="667"/>
      <point x="482" y="623" type="curve"/>
      <point x="482" y="620"/>
      <point x="510" y="614"/>
    </contour>
  </outline>
</glyph>
<glyph name="Ghook.sc" format="1">
  <advance width="534"/>
  <outline>
    <contour>
      <point x="296" y="-12" type="curve" smooth="yes"/>
      <point x="369" y="-12"/>
      <point x="427" y="12"/>
      <point x="462" y="43" type="curve"/>
      <point x="462" y="255" type="line"/>
      <point x="290" y="255" type="line"/>
      <point x="290" y="218" type="line"/>
      <point x="418" y="218" type="line"/>
      <point x="418" y="65" type="line"/>
      <point x="392" y="42"/>
      <point x="349" y="29"/>
      <point x="300" y="29" type="curve" smooth="yes"/>
      <point x="175" y="29"/>
      <point x="103" y="117"/>
      <point x="103" y="257" type="curve" smooth="yes"/>
      <point x="103" y="397"/>
      <point x="179" y="483"/>
      <point x="304" y="483" type="curve" smooth="yes"/>
      <point x="363" y="483"/>
      <point x="400" y="464"/>
      <point x="428" y="441" type="curve"/>
      <point x="455" y="471" type="line"/>
      <point x="424" y="495"/>
      <point x="378" y="524"/>
      <point x="304" y="524" type="curve" smooth="yes"/>
      <point x="156" y="524"/>
      <point x="55" y="421"/>
      <point x="55" y="257" type="curve" smooth="yes"/>
      <point x="55" y="90"/>
      <point x="152" y="-12"/>
    </contour>
    <contour>
      <point x="441" y="470" type="curve"/>
      <point x="421" y="496"/>
      <point x="430" y="517"/>
      <point x="430" y="539" type="curve" smooth="yes"/>
      <point x="429" y="560"/>
      <point x="441" y="581"/>
      <point x="469" y="583" type="curve" smooth="yes"/>
      <point x="482" y="586"/>
      <point x="492" y="583"/>
      <point x="502" y="580" type="curve"/>
      <point x="503" y="580"/>
      <point x="509" y="602"/>
      <point x="510" y="601" type="curve"/>
      <point x="500" y="606"/>
      <point x="492" y="621"/>
      <point x="479" y="621" type="curve" smooth="yes"/>
      <point x="439" y="622"/>
      <point x="406" y="601"/>
      <point x="402" y="563" type="curve" smooth="yes"/>
      <point x="392" y="541"/>
      <point x="394" y="514"/>
      <point x="412" y="479" type="curve"/>
      <point x="412" y="477"/>
      <point x="440" y="472"/>
    </contour>
  </outline>
</glyph>
<glyph name="H" format="1">
  <advance width="639"/>
  <outline>
    <contour>
      <point x="318" y="681" type="move" name="aboveUC"/>
    </contour>
    <contour>
      <point x="318" y="-22" type="move" name="belowLC"/>
    </contour>
    <contour>
      <point x="97" y="0" type="line"/>
      <point x="143" y="0" type="line"/>
      <point x="143" y="330" type="line"/>
      <point x="496" y="330" type="line"/>
      <point x="496" y="0" type="line"/>
      <point x="542" y="0" type="line"/>
      <point x="542" y="659" type="line"/>
      <point x="496" y="659" type="line"/>
      <point x="496" y="370" type="line"/>
      <point x="143" y="370" type="line"/>
      <point x="143" y="659" type="line"/>
      <point x="97" y="659" type="line"/>
    </contour>
  </outline>
</glyph>
<glyph name="H.sups" format="1">
  <advance width="424"/>
  <outline>
    <contour>
      <point x="61" y="269" type="line"/>
      <point x="100" y="269" type="line"/>
      <point x="100" y="482" type="line"/>
      <point x="325" y="482" type="line"/>
      <point x="325" y="269" type="line"/>
      <point x="363" y="269" type="line"/>
      <point x="363" y="701" type="line"/>
      <point x="325" y="701" type="line"/>
      <point x="325" y="515" type="line"/>
      <point x="100" y="515" type="line"/>
      <point x="100" y="701" type="line"/>
      <point x="61" y="701" type="line"/>
    </contour>
  </outline>
</glyph>
<glyph name="H.sc" format="1">
  <advance width="578"/>
  <outline>
    <contour>
      <point x="289" y="562" type="move" name="aboveUC"/>
    </contour>
    <contour>
      <point x="289" y="-22" type="move" name="belowLC"/>
    </contour>
    <contour>
      <point x="97" y="0" type="line"/>
      <point x="143" y="0" type="line"/>
      <point x="143" y="252" type="line"/>
      <point x="435" y="252" type="line"/>
      <point x="435" y="0" type="line"/>
      <point x="481" y="0" type="line"/>
      <point x="481" y="512" type="line"/>
      <point x="435" y="512" type="line"/>
      <point x="435" y="292" type="line"/>
      <point x="143" y="292" type="line"/>
      <point x="143" y="512" type="line"/>
      <point x="97" y="512" type="line"/>
    </contour>
  </outline>
</glyph>
<glyph name="Hadescender" format="1">
  <advance width="520"/>
  <outline>
    <contour>
      <point x="441" y="-188" type="line"/>
      <point x="480" y="-188" type="line"/>
      <point x="487" y="14" type="line"/>
      <point x="487" y="40" type="line"/>
      <point x="416" y="40" type="line"/>
      <point x="416" y="0" type="line"/>
      <point x="441" y="0" type="line"/>
    </contour>
    <component base="X"/>
  </outline>
</glyph>
<glyph name="Hard" format="1">
  <advance width="714"/>
  <outline>
    <contour>
      <point x="251" y="0" type="line"/>
      <point x="435" y="0" type="line" smooth="yes"/>
      <point x="582" y="0"/>
      <point x="666" y="65"/>
      <point x="666" y="195" type="curve" smooth="yes"/>
      <point x="666" y="317"/>
      <point x="569" y="372"/>
      <point x="427" y="372" type="curve" smooth="yes"/>
      <point x="297" y="372" type="line"/>
      <point x="297" y="659" type="line"/>
      <point x="29" y="659" type="line"/>
      <point x="29" y="619" type="line"/>
      <point x="251" y="619" type="line"/>
    </contour>
    <contour>
      <point x="297" y="39" type="line"/>
      <point x="297" y="333" type="line"/>
      <point x="415" y="333" type="line" smooth="yes"/>
      <point x="548" y="333"/>
      <point x="620" y="288"/>
      <point x="620" y="193" type="curve" smooth="yes"/>
      <point x="620" y="86"/>
      <point x="554" y="39"/>
      <point x="423" y="39" type="curve" smooth="yes"/>
    </contour>
  </outline>
</glyph>
<glyph name="Hbar" format="1">
  <advance width="672"/>
  <outline>
    <contour>
      <point x="36" y="495" type="line"/>
      <point x="635" y="495" type="line"/>
      <point x="635" y="528" type="line"/>
      <point x="119" y="528" type="line"/>
      <point x="36" y="524" type="line"/>
    </contour>
    <component base="H" xOffset="20"/>
  </outline>
</glyph>
<glyph name="Hbar.sc" format="1">
	<advance width="613"/>
	<outline>
		<contour>
			<point x="36" y="383" type="line"/>
			<point x="576" y="383" type="line"/>
			<point x="576" y="414" type="line"/>
			<point x="119" y="414" type="line"/>
			<point x="36" y="410" type="line"/>
		</contour>
		<contour>
			<point x="117" y="0" type="line"/>
			<point x="163" y="0" type="line"/>
			<point x="163" y="253" type="line"/>
			<point x="455" y="253" type="line"/>
			<point x="455" y="0" type="line"/>
			<point x="501" y="0" type="line"/>
			<point x="501" y="512" type="line"/>
			<point x="455" y="512" type="line"/>
			<point x="455" y="291" type="line"/>
			<point x="163" y="291" type="line"/>
			<point x="163" y="512" type="line"/>
			<point x="117" y="512" type="line"/>
		</contour>
	</outline>
</glyph>
<glyph name="Hadescender.sc" format="1">
  <advance width="520"/>
  <outline>
    <contour>
      <point x="441" y="-188" type="line"/>
      <point x="480" y="-188" type="line"/>
      <point x="487" y="14" type="line"/>
      <point x="487" y="40" type="line"/>
      <point x="416" y="40" type="line"/>
      <point x="416" y="0" type="line"/>
      <point x="441" y="0" type="line"/>
    </contour>
    <component base="X"/>
  </outline>
</glyph>
<glyph name="Hard.sc" format="1">
  <advance width="604"/>
  <outline>
    <contour>
      <point x="204" y="0" type="line"/>
      <point x="351" y="0" type="line" smooth="yes"/>
      <point x="479" y="0"/>
      <point x="559" y="38"/>
      <point x="559" y="145" type="curve" smooth="yes"/>
      <point x="559" y="245"/>
      <point x="478" y="292"/>
      <point x="351" y="292" type="curve" smooth="yes"/>
      <point x="250" y="292" type="line"/>
      <point x="250" y="512" type="line"/>
      <point x="29" y="512" type="line"/>
      <point x="29" y="474" type="line"/>
      <point x="204" y="474" type="line"/>
    </contour>
    <contour>
      <point x="250" y="37" type="line"/>
      <point x="250" y="255" type="line"/>
      <point x="341" y="255" type="line" smooth="yes"/>
      <point x="456" y="255"/>
      <point x="513" y="223"/>
      <point x="513" y="144" type="curve" smooth="yes"/>
      <point x="513" y="63"/>
      <point x="455" y="37"/>
      <point x="341" y="37" type="curve" smooth="yes"/>
    </contour>
  </outline>
</glyph>
<glyph name="I.sc" format="1">
  <advance width="240"/>
  <outline>
    <contour>
      <point x="97" y="0" type="line"/>
      <point x="143" y="0" type="line"/>
      <point x="143" y="512" type="line"/>
      <point x="97" y="512" type="line"/>
    </contour>
    <contour>
      <point x="120" y="562" type="move" name="aboveUC"/>
    </contour>
    <contour>
      <point x="95" y="0" type="move" name="ogonekUC"/>
    </contour>
    <contour>
      <point x="120" y="-22" type="move" name="belowLC"/>
    </contour>
  </outline>
</glyph>
<glyph name="I.sups" format="1">
  <advance width="161"/>
  <outline>
    <contour>
      <point x="61" y="269" type="line"/>
      <point x="100" y="269" type="line"/>
      <point x="100" y="701" type="line"/>
      <point x="61" y="701" type="line"/>
    </contour>
  </outline>
</glyph>
<glyph name="IJ.sc" format="1">
	<advance width="481"/>
	<outline>
		<contour>
			<point x="97" y="0" type="line"/>
			<point x="143" y="0" type="line"/>
			<point x="143" y="512" type="line"/>
			<point x="97" y="512" type="line"/>
		</contour>
		<contour>
			<point x="274" y="-142" type="curve" smooth="yes"/>
			<point x="349" y="-142"/>
			<point x="384" y="-96"/>
			<point x="384" y="-2" type="curve" smooth="yes"/>
			<point x="384" y="512" type="line"/>
			<point x="338" y="512" type="line"/>
			<point x="338" y="5" type="line" smooth="yes"/>
			<point x="338" y="-56"/>
			<point x="327" y="-100"/>
			<point x="273" y="-100" type="curve" smooth="yes"/>
			<point x="254" y="-100"/>
			<point x="235" y="-94"/>
			<point x="223" y="-90" type="curve"/>
			<point x="213" y="-130" type="line"/>
			<point x="227" y="-136"/>
			<point x="252" y="-142"/>
		</contour>
	</outline>
</glyph>
<glyph name="I.alt" format="1">
  <advance width="312"/>
  <outline>
    <contour>
      <point x="156" y="681" type="move" name="aboveUC"/>
    </contour>
    <contour>
      <point x="131" y="0" type="move" name="ogonekUC"/>
    </contour>
    <contour>
      <point x="158" y="-22" type="move" name="belowLC"/>
    </contour>
    <contour>
      <point x="43" y="0" type="line"/>
      <point x="268" y="0" type="line"/>
      <point x="268" y="40" type="line"/>
      <point x="179" y="40" type="line"/>
      <point x="179" y="619" type="line"/>
      <point x="268" y="619" type="line"/>
      <point x="268" y="659" type="line"/>
      <point x="43" y="659" type="line"/>
      <point x="43" y="619" type="line"/>
      <point x="133" y="619" type="line"/>
      <point x="133" y="40" type="line"/>
      <point x="43" y="40" type="line"/>
    </contour>
  </outline>
</glyph>
<glyph name="I.sups" format="1">
  <advance width="161"/>
  <outline>
    <contour>
      <point x="61" y="406" type="line"/>
      <point x="100" y="406" type="line"/>
      <point x="100" y="838" type="line"/>
      <point x="61" y="838" type="line"/>
    </contour>
  </outline>
</glyph>
<glyph name="Icyr" format="1">
  <advance width="644"/>
  <outline>
    <contour>
      <point x="326" y="682" type="move" name="aboveUC"/>
    </contour>
    <contour>
      <point x="97" y="0" type="line"/>
      <point x="146" y="0" type="line"/>
      <point x="429" y="467" type="line"/>
      <point x="503" y="596" type="line"/>
      <point x="507" y="596" type="line"/>
      <point x="505" y="533"/>
      <point x="501" y="473"/>
      <point x="501" y="409" type="curve" smooth="yes"/>
      <point x="501" y="0" type="line"/>
      <point x="547" y="0" type="line"/>
      <point x="547" y="659" type="line"/>
      <point x="498" y="659" type="line"/>
      <point x="216" y="193" type="line"/>
      <point x="141" y="63" type="line"/>
      <point x="137" y="63" type="line"/>
      <point x="140" y="127"/>
      <point x="143" y="191"/>
      <point x="143" y="255" type="curve" smooth="yes"/>
      <point x="143" y="659" type="line"/>
      <point x="97" y="659" type="line"/>
    </contour>
  </outline>
</glyph>
<glyph name="Icyr.sc" format="1">
  <advance width="573"/>
  <outline>
    <contour>
      <point x="291" y="534" type="move" name="aboveUC"/>
    </contour>
    <contour>
      <point x="475" y="0" type="line"/>
      <point x="433" y="0" type="line"/>
      <point x="433" y="303" type="line" smooth="yes"/>
      <point x="433" y="353"/>
      <point x="436" y="403"/>
      <point x="438" y="454" type="curve"/>
      <point x="434" y="454" type="line"/>
      <point x="373" y="350" type="line"/>
      <point x="145" y="0" type="line"/>
      <point x="97" y="0" type="line"/>
      <point x="97" y="512" type="line"/>
      <point x="140" y="512" type="line"/>
      <point x="140" y="213" type="line" smooth="yes"/>
      <point x="140" y="162"/>
      <point x="137" y="109"/>
      <point x="134" y="59" type="curve"/>
      <point x="138" y="59" type="line"/>
      <point x="200" y="161" type="line"/>
      <point x="428" y="512" type="line"/>
      <point x="475" y="512" type="line"/>
    </contour>
  </outline>
</glyph>
<glyph name="Ie" format="1">
  <advance width="515"/>
  <outline>
    <component base="E"/>
    <contour>
      <point x="283" y="681" type="move" name="aboveUC"/>
    </contour>
  </outline>
</glyph>
<glyph name="Iogonek.alt" format="1">
  <advance width="312"/>
  <outline>
    <contour>
      <point x="156" y="681" type="move" name="aboveUC"/>
    </contour>
    <contour>
      <point x="162" y="-205" type="curve" smooth="yes"/>
      <point x="184" y="-205"/>
      <point x="212" y="-194"/>
      <point x="227" y="-181" type="curve"/>
      <point x="211" y="-154" type="line"/>
      <point x="197" y="-164"/>
      <point x="185" y="-168"/>
      <point x="168" y="-168" type="curve" smooth="yes"/>
      <point x="142" y="-168"/>
      <point x="117" y="-151"/>
      <point x="117" y="-116" type="curve" smooth="yes"/>
      <point x="117" y="-75"/>
      <point x="142" y="-32"/>
      <point x="185" y="0" type="curve"/>
      <point x="268" y="0" type="line"/>
      <point x="268" y="40" type="line"/>
      <point x="179" y="40" type="line"/>
      <point x="179" y="619" type="line"/>
      <point x="268" y="619" type="line"/>
      <point x="268" y="659" type="line"/>
      <point x="43" y="659" type="line"/>
      <point x="43" y="619" type="line"/>
      <point x="133" y="619" type="line"/>
      <point x="133" y="40" type="line"/>
      <point x="43" y="40" type="line"/>
      <point x="43" y="0" type="line"/>
      <point x="143" y="0" type="line"/>
      <point x="109" y="-29"/>
      <point x="78" y="-73"/>
      <point x="78" y="-123" type="curve" smooth="yes"/>
      <point x="78" y="-178"/>
      <point x="115" y="-205"/>
    </contour>
  </outline>
</glyph>
<glyph name="Iogonek.sc" format="1">
  <advance width="240"/>
  <outline>
    <contour>
      <point x="128" y="-205" type="curve" smooth="yes"/>
      <point x="150" y="-205"/>
      <point x="178" y="-194"/>
      <point x="193" y="-181" type="curve"/>
      <point x="177" y="-154" type="line"/>
      <point x="164" y="-164"/>
      <point x="151" y="-168"/>
      <point x="134" y="-168" type="curve" smooth="yes"/>
      <point x="109" y="-168"/>
      <point x="83" y="-151"/>
      <point x="83" y="-116" type="curve" smooth="yes"/>
      <point x="83" y="-72"/>
      <point x="109" y="-38"/>
      <point x="143" y="0" type="curve"/>
      <point x="143" y="512" type="line"/>
      <point x="97" y="512" type="line"/>
      <point x="97" y="0" type="line"/>
      <point x="106" y="0" type="line"/>
      <point x="72" y="-34"/>
      <point x="44" y="-69"/>
      <point x="44" y="-123" type="curve" smooth="yes"/>
      <point x="44" y="-178"/>
      <point x="82" y="-205"/>
    </contour>
    <contour>
      <point x="120" y="562" type="move" name="aboveUC"/>
    </contour>
  </outline>
</glyph>
<glyph name="Iota.sc" format="1">
  <advance width="240"/>
  <outline>
    <contour>
      <point x="120" y="562" type="move" name="aboveLC"/>
    </contour>
    <contour>
      <point x="120" y="-22" type="move" name="belowLC"/>
    </contour>
    <component base="I.sc"/>
  </outline>
</glyph>
<glyph name="Izhitsa" format="1">
  <advance width="502"/>
  <outline>
    <contour>
      <point x="222" y="0" type="line"/>
      <point x="276" y="0" type="line"/>
      <point x="438" y="545" type="line" smooth="yes"/>
      <point x="455" y="600"/>
      <point x="469" y="624"/>
      <point x="498" y="624" type="curve" smooth="yes"/>
      <point x="508" y="624"/>
      <point x="514" y="622"/>
      <point x="521" y="618" type="curve"/>
      <point x="533" y="663" type="line"/>
      <point x="520" y="669"/>
      <point x="510" y="671"/>
      <point x="498" y="671" type="curve" smooth="yes"/>
      <point x="444" y="671"/>
      <point x="417" y="635"/>
      <point x="394" y="552" type="curve" smooth="yes"/>
      <point x="314" y="274" type="line"/>
      <point x="289" y="193"/>
      <point x="274" y="133"/>
      <point x="249" y="53" type="curve"/>
      <point x="245" y="53" type="line"/>
      <point x="218" y="133"/>
      <point x="200" y="193"/>
      <point x="175" y="274" type="curve" smooth="yes"/>
      <point x="53" y="659" type="line"/>
      <point x="4" y="659" type="line"/>
    </contour>
  </outline>
</glyph>
<glyph name="Izhitsa.sc" format="1">
	<advance width="428"/>
	<outline>
		<contour>
			<point x="186" y="0" type="line"/>
			<point x="242" y="0" type="line"/>
			<point x="375" y="416" type="line" smooth="yes"/>
			<point x="388" y="458"/>
			<point x="400" y="480"/>
			<point x="423" y="480" type="curve" smooth="yes"/>
			<point x="433" y="480"/>
			<point x="438" y="479"/>
			<point x="443" y="476" type="curve"/>
			<point x="454" y="518" type="line"/>
			<point x="443" y="522"/>
			<point x="435" y="524"/>
			<point x="422" y="524" type="curve" smooth="yes"/>
			<point x="375" y="524"/>
			<point x="355" y="497"/>
			<point x="333" y="424" type="curve" smooth="yes"/>
			<point x="269" y="219" type="line" smooth="yes"/>
			<point x="249" y="158"/>
			<point x="236" y="114"/>
			<point x="215" y="49" type="curve"/>
			<point x="211" y="49" type="line"/>
			<point x="190" y="111"/>
			<point x="174" y="158"/>
			<point x="153" y="219" type="curve" smooth="yes"/>
			<point x="53" y="512" type="line"/>
			<point x="4" y="512" type="line"/>
		</contour>
	</outline>
</glyph>
<glyph name="Ieukran.sc" format="1">
  <advance width="492"/>
  <outline>
    <contour>
      <point x="289" y="-9" type="curve" smooth="yes"/>
      <point x="361" y="-9"/>
      <point x="412" y="18"/>
      <point x="455" y="64" type="curve"/>
      <point x="429" y="91" type="line"/>
      <point x="390" y="52"/>
      <point x="348" y="31"/>
      <point x="291" y="31" type="curve" smooth="yes"/>
      <point x="174" y="31"/>
      <point x="99" y="118"/>
      <point x="99" y="261" type="curve" smooth="yes"/>
      <point x="99" y="391"/>
      <point x="175" y="480"/>
      <point x="294" y="480" type="curve" smooth="yes"/>
      <point x="344" y="480"/>
      <point x="384" y="459"/>
      <point x="414" y="429" type="curve"/>
      <point x="440" y="458" type="line"/>
      <point x="409" y="490"/>
      <point x="359" y="519"/>
      <point x="294" y="519" type="curve" smooth="yes"/>
      <point x="153" y="519"/>
      <point x="55" y="419"/>
      <point x="55" y="256" type="curve" smooth="yes"/>
      <point x="55" y="92"/>
      <point x="151" y="-9"/>
    </contour>
    <contour>
      <point x="72" y="251" type="line"/>
      <point x="355" y="251" type="line"/>
      <point x="355" y="289" type="line"/>
      <point x="72" y="289" type="line"/>
    </contour>
  </outline>
</glyph>
<glyph name="Izhitsa.sc" format="1">
  <advance width="428"/>
  <outline>
    <contour>
      <point x="186" y="0" type="line"/>
      <point x="240" y="0" type="line"/>
      <point x="374" y="415" type="line" smooth="yes"/>
      <point x="387" y="457"/>
      <point x="400" y="475"/>
      <point x="423" y="475" type="curve" smooth="yes"/>
      <point x="433" y="475"/>
      <point x="438" y="474"/>
      <point x="443" y="471" type="curve"/>
      <point x="454" y="513" type="line"/>
      <point x="443" y="517"/>
      <point x="434" y="519"/>
      <point x="422" y="519" type="curve" smooth="yes"/>
      <point x="375" y="519"/>
      <point x="352" y="490"/>
      <point x="332" y="422" type="curve" smooth="yes"/>
      <point x="267" y="219" type="line"/>
      <point x="246" y="157"/>
      <point x="233" y="110"/>
      <point x="213" y="49" type="curve"/>
      <point x="209" y="49" type="line"/>
      <point x="187" y="110"/>
      <point x="173" y="157"/>
      <point x="152" y="219" type="curve" smooth="yes"/>
      <point x="52" y="510" type="line"/>
      <point x="4" y="510" type="line"/>
    </contour>
  </outline>
</glyph>
<glyph name="J" format="1">
  <advance width="462"/>
  <outline>
    <contour>
      <point x="341" y="681" type="move" name="aboveUC"/>
    </contour>
    <contour>
      <point x="244" y="-22" type="move" name="belowLC"/>
    </contour>
    <contour>
      <point x="203" y="-12" type="curve" smooth="yes"/>
      <point x="323" y="-12"/>
      <point x="367" y="73"/>
      <point x="367" y="179" type="curve" smooth="yes"/>
      <point x="367" y="659" type="line"/>
      <point x="321" y="659" type="line"/>
      <point x="321" y="184" type="line" smooth="yes"/>
      <point x="321" y="77"/>
      <point x="283" y="30"/>
      <point x="203" y="30" type="curve" smooth="yes"/>
      <point x="148" y="30"/>
      <point x="108" y="52"/>
      <point x="76" y="108" type="curve"/>
      <point x="41" y="85" type="line"/>
      <point x="74" y="23"/>
      <point x="130" y="-12"/>
    </contour>
  </outline>
</glyph>
<glyph name="J.sc" format="1">
	<advance width="419"/>
	<outline>
		<contour>
			<point x="180" y="-12" type="curve" smooth="yes"/>
			<point x="284" y="-12"/>
			<point x="324" y="57"/>
			<point x="324" y="141" type="curve" smooth="yes"/>
			<point x="324" y="512" type="line"/>
			<point x="278" y="512" type="line"/>
			<point x="278" y="146" type="line" smooth="yes"/>
			<point x="278" y="64"/>
			<point x="245" y="29"/>
			<point x="179" y="29" type="curve" smooth="yes"/>
			<point x="134" y="29"/>
			<point x="101" y="47"/>
			<point x="74" y="90" type="curve"/>
			<point x="41" y="67" type="line"/>
			<point x="69" y="18"/>
			<point x="117" y="-12"/>
		</contour>
		<contour>
			<point name="aboveUC" x="295" y="562" type="move"/>
		</contour>
		<contour>
			<point name="belowLC" x="200" y="-22" type="move"/>
		</contour>
	</outline>
</glyph>
<glyph name="J.sups" format="1">
  <advance width="308"/>
  <outline>
    <contour>
      <point x="133" y="261" type="curve" smooth="yes"/>
      <point x="215" y="261"/>
      <point x="248" y="318"/>
      <point x="248" y="390" type="curve" smooth="yes"/>
      <point x="248" y="701" type="line"/>
      <point x="210" y="701" type="line"/>
      <point x="210" y="393" type="line" smooth="yes"/>
      <point x="210" y="325"/>
      <point x="184" y="295"/>
      <point x="132" y="295" type="curve" smooth="yes"/>
      <point x="98" y="295"/>
      <point x="72" y="309"/>
      <point x="51" y="345" type="curve"/>
      <point x="23" y="326" type="line"/>
      <point x="46" y="285"/>
      <point x="82" y="261"/>
    </contour>
  </outline>
</glyph>
<glyph name="J.sc" format="1">
  <advance width="419"/>
  <outline>
    <contour>
      <point x="295" y="562" type="move" name="aboveUC"/>
    </contour>
    <contour>
      <point x="200" y="-22" type="move" name="belowLC"/>
    </contour>
    <contour>
      <point x="180" y="-12" type="curve" smooth="yes"/>
      <point x="284" y="-12"/>
      <point x="324" y="57"/>
      <point x="324" y="141" type="curve" smooth="yes"/>
      <point x="324" y="512" type="line"/>
      <point x="278" y="512" type="line"/>
      <point x="278" y="146" type="line" smooth="yes"/>
      <point x="278" y="64"/>
      <point x="245" y="29"/>
      <point x="179" y="29" type="curve" smooth="yes"/>
      <point x="134" y="29"/>
      <point x="101" y="47"/>
      <point x="74" y="90" type="curve"/>
      <point x="41" y="67" type="line"/>
      <point x="69" y="18"/>
      <point x="117" y="-12"/>
    </contour>
  </outline>
</glyph>
<glyph name="K" format="1">
  <advance width="558"/>
  <outline>
    <contour>
      <point x="306" y="681" type="move" name="aboveUC"/>
    </contour>
    <contour>
      <point x="325" y="-22" type="move" name="belowLC"/>
    </contour>
    <contour>
      <point x="97" y="0" type="line"/>
      <point x="143" y="0" type="line"/>
      <point x="143" y="227" type="line"/>
      <point x="277" y="380" type="line"/>
      <point x="495" y="0" type="line"/>
      <point x="548" y="0" type="line"/>
      <point x="309" y="415" type="line"/>
      <point x="519" y="659" type="line"/>
      <point x="464" y="659" type="line"/>
      <point x="145" y="293" type="line"/>
      <point x="143" y="293" type="line"/>
      <point x="143" y="659" type="line"/>
      <point x="97" y="659" type="line"/>
    </contour>
  </outline>
</glyph>
<glyph name="K.sups" format="1">
  <advance width="371"/>
  <outline>
    <contour>
      <point x="61" y="269" type="line"/>
      <point x="100" y="269" type="line"/>
      <point x="100" y="415" type="line"/>
      <point x="185" y="512" type="line"/>
      <point x="325" y="269" type="line"/>
      <point x="368" y="269" type="line"/>
      <point x="210" y="541" type="line"/>
      <point x="349" y="701" type="line"/>
      <point x="304" y="701" type="line"/>
      <point x="102" y="469" type="line"/>
      <point x="100" y="469" type="line"/>
      <point x="100" y="701" type="line"/>
      <point x="61" y="701" type="line"/>
    </contour>
  </outline>
</glyph>
<glyph name="Ka" format="1">
  <advance width="555"/>
  <outline>
    <contour>
      <point x="312" y="682" type="move" name="aboveUC"/>
    </contour>
    <contour>
      <point x="97" y="0" type="line"/>
      <point x="143" y="0" type="line"/>
      <point x="143" y="331" type="line"/>
      <point x="279" y="331" type="line"/>
      <point x="498" y="0" type="line"/>
      <point x="550" y="0" type="line"/>
      <point x="306" y="370" type="line"/>
      <point x="143" y="370" type="line"/>
      <point x="143" y="659" type="line"/>
      <point x="97" y="659" type="line"/>
    </contour>
    <contour>
      <point x="316" y="348" type="line"/>
      <point x="413" y="528" type="line" smooth="yes"/>
      <point x="461" y="614"/>
      <point x="478" y="624"/>
      <point x="507" y="624" type="curve" smooth="yes"/>
      <point x="513" y="624"/>
      <point x="521" y="623"/>
      <point x="528" y="620" type="curve"/>
      <point x="536" y="666" type="line"/>
      <point x="529" y="669"/>
      <point x="519" y="671"/>
      <point x="510" y="671" type="curve" smooth="yes"/>
      <point x="460" y="671"/>
      <point x="434" y="652"/>
      <point x="377" y="546" type="curve" smooth="yes"/>
      <point x="274" y="357" type="line"/>
    </contour>
  </outline>
</glyph>
<glyph name="Ka.sc" format="1">
  <advance width="491"/>
  <outline>
    <contour>
      <point x="278" y="534" type="move" name="aboveUC"/>
    </contour>
    <contour>
      <point x="97" y="0" type="line"/>
      <point x="143" y="0" type="line"/>
      <point x="143" y="252" type="line"/>
      <point x="254" y="252" type="line"/>
      <point x="433" y="0" type="line"/>
      <point x="485" y="0" type="line"/>
      <point x="279" y="291" type="line"/>
      <point x="143" y="291" type="line"/>
      <point x="143" y="512" type="line"/>
      <point x="97" y="512" type="line"/>
    </contour>
    <contour>
      <point x="287" y="271" type="line"/>
      <point x="370" y="407" type="line" smooth="yes"/>
      <point x="409" y="470"/>
      <point x="423" y="480"/>
      <point x="447" y="480" type="curve" smooth="yes"/>
      <point x="454" y="480"/>
      <point x="460" y="478"/>
      <point x="464" y="476" type="curve"/>
      <point x="474" y="520" type="line"/>
      <point x="467" y="522"/>
      <point x="457" y="524"/>
      <point x="449" y="524" type="curve" smooth="yes"/>
      <point x="405" y="524"/>
      <point x="384" y="507"/>
      <point x="335" y="429" type="curve" smooth="yes"/>
      <point x="246" y="279" type="line"/>
    </contour>
  </outline>
</glyph>
<glyph name="Kabashkir.a" format="1">
  <advance width="705"/>
  <outline>
    <contour>
      <point x="29" y="619" type="line"/>
      <point x="239" y="619" type="line"/>
      <point x="285" y="659" type="line"/>
      <point x="29" y="659" type="line"/>
    </contour>
    <component base="Ka.a" xOffset="142"/>
  </outline>
</glyph>
<glyph name="Kabashkir.b" format="1">
  <advance width="705"/>
  <outline>
    <contour>
      <point x="29" y="619" type="line"/>
      <point x="239" y="619" type="line"/>
      <point x="285" y="659" type="line"/>
      <point x="29" y="659" type="line"/>
    </contour>
    <component base="Ka.b" xOffset="142"/>
  </outline>
</glyph>
<glyph name="Kabashkir" format="1">
  <advance width="697"/>
  <outline>
    <contour>
      <point x="458" y="348" type="line"/>
      <point x="555" y="528" type="line" smooth="yes"/>
      <point x="603" y="614"/>
      <point x="620" y="624"/>
      <point x="649" y="624" type="curve" smooth="yes"/>
      <point x="655" y="624"/>
      <point x="663" y="623"/>
      <point x="670" y="620" type="curve"/>
      <point x="678" y="666" type="line"/>
      <point x="671" y="669"/>
      <point x="661" y="671"/>
      <point x="652" y="671" type="curve" smooth="yes"/>
      <point x="602" y="671"/>
      <point x="576" y="652"/>
      <point x="519" y="546" type="curve" smooth="yes"/>
      <point x="416" y="357" type="line"/>
    </contour>
    <contour>
      <point x="239" y="0" type="line"/>
      <point x="285" y="0" type="line"/>
      <point x="285" y="331" type="line"/>
      <point x="421" y="331" type="line"/>
      <point x="640" y="0" type="line"/>
      <point x="692" y="0" type="line"/>
      <point x="448" y="370" type="line"/>
      <point x="285" y="370" type="line"/>
      <point x="285" y="659" type="line"/>
      <point x="29" y="659" type="line"/>
      <point x="29" y="619" type="line"/>
      <point x="239" y="619" type="line"/>
    </contour>
  </outline>
</glyph>
<glyph name="Kabashkir.sc" format="1">
  <advance width="616"/>
  <outline>
    <contour>
      <point x="404" y="271" type="line"/>
      <point x="486" y="407" type="line" smooth="yes"/>
      <point x="525" y="470"/>
      <point x="539" y="480"/>
      <point x="564" y="480" type="curve" smooth="yes"/>
      <point x="570" y="480"/>
      <point x="576" y="478"/>
      <point x="581" y="476" type="curve"/>
      <point x="591" y="520" type="line"/>
      <point x="584" y="522"/>
      <point x="574" y="524"/>
      <point x="565" y="524" type="curve" smooth="yes"/>
      <point x="522" y="524"/>
      <point x="500" y="507"/>
      <point x="451" y="429" type="curve" smooth="yes"/>
      <point x="362" y="279" type="line"/>
    </contour>
    <contour>
      <point x="214" y="0" type="line"/>
      <point x="260" y="0" type="line"/>
      <point x="260" y="252" type="line"/>
      <point x="371" y="252" type="line"/>
      <point x="549" y="0" type="line"/>
      <point x="601" y="0" type="line"/>
      <point x="395" y="291" type="line"/>
      <point x="260" y="291" type="line"/>
      <point x="260" y="512" type="line"/>
      <point x="29" y="512" type="line"/>
      <point x="29" y="473" type="line"/>
      <point x="214" y="473" type="line"/>
    </contour>
  </outline>
</glyph>
<glyph name="Kadescender.a" format="1">
  <advance width="598"/>
  <outline>
    <contour>
      <point x="519" y="-192" type="line"/>
      <point x="557" y="-192" type="line"/>
      <point x="564" y="13" type="line"/>
      <point x="564" y="40" type="line"/>
      <point x="494" y="40" type="line"/>
      <point x="494" y="0" type="line"/>
      <point x="519" y="0" type="line"/>
    </contour>
    <component base="Ka.a"/>
  </outline>
</glyph>
<glyph name="Kappa.sc" format="1">
	<advance width="491"/>
	<outline>
		<component base="K.sc"/>
		<contour>
			<point name="aboveLC" x="281" y="562" type="move"/>
		</contour>
		<contour>
			<point name="belowLC" x="288" y="-22" type="move"/>
		</contour>
	</outline>
</glyph>
<glyph name="Ka.a" format="1">
  <advance width="555"/>
  <outline>
    <contour>
      <point x="312" y="682" type="move" name="aboveUC"/>
    </contour>
    <contour>
      <point x="97" y="0" type="line"/>
      <point x="143" y="0" type="line"/>
      <point x="143" y="331" type="line"/>
      <point x="281" y="331" type="line"/>
      <point x="306" y="370" type="line"/>
      <point x="143" y="370" type="line"/>
      <point x="143" y="659" type="line"/>
      <point x="97" y="659" type="line"/>
    </contour>
    <contour>
      <point x="536" y="-12" type="curve" smooth="yes"/>
      <point x="547" y="-12"/>
      <point x="557" y="-10"/>
      <point x="564" y="-7" type="curve"/>
      <point x="556" y="39" type="line"/>
      <point x="549" y="36"/>
      <point x="541" y="35"/>
      <point x="535" y="35" type="curve" smooth="yes"/>
      <point x="507" y="35"/>
      <point x="489" y="45"/>
      <point x="442" y="131" type="curve" smooth="yes"/>
      <point x="307" y="370" type="line"/>
      <point x="265" y="360" type="line"/>
      <point x="405" y="112" type="line" smooth="yes"/>
      <point x="462" y="6"/>
      <point x="488" y="-12"/>
    </contour>
    <contour>
      <point x="315" y="347" type="line"/>
      <point x="413" y="528" type="line" smooth="yes"/>
      <point x="461" y="614"/>
      <point x="478" y="624"/>
      <point x="507" y="624" type="curve" smooth="yes"/>
      <point x="513" y="624"/>
      <point x="521" y="623"/>
      <point x="528" y="620" type="curve"/>
      <point x="536" y="666" type="line"/>
      <point x="529" y="669"/>
      <point x="519" y="671"/>
      <point x="509" y="671" type="curve" smooth="yes"/>
      <point x="460" y="671"/>
      <point x="435" y="652"/>
      <point x="377" y="546" type="curve" smooth="yes"/>
      <point x="273" y="356" type="line"/>
    </contour>
  </outline>
</glyph>
<glyph name="Ka.sc" format="1">
  <advance width="489"/>
  <outline>
    <contour>
      <point x="278" y="534" type="move" name="aboveUC"/>
    </contour>
    <contour>
      <point x="97" y="0" type="line"/>
      <point x="142" y="0" type="line"/>
      <point x="142" y="253" type="line"/>
      <point x="240" y="253" type="line"/>
      <point x="426" y="0" type="line"/>
      <point x="478" y="0" type="line"/>
      <point x="273" y="278" type="line"/>
      <point x="473" y="512" type="line"/>
      <point x="420" y="512" type="line"/>
      <point x="234" y="292" type="line"/>
      <point x="142" y="292" type="line"/>
      <point x="142" y="512" type="line"/>
      <point x="97" y="512" type="line"/>
    </contour>
  </outline>
</glyph>
<glyph name="L" format="1">
  <advance width="467"/>
  <outline>
    <contour>
      <point x="121" y="681" type="move" name="aboveUC"/>
    </contour>
    <contour>
      <point x="288" y="-22" type="move" name="belowLC"/>
    </contour>
    <contour>
      <point x="97" y="0" type="line"/>
      <point x="447" y="0" type="line"/>
      <point x="447" y="40" type="line"/>
      <point x="143" y="40" type="line"/>
      <point x="143" y="659" type="line"/>
      <point x="97" y="659" type="line"/>
    </contour>
  </outline>
</glyph>
<glyph name="L.sups" format="1">
  <advance width="310"/>
  <outline>
    <contour>
      <point x="61" y="269" type="line"/>
      <point x="298" y="269" type="line"/>
      <point x="298" y="301" type="line"/>
      <point x="100" y="301" type="line"/>
      <point x="100" y="701" type="line"/>
      <point x="61" y="701" type="line"/>
    </contour>
  </outline>
</glyph>
<glyph name="L.sc" format="1">
  <advance width="417"/>
  <outline>
    <contour>
      <point x="126" y="562" type="move" name="aboveUC"/>
    </contour>
    <contour>
      <point x="257" y="-22" type="move" name="belowLC"/>
    </contour>
    <contour>
      <point x="97" y="0" type="line"/>
      <point x="395" y="0" type="line"/>
      <point x="395" y="39" type="line"/>
      <point x="143" y="39" type="line"/>
      <point x="143" y="512" type="line"/>
      <point x="97" y="512" type="line"/>
    </contour>
  </outline>
</glyph>
<glyph name="Lambda" format="1">
  <advance width="491"/>
  <outline>
    <contour>
      <point x="4" y="0" type="line"/>
      <point x="51" y="0" type="line"/>
      <point x="173" y="385" type="line" smooth="yes"/>
      <point x="198" y="466"/>
      <point x="215" y="526"/>
      <point x="242" y="606" type="curve"/>
      <point x="246" y="606" type="line"/>
      <point x="273" y="526"/>
      <point x="291" y="466"/>
      <point x="316" y="385" type="curve" smooth="yes"/>
      <point x="438" y="0" type="line"/>
      <point x="487" y="0" type="line"/>
      <point x="269" y="659" type="line"/>
      <point x="220" y="659" type="line"/>
    </contour>
  </outline>
</glyph>
<glyph name="Lje" format="1">
  <advance width="894"/>
  <outline>
    <contour>
      <point x="52" y="-12" type="curve" smooth="yes"/>
      <point x="115" y="-12"/>
      <point x="152" y="25"/>
      <point x="187" y="215" type="curve" smooth="yes"/>
      <point x="212" y="349"/>
      <point x="233" y="483"/>
      <point x="258" y="619" type="curve"/>
      <point x="452" y="619" type="line"/>
      <point x="452" y="0" type="line"/>
      <point x="498" y="0" type="line"/>
      <point x="498" y="659" type="line"/>
      <point x="221" y="659" type="line"/>
      <point x="194" y="503"/>
      <point x="170" y="368"/>
      <point x="142" y="222" type="curve" smooth="yes"/>
      <point x="110" y="58"/>
      <point x="83" y="35"/>
      <point x="47" y="35" type="curve" smooth="yes"/>
      <point x="37" y="35"/>
      <point x="29" y="37"/>
      <point x="19" y="40" type="curve"/>
      <point x="7" y="-4" type="line"/>
      <point x="24" y="-10"/>
      <point x="39" y="-12"/>
    </contour>
    <contour>
      <point x="452" y="0" type="line"/>
      <point x="614" y="0" type="line" smooth="yes"/>
      <point x="761" y="0"/>
      <point x="845" y="65"/>
      <point x="845" y="195" type="curve" smooth="yes"/>
      <point x="845" y="319"/>
      <point x="753" y="372"/>
      <point x="610" y="372" type="curve" smooth="yes"/>
      <point x="498" y="372" type="line"/>
      <point x="498" y="659" type="line"/>
      <point x="452" y="659" type="line"/>
    </contour>
    <contour>
      <point x="498" y="39" type="line"/>
      <point x="498" y="333" type="line"/>
      <point x="598" y="333" type="line" smooth="yes"/>
      <point x="731" y="333"/>
      <point x="800" y="291"/>
      <point x="800" y="193" type="curve" smooth="yes"/>
      <point x="800" y="86"/>
      <point x="733" y="39"/>
      <point x="602" y="39" type="curve" smooth="yes"/>
    </contour>
  </outline>
</glyph>
<glyph name="Lje.sc" format="1">
  <advance width="754"/>
  <outline>
    <contour>
      <point x="44" y="-12" type="curve" smooth="yes"/>
      <point x="100" y="-12"/>
      <point x="132" y="23"/>
      <point x="163" y="173" type="curve" smooth="yes"/>
      <point x="184" y="272"/>
      <point x="201" y="372"/>
      <point x="222" y="474" type="curve"/>
      <point x="376" y="474" type="line"/>
      <point x="376" y="0" type="line"/>
      <point x="422" y="0" type="line"/>
      <point x="422" y="512" type="line"/>
      <point x="186" y="512" type="line"/>
      <point x="163" y="394"/>
      <point x="143" y="289"/>
      <point x="120" y="177" type="curve" smooth="yes"/>
      <point x="93" y="52"/>
      <point x="69" y="33"/>
      <point x="40" y="33" type="curve" smooth="yes"/>
      <point x="32" y="33"/>
      <point x="27" y="34"/>
      <point x="18" y="37" type="curve"/>
      <point x="6" y="-6" type="line"/>
      <point x="17" y="-10"/>
      <point x="34" y="-12"/>
    </contour>
    <contour>
      <point x="376" y="0" type="line"/>
      <point x="510" y="0" type="line" smooth="yes"/>
      <point x="634" y="0"/>
      <point x="709" y="49"/>
      <point x="709" y="153" type="curve" smooth="yes"/>
      <point x="709" y="253"/>
      <point x="629" y="294"/>
      <point x="508" y="294" type="curve" smooth="yes"/>
      <point x="422" y="294" type="line"/>
      <point x="422" y="512" type="line"/>
      <point x="376" y="512" type="line"/>
    </contour>
    <contour>
      <point x="422" y="39" type="line"/>
      <point x="422" y="257" type="line"/>
      <point x="498" y="257" type="line" smooth="yes"/>
      <point x="608" y="257"/>
      <point x="663" y="226"/>
      <point x="663" y="152" type="curve" smooth="yes"/>
      <point x="663" y="73"/>
      <point x="607" y="39"/>
      <point x="500" y="39" type="curve" smooth="yes"/>
    </contour>
  </outline>
</glyph>
<glyph name="Lslash" format="1">
  <advance width="468"/>
  <outline>
    <contour>
      <point x="23" y="215" type="line"/>
      <point x="109" y="261" type="line"/>
      <point x="133" y="271" type="line"/>
      <point x="352" y="385" type="line"/>
      <point x="334" y="417" type="line"/>
      <point x="133" y="311" type="line"/>
      <point x="109" y="302" type="line"/>
      <point x="4" y="246" type="line"/>
    </contour>
    <component base="L" xOffset="4"/>
  </outline>
</glyph>
<glyph name="Lslash.sc" format="1">
  <advance width="417"/>
  <outline>
    <contour>
      <point x="23" y="146" type="line"/>
      <point x="109" y="192" type="line"/>
      <point x="133" y="202" type="line"/>
      <point x="322" y="301" type="line"/>
      <point x="304" y="331" type="line"/>
      <point x="133" y="241" type="line"/>
      <point x="109" y="232" type="line"/>
      <point x="4" y="175" type="line"/>
    </contour>
    <component base="L.sc" xOffset="4"/>
  </outline>
</glyph>
<glyph name="Lsmall" format="1">
  <advance width="399"/>
  <outline>
    <contour>
      <point x="121" y="562" type="move" name="aboveUC"/>
    </contour>
    <contour>
      <point x="252" y="-22" type="move" name="belowLC"/>
    </contour>
    <contour>
      <point x="92" y="0" type="line"/>
      <point x="373" y="0" type="line"/>
      <point x="373" y="39" type="line"/>
      <point x="136" y="39" type="line"/>
      <point x="136" y="480" type="line"/>
      <point x="92" y="480" type="line"/>
    </contour>
  </outline>
</glyph>
<glyph name="Lje.sc" format="1">
  <advance width="810"/>
  <outline>
    <contour>
      <point x="410" y="0" type="line"/>
      <point x="557" y="0" type="line" smooth="yes"/>
      <point x="685" y="0"/>
      <point x="764" y="38"/>
      <point x="764" y="145" type="curve" smooth="yes"/>
      <point x="764" y="245"/>
      <point x="683" y="292"/>
      <point x="557" y="292" type="curve" smooth="yes"/>
      <point x="454" y="292" type="line"/>
      <point x="454" y="512" type="line"/>
      <point x="410" y="512" type="line"/>
    </contour>
    <contour>
      <point x="454" y="37" type="line"/>
      <point x="454" y="255" type="line"/>
      <point x="547" y="255" type="line" smooth="yes"/>
      <point x="661" y="255"/>
      <point x="718" y="223"/>
      <point x="718" y="144" type="curve" smooth="yes"/>
      <point x="718" y="63"/>
      <point x="660" y="37"/>
      <point x="547" y="37" type="curve" smooth="yes"/>
    </contour>
    <component base="El.sc"/>
  </outline>
</glyph>
<glyph name="Lslash" format="1">
  <advance width="468"/>
  <outline>
    <contour>
      <point x="14" y="210" type="line"/>
      <point x="109" y="261" type="line"/>
      <point x="133" y="271" type="line"/>
      <point x="341" y="379" type="line"/>
      <point x="341" y="419" type="line"/>
      <point x="133" y="311" type="line"/>
      <point x="109" y="302" type="line"/>
      <point x="14" y="250" type="line"/>
    </contour>
    <component base="L" xOffset="4"/>
  </outline>
</glyph>
<glyph name="Lslash.sc" format="1">
  <advance width="417"/>
  <outline>
    <contour>
      <point x="14" y="141" type="line"/>
      <point x="109" y="192" type="line"/>
      <point x="133" y="202" type="line"/>
      <point x="311" y="296" type="line"/>
      <point x="311" y="335" type="line"/>
      <point x="133" y="241" type="line"/>
      <point x="109" y="232" type="line"/>
      <point x="14" y="181" type="line"/>
    </contour>
    <component base="L.sc" xOffset="4"/>
  </outline>
</glyph>
<glyph name="M.sups" format="1">
	<advance width="469"/>
	<outline>
		<contour>
			<point x="61" y="406" type="line"/>
			<point x="97" y="406" type="line"/>
			<point x="97" y="675" type="line" smooth="yes"/>
			<point x="97" y="710"/>
			<point x="94" y="757"/>
			<point x="92" y="793" type="curve"/>
			<point x="95" y="793" type="line"/>
			<point x="130" y="699" type="line"/>
			<point x="221" y="450" type="line"/>
			<point x="250" y="450" type="line"/>
			<point x="340" y="699" type="line"/>
			<point x="375" y="793" type="line"/>
			<point x="377" y="793" type="line"/>
			<point x="375" y="757"/>
			<point x="372" y="710"/>
			<point x="372" y="675" type="curve" smooth="yes"/>
			<point x="372" y="406" type="line"/>
			<point x="409" y="406" type="line"/>
			<point x="409" y="838" type="line"/>
			<point x="359" y="838" type="line"/>
			<point x="271" y="593" type="line"/>
			<point x="238" y="499" type="line"/>
			<point x="235" y="499" type="line"/>
			<point x="201" y="593" type="line"/>
			<point x="112" y="838" type="line"/>
			<point x="61" y="838" type="line"/>
		</contour>
	</outline>
</glyph>
<glyph name="N.sups" format="1">
  <advance width="421"/>
  <outline>
    <contour>
      <point x="61" y="269" type="line"/>
      <point x="97" y="269" type="line"/>
      <point x="97" y="525" type="line" smooth="yes"/>
      <point x="97" y="567"/>
      <point x="94" y="608"/>
      <point x="93" y="650" type="curve"/>
      <point x="95" y="650" type="line"/>
      <point x="145" y="564" type="line"/>
      <point x="321" y="269" type="line"/>
      <point x="361" y="269" type="line"/>
      <point x="361" y="701" type="line"/>
      <point x="326" y="701" type="line"/>
      <point x="326" y="449" type="line" smooth="yes"/>
      <point x="326" y="406"/>
      <point x="328" y="361"/>
      <point x="330" y="320" type="curve"/>
      <point x="327" y="320" type="line"/>
      <point x="278" y="406" type="line"/>
      <point x="103" y="701" type="line"/>
      <point x="61" y="701" type="line"/>
    </contour>
  </outline>
</glyph>
<glyph name="N.sc" format="1">
  <advance width="573"/>
  <outline>
    <contour>
      <point x="294" y="562" type="move" name="aboveUC"/>
    </contour>
    <contour>
      <point x="294" y="-22" type="move" name="belowLC"/>
    </contour>
    <contour>
      <point x="97" y="0" type="line"/>
      <point x="140" y="0" type="line"/>
      <point x="140" y="303" type="line" smooth="yes"/>
      <point x="140" y="353"/>
      <point x="137" y="403"/>
      <point x="134" y="454" type="curve"/>
      <point x="138" y="454" type="line"/>
      <point x="200" y="350" type="line"/>
      <point x="428" y="0" type="line"/>
      <point x="475" y="0" type="line"/>
      <point x="475" y="512" type="line"/>
      <point x="433" y="512" type="line"/>
      <point x="433" y="213" type="line" smooth="yes"/>
      <point x="433" y="162"/>
      <point x="436" y="109"/>
      <point x="438" y="59" type="curve"/>
      <point x="434" y="59" type="line"/>
      <point x="373" y="161" type="line"/>
      <point x="145" y="512" type="line"/>
      <point x="97" y="512" type="line"/>
    </contour>
  </outline>
</glyph>
<glyph name="Nsmall" format="1">
  <advance width="532"/>
  <outline>
    <contour>
      <point x="92" y="0" type="line"/>
      <point x="135" y="0" type="line"/>
      <point x="135" y="240" type="line" smooth="yes"/>
      <point x="135" y="293"/>
      <point x="133" y="354"/>
      <point x="130" y="418" type="curve"/>
      <point x="134" y="418" type="line"/>
      <point x="153" y="388"/>
      <point x="177" y="343"/>
      <point x="196" y="314" type="curve" smooth="yes"/>
      <point x="397" y="0" type="line"/>
      <point x="440" y="0" type="line"/>
      <point x="440" y="480" type="line"/>
      <point x="397" y="480" type="line"/>
      <point x="397" y="240" type="line" smooth="yes"/>
      <point x="397" y="188"/>
      <point x="399" y="126"/>
      <point x="402" y="63" type="curve"/>
      <point x="398" y="63" type="line"/>
      <point x="379" y="93"/>
      <point x="355" y="137"/>
      <point x="336" y="167" type="curve" smooth="yes"/>
      <point x="136" y="480" type="line"/>
      <point x="92" y="480" type="line"/>
    </contour>
    <contour>
      <point x="268" y="504" type="move" name="aboveLC"/>
    </contour>
  </outline>
</glyph>
<glyph name="Nje.sc" format="1">
  <advance width="831"/>
  <outline>
    <contour>
      <point x="435" y="0" type="line"/>
      <point x="581" y="0" type="line" smooth="yes"/>
      <point x="709" y="0"/>
      <point x="789" y="38"/>
      <point x="789" y="145" type="curve" smooth="yes"/>
      <point x="789" y="245"/>
      <point x="708" y="292"/>
      <point x="581" y="292" type="curve" smooth="yes"/>
      <point x="480" y="292" type="line"/>
      <point x="480" y="512" type="line"/>
      <point x="435" y="512" type="line"/>
    </contour>
    <contour>
      <point x="480" y="37" type="line"/>
      <point x="480" y="255" type="line"/>
      <point x="571" y="255" type="line" smooth="yes"/>
      <point x="686" y="255"/>
      <point x="743" y="223"/>
      <point x="743" y="144" type="curve" smooth="yes"/>
      <point x="743" y="63"/>
      <point x="685" y="37"/>
      <point x="571" y="37" type="curve" smooth="yes"/>
    </contour>
    <component base="H.sc"/>
  </outline>
</glyph>
<glyph name="OE.sc" format="1">
  <advance width="717"/>
  <outline>
    <contour>
      <point x="321" y="0" type="curve" smooth="yes"/>
      <point x="670" y="0" type="line"/>
      <point x="670" y="38" type="line"/>
      <point x="417" y="38" type="line"/>
      <point x="417" y="253" type="line"/>
      <point x="619" y="253" type="line"/>
      <point x="619" y="290" type="line"/>
      <point x="417" y="290" type="line"/>
      <point x="417" y="474" type="line"/>
      <point x="660" y="474" type="line"/>
      <point x="660" y="512" type="line"/>
      <point x="320" y="512" type="line" smooth="yes"/>
      <point x="143" y="512"/>
      <point x="55" y="413"/>
      <point x="55" y="255" type="curve" smooth="yes"/>
      <point x="55" y="97"/>
      <point x="143" y="0"/>
    </contour>
    <contour>
      <point x="323" y="38" type="line"/>
      <point x="170" y="38"/>
      <point x="103" y="125"/>
      <point x="103" y="255" type="curve" smooth="yes"/>
      <point x="103" y="394"/>
      <point x="170" y="476"/>
      <point x="323" y="476" type="curve" smooth="yes"/>
      <point x="371" y="476" type="line"/>
      <point x="371" y="38" type="line"/>
    </contour>
  </outline>
</glyph>
<glyph name="O.sc" format="1">
  <advance width="574"/>
  <outline>
    <contour>
      <point x="287" y="562" type="move" name="aboveUC"/>
    </contour>
    <contour>
      <point x="412" y="494" type="move" name="hornLC"/>
    </contour>
    <contour>
      <point x="287" y="0" type="move" name="ogonekUC"/>
    </contour>
    <contour>
      <point x="287" y="-22" type="move" name="belowLC"/>
    </contour>
    <contour>
      <point x="287" y="-12" type="curve" smooth="yes"/>
      <point x="422" y="-12"/>
      <point x="519" y="93"/>
      <point x="519" y="257" type="curve" smooth="yes"/>
      <point x="519" y="422"/>
      <point x="422" y="524"/>
      <point x="287" y="524" type="curve" smooth="yes"/>
      <point x="151" y="524"/>
      <point x="55" y="422"/>
      <point x="55" y="257" type="curve" smooth="yes"/>
      <point x="55" y="93"/>
      <point x="151" y="-12"/>
    </contour>
    <contour>
      <point x="287" y="29" type="curve" smooth="yes"/>
      <point x="176" y="29"/>
      <point x="103" y="117"/>
      <point x="103" y="257" type="curve" smooth="yes"/>
      <point x="103" y="397"/>
      <point x="176" y="483"/>
      <point x="287" y="483" type="curve" smooth="yes"/>
      <point x="397" y="483"/>
      <point x="471" y="397"/>
      <point x="471" y="257" type="curve" smooth="yes"/>
      <point x="471" y="117"/>
      <point x="397" y="29"/>
    </contour>
  </outline>
</glyph>
<glyph name="O.sups" format="1">
  <advance width="432"/>
  <outline>
    <contour>
      <point x="216" y="261" type="curve" smooth="yes"/>
      <point x="324" y="261"/>
      <point x="399" y="349"/>
      <point x="399" y="487" type="curve" smooth="yes"/>
      <point x="399" y="624"/>
      <point x="324" y="709"/>
      <point x="216" y="709" type="curve" smooth="yes"/>
      <point x="110" y="709"/>
      <point x="34" y="625"/>
      <point x="34" y="487" type="curve" smooth="yes"/>
      <point x="34" y="349"/>
      <point x="110" y="261"/>
    </contour>
    <contour>
      <point x="216" y="295" type="curve" smooth="yes"/>
      <point x="131" y="295"/>
      <point x="74" y="371"/>
      <point x="74" y="487" type="curve" smooth="yes"/>
      <point x="74" y="603"/>
      <point x="131" y="676"/>
      <point x="216" y="676" type="curve" smooth="yes"/>
      <point x="303" y="676"/>
      <point x="359" y="603"/>
      <point x="359" y="487" type="curve" smooth="yes"/>
      <point x="359" y="371"/>
      <point x="303" y="295"/>
    </contour>
  </outline>
</glyph>
<glyph name="OEsmall" format="1">
  <advance width="684"/>
  <outline>
    <contour>
      <point x="285" y="-12" type="curve" smooth="yes"/>
      <point x="314" y="-12"/>
      <point x="344" y="-10"/>
      <point x="380" y="0" type="curve"/>
      <point x="667" y="0" type="line"/>
      <point x="667" y="37" type="line"/>
      <point x="414" y="37" type="line"/>
      <point x="414" y="234" type="line"/>
      <point x="616" y="234" type="line"/>
      <point x="616" y="270" type="line"/>
      <point x="414" y="270" type="line"/>
      <point x="414" y="443" type="line"/>
      <point x="657" y="443" type="line"/>
      <point x="657" y="480" type="line"/>
      <point x="380" y="480" type="line"/>
      <point x="344" y="490"/>
      <point x="314" y="492"/>
      <point x="285" y="492" type="curve" smooth="yes"/>
      <point x="151" y="492"/>
      <point x="52" y="403"/>
      <point x="52" y="241" type="curve" smooth="yes"/>
      <point x="52" y="79"/>
      <point x="151" y="-12"/>
    </contour>
    <contour>
      <point x="288" y="27" type="curve" smooth="yes"/>
      <point x="180" y="27"/>
      <point x="100" y="101"/>
      <point x="100" y="241" type="curve" smooth="yes"/>
      <point x="100" y="380"/>
      <point x="180" y="453"/>
      <point x="288" y="453" type="curve" smooth="yes"/>
      <point x="312" y="453"/>
      <point x="343" y="446"/>
      <point x="368" y="439" type="curve"/>
      <point x="368" y="42" type="line"/>
      <point x="343" y="34"/>
      <point x="312" y="27"/>
    </contour>
    <contour>
      <point x="415" y="504" type="move" name="aboveLC"/>
    </contour>
    <contour>
      <point x="429" y="-22" type="move" name="belowLC"/>
    </contour>
  </outline>
</glyph>
<glyph name="O.sups" format="1">
  <advance width="432"/>
  <outline>
    <contour>
      <point x="216" y="398" type="curve" smooth="yes"/>
      <point x="324" y="398"/>
      <point x="399" y="486"/>
      <point x="399" y="624" type="curve" smooth="yes"/>
      <point x="399" y="760"/>
      <point x="324" y="846"/>
      <point x="216" y="846" type="curve" smooth="yes"/>
      <point x="110" y="846"/>
      <point x="34" y="761"/>
      <point x="34" y="624" type="curve" smooth="yes"/>
      <point x="34" y="486"/>
      <point x="110" y="398"/>
    </contour>
    <contour>
      <point x="216" y="431" type="curve" smooth="yes"/>
      <point x="131" y="431"/>
      <point x="74" y="507"/>
      <point x="74" y="624" type="curve" smooth="yes"/>
      <point x="74" y="739"/>
      <point x="131" y="813"/>
      <point x="216" y="813" type="curve" smooth="yes"/>
      <point x="303" y="813"/>
      <point x="359" y="739"/>
      <point x="359" y="624" type="curve" smooth="yes"/>
      <point x="359" y="507"/>
      <point x="303" y="431"/>
    </contour>
  </outline>
</glyph>
<glyph name="Obarcyr" format="1">
  <advance width="652"/>
  <outline>
    <contour>
      <point x="326" y="681" type="move" name="aboveUC"/>
    </contour>
    <component base="Fita"/>
  </outline>
</glyph>
<glyph name="Ocyr" format="1">
  <advance width="652"/>
  <outline>
    <contour>
      <point x="326" y="681" type="move" name="aboveUC"/>
    </contour>
    <component base="O"/>
  </outline>
</glyph>
<glyph name="Ohorn" format="1">
  <advance width="652"/>
  <outline>
    <contour>
      <point x="330" y="681" type="move" name="aboveUC"/>
    </contour>
    <contour>
      <point x="324" y="-22" type="move" name="belowLC"/>
    </contour>
    <contour>
      <point x="487" y="613" type="line"/>
      <point x="551" y="630"/>
      <point x="594" y="667"/>
      <point x="594" y="730" type="curve" smooth="yes"/>
      <point x="594" y="754"/>
      <point x="587" y="778"/>
      <point x="574" y="800" type="curve"/>
      <point x="535" y="781" type="line"/>
      <point x="545" y="764"/>
      <point x="549" y="743"/>
      <point x="549" y="727" type="curve" smooth="yes"/>
      <point x="549" y="679"/>
      <point x="518" y="649"/>
      <point x="452" y="639" type="curve"/>
    </contour>
    <component base="O" xOffset="4"/>
  </outline>
</glyph>
<glyph name="Ohorn.sc" format="1">
	<advance width="574"/>
	<outline>
		<component base="O.sc"/>
		<component base="horncmb" xOffset="395" yOffset="32"/>
		<contour>
			<point name="aboveUC" x="287" y="562" type="move"/>
		</contour>
		<contour>
			<point name="ogonekUC" x="287" y="0" type="move"/>
		</contour>
		<contour>
			<point name="belowLC" x="287" y="-22" type="move"/>
		</contour>
	</outline>
</glyph>
<glyph name="Ohorn.sc" format="1">
  <advance width="574"/>
  <outline>
    <contour>
      <point x="287" y="562" type="move" name="aboveUC"/>
    </contour>
    <contour>
      <point x="287" y="0" type="move" name="ogonekUC"/>
    </contour>
    <contour>
      <point x="287" y="-22" type="move" name="belowLC"/>
    </contour>
    <component base="O.sc"/>
    <component base="horncmb" xOffset="395" yOffset="32"/>
  </outline>
</glyph>
<glyph name="Omega.sc" format="1">
  <advance width="569"/>
  <outline>
    <contour>
      <point x="44" y="0" type="line"/>
      <point x="227" y="0" type="line"/>
      <point x="227" y="33" type="line"/>
      <point x="160" y="77"/>
      <point x="101" y="151"/>
      <point x="101" y="269" type="curve" smooth="yes"/>
      <point x="101" y="390"/>
      <point x="169" y="485"/>
      <point x="284" y="485" type="curve" smooth="yes"/>
      <point x="401" y="485"/>
      <point x="469" y="390"/>
      <point x="469" y="269" type="curve" smooth="yes"/>
      <point x="469" y="151"/>
      <point x="409" y="77"/>
      <point x="342" y="33" type="curve"/>
      <point x="342" y="0" type="line"/>
      <point x="526" y="0" type="line"/>
      <point x="526" y="37" type="line"/>
      <point x="407" y="37" type="line"/>
      <point x="407" y="40" type="line"/>
      <point x="460" y="87"/>
      <point x="516" y="160"/>
      <point x="516" y="270" type="curve" smooth="yes"/>
      <point x="516" y="413"/>
      <point x="425" y="524"/>
      <point x="284" y="524" type="curve" smooth="yes"/>
      <point x="144" y="524"/>
      <point x="54" y="413"/>
      <point x="54" y="270" type="curve" smooth="yes"/>
      <point x="54" y="160"/>
      <point x="110" y="87"/>
      <point x="163" y="40" type="curve"/>
      <point x="163" y="37" type="line"/>
      <point x="44" y="37" type="line"/>
    </contour>
  </outline>
</glyph>
<glyph name="Omicron.sc" format="1">
	<advance width="574"/>
	<outline>
		<component base="O.sc"/>
		<contour>
			<point name="aboveLC" x="287" y="562" type="move"/>
		</contour>
		<contour>
			<point name="belowLC" x="287" y="-22" type="move"/>
		</contour>
	</outline>
</glyph>
<glyph name="Oogonek.sc" format="1">
	<advance width="574"/>
	<outline>
		<contour>
			<point x="318" y="-205" type="curve" smooth="yes"/>
			<point x="340" y="-205"/>
			<point x="368" y="-194"/>
			<point x="384" y="-181" type="curve"/>
			<point x="367" y="-154" type="line"/>
			<point x="354" y="-164"/>
			<point x="342" y="-168"/>
			<point x="324" y="-168" type="curve" smooth="yes"/>
			<point x="299" y="-168"/>
			<point x="273" y="-151"/>
			<point x="273" y="-116" type="curve" smooth="yes"/>
			<point x="273" y="-80"/>
			<point x="299" y="-33"/>
			<point x="356" y="-8" type="curve"/>
			<point x="460" y="38"/>
			<point x="519" y="122"/>
			<point x="519" y="257" type="curve"/>
			<point x="519" y="422"/>
			<point x="422" y="524"/>
			<point x="287" y="524" type="curve" smooth="yes"/>
			<point x="151" y="524"/>
			<point x="55" y="422"/>
			<point x="55" y="257" type="curve"/>
			<point x="55" y="92"/>
			<point x="147" y="-12"/>
			<point x="294" y="-12" type="curve"/>
			<point x="256" y="-43"/>
			<point x="234" y="-83"/>
			<point x="234" y="-123" type="curve" smooth="yes"/>
			<point x="234" y="-178"/>
			<point x="272" y="-205"/>
		</contour>
		<contour>
			<point x="287" y="29" type="curve" smooth="yes"/>
			<point x="176" y="29"/>
			<point x="103" y="117"/>
			<point x="103" y="257" type="curve" smooth="yes"/>
			<point x="103" y="397"/>
			<point x="176" y="483"/>
			<point x="287" y="483" type="curve" smooth="yes"/>
			<point x="397" y="483"/>
			<point x="471" y="397"/>
			<point x="471" y="257" type="curve" smooth="yes"/>
			<point x="471" y="117"/>
			<point x="397" y="29"/>
		</contour>
		<contour>
			<point name="aboveUC" x="287" y="562" type="move"/>
		</contour>
	</outline>
</glyph>
<glyph name="Oslash" format="1">
  <advance width="652"/>
  <outline>
    <contour>
      <point x="325" y="681" type="move" name="aboveUC"/>
    </contour>
    <contour>
      <point x="84" y="-23" type="line"/>
      <point x="595" y="660" type="line"/>
      <point x="566" y="682" type="line"/>
      <point x="56" y="-1" type="line"/>
    </contour>
    <component base="O" xOffset="4"/>
  </outline>
</glyph>
<glyph name="Oogonek" format="1">
  <advance width="652"/>
  <outline>
    <contour>
      <point x="324" y="681" type="move" name="aboveUC"/>
    </contour>
    <contour>
      <point x="357" y="-205" type="curve" smooth="yes"/>
      <point x="379" y="-205"/>
      <point x="407" y="-194"/>
      <point x="423" y="-181" type="curve"/>
      <point x="406" y="-154" type="line"/>
      <point x="393" y="-164"/>
      <point x="381" y="-168"/>
      <point x="363" y="-168" type="curve" smooth="yes"/>
      <point x="338" y="-168"/>
      <point x="313" y="-151"/>
      <point x="313" y="-116" type="curve" smooth="yes"/>
      <point x="313" y="-80"/>
      <point x="338" y="-33"/>
      <point x="395" y="-8" type="curve" smooth="yes"/>
      <point x="527" y="52"/>
      <point x="598" y="156"/>
      <point x="598" y="332" type="curve" smooth="yes"/>
      <point x="598" y="540"/>
      <point x="485" y="671"/>
      <point x="326" y="671" type="curve" smooth="yes"/>
      <point x="168" y="671"/>
      <point x="55" y="540"/>
      <point x="55" y="332" type="curve" smooth="yes"/>
      <point x="55" y="125"/>
      <point x="162" y="-12"/>
      <point x="334" y="-12" type="curve"/>
      <point x="295" y="-43"/>
      <point x="273" y="-83"/>
      <point x="273" y="-123" type="curve" smooth="yes"/>
      <point x="273" y="-178"/>
      <point x="311" y="-205"/>
    </contour>
    <contour>
      <point x="326" y="30" type="curve" smooth="yes"/>
      <point x="192" y="30"/>
      <point x="103" y="149"/>
      <point x="103" y="332" type="curve" smooth="yes"/>
      <point x="103" y="514"/>
      <point x="192" y="629"/>
      <point x="326" y="629" type="curve" smooth="yes"/>
      <point x="460" y="629"/>
      <point x="549" y="514"/>
      <point x="549" y="332" type="curve" smooth="yes"/>
      <point x="549" y="149"/>
      <point x="460" y="30"/>
    </contour>
  </outline>
</glyph>
<glyph name="P" format="1">
  <advance width="549"/>
  <outline>
    <contour>
      <point x="295" y="681" type="move" name="aboveUC"/>
    </contour>
    <contour>
      <point x="123" y="-22" type="move" name="belowLC"/>
    </contour>
    <contour>
      <point x="97" y="0" type="line"/>
      <point x="143" y="0" type="line"/>
      <point x="143" y="283" type="line"/>
      <point x="267" y="283" type="line" smooth="yes"/>
      <point x="414" y="283"/>
      <point x="502" y="346"/>
      <point x="502" y="475" type="curve" smooth="yes"/>
      <point x="502" y="611"/>
      <point x="412" y="659"/>
      <point x="263" y="659" type="curve" smooth="yes"/>
      <point x="97" y="659" type="line"/>
    </contour>
    <contour>
      <point x="143" y="322" type="line"/>
      <point x="143" y="620" type="line"/>
      <point x="252" y="620" type="line" smooth="yes"/>
      <point x="388" y="620"/>
      <point x="455" y="586"/>
      <point x="455" y="475" type="curve" smooth="yes"/>
      <point x="455" y="367"/>
      <point x="390" y="322"/>
      <point x="256" y="322" type="curve" smooth="yes"/>
    </contour>
  </outline>
</glyph>
<glyph name="P.sups" format="1">
  <advance width="371"/>
  <outline>
    <contour>
      <point x="61" y="269" type="line"/>
      <point x="100" y="269" type="line"/>
      <point x="100" y="450" type="line"/>
      <point x="186" y="450" type="line" smooth="yes"/>
      <point x="282" y="450"/>
      <point x="344" y="492"/>
      <point x="344" y="579" type="curve" smooth="yes"/>
      <point x="344" y="669"/>
      <point x="283" y="701"/>
      <point x="186" y="701" type="curve" smooth="yes"/>
      <point x="61" y="701" type="line"/>
    </contour>
    <contour>
      <point x="100" y="482" type="line"/>
      <point x="100" y="669" type="line"/>
      <point x="179" y="669" type="line" smooth="yes"/>
      <point x="263" y="669"/>
      <point x="305" y="648"/>
      <point x="305" y="579" type="curve" smooth="yes"/>
      <point x="305" y="510"/>
      <point x="263" y="482"/>
      <point x="179" y="482" type="curve" smooth="yes"/>
    </contour>
  </outline>
</glyph>
<glyph name="P.sc" format="1">
  <advance width="499"/>
  <outline>
    <contour>
      <point x="277" y="562" type="move" name="aboveUC"/>
    </contour>
    <contour>
      <point x="123" y="-22" type="move" name="belowLC"/>
    </contour>
    <contour>
      <point x="97" y="0" type="line"/>
      <point x="143" y="0" type="line"/>
      <point x="143" y="214" type="line"/>
      <point x="252" y="214" type="line" smooth="yes"/>
      <point x="377" y="214"/>
      <point x="453" y="263"/>
      <point x="453" y="366" type="curve" smooth="yes"/>
      <point x="453" y="474"/>
      <point x="377" y="512"/>
      <point x="252" y="512" type="curve" smooth="yes"/>
      <point x="97" y="512" type="line"/>
    </contour>
    <contour>
      <point x="143" y="250" type="line"/>
      <point x="143" y="475" type="line"/>
      <point x="243" y="475" type="line" smooth="yes"/>
      <point x="354" y="475"/>
      <point x="406" y="447"/>
      <point x="406" y="365" type="curve" smooth="yes"/>
      <point x="406" y="284"/>
      <point x="357" y="250"/>
      <point x="247" y="250" type="curve" smooth="yes"/>
    </contour>
  </outline>
</glyph>
<glyph name="P.sups" format="1">
  <advance width="371"/>
  <outline>
    <contour>
      <point x="61" y="406" type="line"/>
      <point x="100" y="406" type="line"/>
      <point x="100" y="587" type="line"/>
      <point x="186" y="587" type="line" smooth="yes"/>
      <point x="282" y="587"/>
      <point x="344" y="628"/>
      <point x="344" y="716" type="curve" smooth="yes"/>
      <point x="344" y="806"/>
      <point x="283" y="838"/>
      <point x="186" y="838" type="curve" smooth="yes"/>
      <point x="61" y="838" type="line"/>
    </contour>
    <contour>
      <point x="100" y="619" type="line"/>
      <point x="100" y="806" type="line"/>
      <point x="179" y="806" type="line" smooth="yes"/>
      <point x="263" y="806"/>
      <point x="305" y="785"/>
      <point x="305" y="716" type="curve" smooth="yes"/>
      <point x="305" y="647"/>
      <point x="263" y="619"/>
      <point x="179" y="619" type="curve" smooth="yes"/>
    </contour>
  </outline>
</glyph>
<glyph name="Pi" format="1">
  <advance width="634"/>
  <outline>
    <contour>
      <point x="97" y="0" type="line"/>
      <point x="143" y="0" type="line"/>
      <point x="143" y="619" type="line"/>
      <point x="491" y="619" type="line"/>
      <point x="491" y="0" type="line"/>
      <point x="537" y="0" type="line"/>
      <point x="537" y="659" type="line"/>
      <point x="97" y="659" type="line"/>
    </contour>
  </outline>
</glyph>
<glyph name="Psi" format="1">
  <advance width="668"/>
  <outline>
    <contour>
      <point x="320" y="260" type="curve" smooth="yes"/>
      <point x="348" y="260" type="line" smooth="yes"/>
      <point x="505" y="260"/>
      <point x="598" y="333"/>
      <point x="598" y="497" type="curve" smooth="yes"/>
      <point x="598" y="659" type="line"/>
      <point x="552" y="659" type="line"/>
      <point x="552" y="498" type="line" smooth="yes"/>
      <point x="552" y="365"/>
      <point x="484" y="299"/>
      <point x="349" y="299" type="curve" smooth="yes"/>
      <point x="319" y="299" type="line" smooth="yes"/>
      <point x="184" y="299"/>
      <point x="115" y="365"/>
      <point x="115" y="498" type="curve" smooth="yes"/>
      <point x="115" y="659" type="line"/>
      <point x="70" y="659" type="line"/>
      <point x="70" y="497" type="line" smooth="yes"/>
      <point x="70" y="333"/>
      <point x="162" y="260"/>
    </contour>
    <contour>
      <point x="311" y="0" type="line"/>
      <point x="356" y="0" type="line"/>
      <point x="356" y="659" type="line"/>
      <point x="311" y="659" type="line"/>
    </contour>
  </outline>
</glyph>
<glyph name="Phi.sc" format="1">
  <advance width="624"/>
  <outline>
    <contour>
      <point x="300" y="58" type="curve" smooth="yes"/>
      <point x="325" y="58" type="line"/>
      <point x="479" y="58"/>
      <point x="577" y="135"/>
      <point x="577" y="256" type="curve" smooth="yes"/>
      <point x="577" y="379"/>
      <point x="479" y="453"/>
      <point x="325" y="453" type="curve" smooth="yes"/>
      <point x="300" y="453" type="line" smooth="yes"/>
      <point x="146" y="453"/>
      <point x="48" y="379"/>
      <point x="48" y="256" type="curve" smooth="yes"/>
      <point x="48" y="135"/>
      <point x="146" y="58"/>
    </contour>
    <contour>
      <point x="299" y="94" type="line"/>
      <point x="172" y="94"/>
      <point x="94" y="159"/>
      <point x="94" y="256" type="curve" smooth="yes"/>
      <point x="94" y="354"/>
      <point x="172" y="417"/>
      <point x="299" y="417" type="curve" smooth="yes"/>
      <point x="327" y="417" type="line" smooth="yes"/>
      <point x="453" y="417"/>
      <point x="531" y="354"/>
      <point x="531" y="256" type="curve" smooth="yes"/>
      <point x="531" y="159"/>
      <point x="453" y="94"/>
      <point x="327" y="94" type="curve" smooth="yes"/>
    </contour>
    <contour>
      <point x="290" y="-18" type="line"/>
      <point x="334" y="-18" type="line"/>
      <point x="334" y="530" type="line"/>
      <point x="290" y="530" type="line"/>
    </contour>
  </outline>
</glyph>
<glyph name="Psi.sc" format="1">
  <advance width="591"/>
  <outline>
    <contour>
      <point x="283" y="198" type="curve" smooth="yes"/>
      <point x="308" y="198" type="line" smooth="yes"/>
      <point x="443" y="198"/>
      <point x="522" y="255"/>
      <point x="522" y="385" type="curve" smooth="yes"/>
      <point x="522" y="512" type="line"/>
      <point x="477" y="512" type="line"/>
      <point x="477" y="387" type="line" smooth="yes"/>
      <point x="477" y="284"/>
      <point x="421" y="234"/>
      <point x="309" y="234" type="curve" smooth="yes"/>
      <point x="282" y="234" type="line" smooth="yes"/>
      <point x="171" y="234"/>
      <point x="114" y="284"/>
      <point x="114" y="387" type="curve" smooth="yes"/>
      <point x="114" y="512" type="line"/>
      <point x="70" y="512" type="line"/>
      <point x="70" y="385" type="line" smooth="yes"/>
      <point x="70" y="255"/>
      <point x="149" y="198"/>
    </contour>
    <contour>
      <point x="274" y="0" type="line"/>
      <point x="318" y="0" type="line"/>
      <point x="318" y="512" type="line"/>
      <point x="274" y="512" type="line"/>
    </contour>
  </outline>
</glyph>
<glyph name="Q.sups" format="1">
  <advance width="432"/>
  <outline>
    <contour>
      <point x="216" y="261" type="curve" smooth="yes"/>
      <point x="322" y="261"/>
      <point x="398" y="350"/>
      <point x="398" y="488" type="curve" smooth="yes"/>
      <point x="398" y="624"/>
      <point x="322" y="709"/>
      <point x="216" y="709" type="curve" smooth="yes"/>
      <point x="110" y="709"/>
      <point x="33" y="625"/>
      <point x="33" y="488" type="curve" smooth="yes"/>
      <point x="33" y="350"/>
      <point x="110" y="261"/>
    </contour>
    <contour>
      <point x="216" y="294" type="curve" smooth="yes"/>
      <point x="130" y="294"/>
      <point x="73" y="371"/>
      <point x="73" y="488" type="curve" smooth="yes"/>
      <point x="73" y="603"/>
      <point x="130" y="676"/>
      <point x="216" y="676" type="curve" smooth="yes"/>
      <point x="302" y="676"/>
      <point x="358" y="603"/>
      <point x="358" y="488" type="curve" smooth="yes"/>
      <point x="358" y="371"/>
      <point x="302" y="294"/>
    </contour>
    <contour>
      <point x="345" y="166" type="curve" smooth="yes"/>
      <point x="369" y="166"/>
      <point x="391" y="170"/>
      <point x="402" y="174" type="curve"/>
      <point x="394" y="205" type="line"/>
      <point x="383" y="203"/>
      <point x="369" y="200"/>
      <point x="349" y="200" type="curve" smooth="yes"/>
      <point x="293" y="200"/>
      <point x="252" y="224"/>
      <point x="234" y="272" type="curve"/>
      <point x="193" y="269" type="line"/>
      <point x="214" y="210"/>
      <point x="266" y="166"/>
    </contour>
  </outline>
</glyph>
<glyph name="R.sups" format="1">
  <advance width="373"/>
  <outline>
    <contour>
      <point x="61" y="269" type="line"/>
      <point x="100" y="269" type="line"/>
      <point x="100" y="462" type="line"/>
      <point x="190" y="462" type="line" smooth="yes"/>
      <point x="278" y="462"/>
      <point x="337" y="504"/>
      <point x="337" y="585" type="curve" smooth="yes"/>
      <point x="337" y="669"/>
      <point x="278" y="701"/>
      <point x="190" y="701" type="curve" smooth="yes"/>
      <point x="61" y="701" type="line"/>
    </contour>
    <contour>
      <point x="100" y="494" type="line"/>
      <point x="100" y="669" type="line"/>
      <point x="182" y="669" type="line" smooth="yes"/>
      <point x="257" y="669"/>
      <point x="298" y="647"/>
      <point x="298" y="585" type="curve" smooth="yes"/>
      <point x="298" y="523"/>
      <point x="257" y="494"/>
      <point x="182" y="494" type="curve" smooth="yes"/>
    </contour>
    <contour>
      <point x="303" y="269" type="line"/>
      <point x="347" y="269" type="line"/>
      <point x="216" y="489" type="line"/>
      <point x="182" y="474" type="line"/>
    </contour>
  </outline>
</glyph>
<glyph name="Rho.sc" format="1">
  <advance width="499"/>
  <outline>
    <contour>
      <point x="277" y="562" type="move" name="aboveLC"/>
    </contour>
    <contour>
      <point x="123" y="-22" type="move" name="belowLC"/>
    </contour>
    <component base="P.sc"/>
  </outline>
</glyph>
<glyph name="Rsmall" format="1">
  <advance width="474"/>
  <outline>
    <contour>
      <point x="250" y="504" type="move" name="aboveUC"/>
    </contour>
    <contour>
      <point x="272" y="-22" type="move" name="belowLC"/>
    </contour>
    <contour>
      <point x="92" y="0" type="line"/>
      <point x="136" y="0" type="line"/>
      <point x="136" y="209" type="line"/>
      <point x="252" y="209" type="line"/>
      <point x="341" y="209"/>
      <point x="417" y="250"/>
      <point x="417" y="348" type="curve" smooth="yes"/>
      <point x="417" y="445"/>
      <point x="345" y="480"/>
      <point x="245" y="480" type="curve" smooth="yes"/>
      <point x="92" y="480" type="line"/>
    </contour>
    <contour>
      <point x="136" y="246" type="line"/>
      <point x="136" y="443" type="line"/>
      <point x="234" y="443" type="line" smooth="yes"/>
      <point x="319" y="443"/>
      <point x="371" y="415"/>
      <point x="371" y="347" type="curve" smooth="yes"/>
      <point x="371" y="280"/>
      <point x="319" y="246"/>
      <point x="234" y="246" type="curve" smooth="yes"/>
    </contour>
    <contour>
      <point x="382" y="0" type="line"/>
      <point x="432" y="0" type="line"/>
      <point x="280" y="231" type="line"/>
      <point x="244" y="216" type="line"/>
    </contour>
  </outline>
</glyph>
<glyph name="Rsmallinverted" format="1">
  <advance width="474"/>
  <outline>
    <contour>
      <point x="229" y="0" type="curve" smooth="yes"/>
      <point x="382" y="0" type="line"/>
      <point x="382" y="480" type="line"/>
      <point x="338" y="480" type="line"/>
      <point x="338" y="274" type="line"/>
      <point x="222" y="274" type="line"/>
      <point x="133" y="274"/>
      <point x="57" y="232"/>
      <point x="57" y="134" type="curve" smooth="yes"/>
      <point x="57" y="37"/>
      <point x="129" y="0"/>
    </contour>
    <contour>
      <point x="240" y="38" type="line" smooth="yes"/>
      <point x="155" y="38"/>
      <point x="103" y="67"/>
      <point x="103" y="135" type="curve" smooth="yes"/>
      <point x="103" y="202"/>
      <point x="155" y="238"/>
      <point x="240" y="238" type="curve" smooth="yes"/>
      <point x="338" y="238" type="line"/>
      <point x="338" y="38" type="line"/>
    </contour>
    <contour>
      <point x="194" y="253" type="line"/>
      <point x="230" y="268" type="line"/>
      <point x="92" y="480" type="line"/>
      <point x="42" y="480" type="line"/>
    </contour>
  </outline>
</glyph>
<glyph name="S.sups" format="1">
  <advance width="345"/>
  <outline>
    <contour>
      <point x="178" y="261" type="curve" smooth="yes"/>
      <point x="265" y="261"/>
      <point x="320" y="313"/>
      <point x="320" y="383" type="curve" smooth="yes"/>
      <point x="320" y="445"/>
      <point x="280" y="471"/>
      <point x="229" y="494" type="curve" smooth="yes"/>
      <point x="163" y="523" type="line" smooth="yes"/>
      <point x="131" y="536"/>
      <point x="90" y="556"/>
      <point x="90" y="603" type="curve" smooth="yes"/>
      <point x="90" y="648"/>
      <point x="126" y="677"/>
      <point x="181" y="677" type="curve" smooth="yes"/>
      <point x="225" y="677"/>
      <point x="258" y="659"/>
      <point x="285" y="633" type="curve"/>
      <point x="306" y="657" type="line"/>
      <point x="277" y="686"/>
      <point x="234" y="709"/>
      <point x="181" y="709" type="curve" smooth="yes"/>
      <point x="107" y="709"/>
      <point x="51" y="664"/>
      <point x="51" y="601" type="curve" smooth="yes"/>
      <point x="51" y="537"/>
      <point x="100" y="510"/>
      <point x="140" y="492" type="curve" smooth="yes"/>
      <point x="206" y="463" type="line" smooth="yes"/>
      <point x="248" y="444"/>
      <point x="282" y="428"/>
      <point x="282" y="377" type="curve" smooth="yes"/>
      <point x="282" y="328"/>
      <point x="243" y="295"/>
      <point x="179" y="295" type="curve" smooth="yes"/>
      <point x="130" y="295"/>
      <point x="84" y="315"/>
      <point x="52" y="352" type="curve"/>
      <point x="28" y="326" type="line"/>
      <point x="65" y="287"/>
      <point x="115" y="261"/>
    </contour>
  </outline>
</glyph>
<glyph name="S.sc" format="1">
  <advance width="457"/>
  <outline>
    <contour>
      <point x="244" y="562" type="move" name="aboveUC"/>
    </contour>
    <contour>
      <point x="238" y="0" type="move" name="baseLC"/>
    </contour>
    <contour>
      <point x="253" y="-22" type="move" name="belowLC"/>
    </contour>
    <contour>
      <point x="237" y="-12" type="curve" smooth="yes"/>
      <point x="346" y="-12"/>
      <point x="416" y="48"/>
      <point x="416" y="128" type="curve" smooth="yes"/>
      <point x="416" y="212"/>
      <point x="367" y="238"/>
      <point x="291" y="268" type="curve" smooth="yes"/>
      <point x="220" y="298" type="line" smooth="yes"/>
      <point x="159" y="323"/>
      <point x="122" y="344"/>
      <point x="122" y="396" type="curve" smooth="yes"/>
      <point x="122" y="452"/>
      <point x="169" y="486"/>
      <point x="241" y="486" type="curve" smooth="yes"/>
      <point x="295" y="486"/>
      <point x="340" y="464"/>
      <point x="373" y="433" type="curve"/>
      <point x="399" y="463" type="line"/>
      <point x="366" y="496"/>
      <point x="311" y="524"/>
      <point x="241" y="524" type="curve" smooth="yes"/>
      <point x="146" y="524"/>
      <point x="76" y="472"/>
      <point x="76" y="394" type="curve" smooth="yes"/>
      <point x="76" y="324"/>
      <point x="132" y="287"/>
      <point x="202" y="259" type="curve"/>
      <point x="272" y="230" type="line" smooth="yes"/>
      <point x="328" y="207"/>
      <point x="370" y="188"/>
      <point x="370" y="125" type="curve" smooth="yes"/>
      <point x="370" y="66"/>
      <point x="320" y="26"/>
      <point x="238" y="26" type="curve" smooth="yes"/>
      <point x="172" y="26"/>
      <point x="115" y="54"/>
      <point x="74" y="97" type="curve"/>
      <point x="46" y="64" type="line"/>
      <point x="92" y="20"/>
      <point x="154" y="-12"/>
    </contour>
  </outline>
</glyph>
<glyph name="Schwa" format="1">
  <advance width="648"/>
  <outline>
    <contour>
      <point x="322" y="-12" type="curve" smooth="yes"/>
      <point x="487" y="-12"/>
      <point x="593" y="115"/>
      <point x="593" y="331" type="curve" smooth="yes"/>
      <point x="593" y="548"/>
      <point x="496" y="671"/>
      <point x="326" y="671" type="curve" smooth="yes"/>
      <point x="243" y="671"/>
      <point x="175" y="639"/>
      <point x="131" y="596" type="curve"/>
      <point x="155" y="565" type="line"/>
      <point x="197" y="605"/>
      <point x="258" y="632"/>
      <point x="326" y="632" type="curve" smooth="yes"/>
      <point x="470" y="632"/>
      <point x="547" y="522"/>
      <point x="547" y="331" type="curve" smooth="yes"/>
      <point x="547" y="141"/>
      <point x="463" y="27"/>
      <point x="322" y="27" type="curve" smooth="yes"/>
      <point x="198" y="27"/>
      <point x="113" y="133"/>
      <point x="109" y="299" type="curve"/>
      <point x="555" y="299" type="line"/>
      <point x="555" y="337" type="line"/>
      <point x="63" y="337" type="line"/>
      <point x="63" y="333"/>
      <point x="62" y="329"/>
      <point x="62" y="326" type="curve" smooth="yes"/>
      <point x="62" y="127"/>
      <point x="157" y="-12"/>
    </contour>
    <contour>
      <point x="339" y="681" type="move" name="aboveUC"/>
    </contour>
    <contour>
      <point x="339" y="-22" type="move" name="belowLC"/>
    </contour>
  </outline>
</glyph>
<glyph name="Sha" format="1">
  <advance width="838"/>
  <outline>
    <contour>
      <point x="97" y="0" type="line"/>
      <point x="741" y="0" type="line"/>
      <point x="741" y="659" type="line"/>
      <point x="695" y="659" type="line"/>
      <point x="695" y="40" type="line"/>
      <point x="442" y="40" type="line"/>
      <point x="442" y="659" type="line"/>
      <point x="396" y="659" type="line"/>
      <point x="396" y="40" type="line"/>
      <point x="143" y="40" type="line"/>
      <point x="143" y="659" type="line"/>
      <point x="97" y="659" type="line"/>
    </contour>
  </outline>
</glyph>
<glyph name="Shcha" format="1">
  <advance width="843"/>
  <outline>
    <contour>
      <point x="765" y="-188" type="line"/>
      <point x="803" y="-188" type="line"/>
      <point x="810" y="14" type="line"/>
      <point x="810" y="40" type="line"/>
      <point x="721" y="40" type="line"/>
      <point x="721" y="0" type="line"/>
      <point x="765" y="0" type="line"/>
    </contour>
    <component base="Sha"/>
  </outline>
</glyph>
<glyph name="Shcha.sc" format="1">
  <advance width="745"/>
  <outline>
    <contour>
      <point x="668" y="-172" type="line"/>
      <point x="706" y="-172" type="line"/>
      <point x="712" y="13" type="line"/>
      <point x="712" y="39" type="line"/>
      <point x="626" y="39" type="line"/>
      <point x="626" y="0" type="line"/>
      <point x="668" y="0" type="line"/>
    </contour>
    <component base="Sha.sc"/>
  </outline>
</glyph>
<glyph name="Shha" format="1">
  <advance width="579"/>
  <outline>
    <contour>
      <point x="97" y="0" type="line"/>
      <point x="143" y="0" type="line"/>
      <point x="143" y="347" type="line"/>
      <point x="174" y="353"/>
      <point x="216" y="359"/>
      <point x="271" y="359" type="curve" smooth="yes"/>
      <point x="392" y="359"/>
      <point x="463" y="321"/>
      <point x="463" y="200" type="curve" smooth="yes"/>
      <point x="463" y="0" type="line"/>
      <point x="508" y="0" type="line"/>
      <point x="508" y="200" type="line" smooth="yes"/>
      <point x="508" y="348"/>
      <point x="420" y="399"/>
      <point x="275" y="399" type="curve" smooth="yes"/>
      <point x="218" y="399"/>
      <point x="177" y="394"/>
      <point x="143" y="388" type="curve"/>
      <point x="143" y="659" type="line"/>
      <point x="97" y="659" type="line"/>
    </contour>
  </outline>
</glyph>
<glyph name="Shha.sc" format="1">
	<advance width="520"/>
	<outline>
		<contour>
			<point x="143" y="512" type="line"/>
			<point x="97" y="512" type="line"/>
			<point x="97" y="0" type="line"/>
			<point x="143" y="0" type="line"/>
			<point x="143" y="265" type="line"/>
			<point x="171" y="271"/>
			<point x="203" y="275"/>
			<point x="247" y="275" type="curve" smooth="yes"/>
			<point x="346" y="275"/>
			<point x="404" y="245"/>
			<point x="404" y="154" type="curve" smooth="yes"/>
			<point x="404" y="0" type="line"/>
			<point x="449" y="0" type="line"/>
			<point x="449" y="154" type="line" smooth="yes"/>
			<point x="449" y="271"/>
			<point x="374" y="313"/>
			<point x="251" y="313" type="curve" smooth="yes"/>
			<point x="205" y="313"/>
			<point x="171" y="309"/>
			<point x="143" y="303" type="curve"/>
		</contour>
	</outline>
</glyph>
<glyph name="Sigma" format="1">
  <advance width="531"/>
  <outline>
    <contour>
      <point x="47" y="0" type="line"/>
      <point x="493" y="0" type="line"/>
      <point x="493" y="40" type="line"/>
      <point x="108" y="40" type="line"/>
      <point x="335" y="336" type="line"/>
      <point x="112" y="619" type="line"/>
      <point x="462" y="619" type="line"/>
      <point x="462" y="659" type="line"/>
      <point x="52" y="659" type="line"/>
      <point x="52" y="632" type="line"/>
      <point x="287" y="335" type="line"/>
      <point x="47" y="27" type="line"/>
    </contour>
  </outline>
</glyph>
<glyph name="Sigma.sc" format="1">
  <advance width="461"/>
  <outline>
    <contour>
      <point x="47" y="0" type="line"/>
      <point x="424" y="0" type="line"/>
      <point x="424" y="38" type="line"/>
      <point x="105" y="38" type="line"/>
      <point x="294" y="261" type="line"/>
      <point x="109" y="476" type="line"/>
      <point x="399" y="476" type="line"/>
      <point x="399" y="512" type="line"/>
      <point x="52" y="512" type="line"/>
      <point x="52" y="488" type="line"/>
      <point x="247" y="260" type="line"/>
      <point x="47" y="26" type="line"/>
    </contour>
  </outline>
</glyph>
<glyph name="Soft" format="1">
  <advance width="568"/>
  <outline>
    <contour>
      <point x="97" y="0" type="line"/>
      <point x="288" y="0" type="line" smooth="yes"/>
      <point x="436" y="0"/>
      <point x="520" y="65"/>
      <point x="520" y="195" type="curve" smooth="yes"/>
      <point x="520" y="319"/>
      <point x="428" y="372"/>
      <point x="285" y="372" type="curve" smooth="yes"/>
      <point x="143" y="372" type="line"/>
      <point x="143" y="659" type="line"/>
      <point x="97" y="659" type="line"/>
    </contour>
    <contour>
      <point x="143" y="39" type="line"/>
      <point x="143" y="333" type="line"/>
      <point x="273" y="333" type="line" smooth="yes"/>
      <point x="406" y="333"/>
      <point x="474" y="291"/>
      <point x="474" y="193" type="curve" smooth="yes"/>
      <point x="474" y="86"/>
      <point x="407" y="39"/>
      <point x="277" y="39" type="curve" smooth="yes"/>
    </contour>
  </outline>
</glyph>
<glyph name="Shcha.sc" format="1">
  <advance width="715"/>
  <outline>
    <contour>
      <point x="97" y="0" type="line"/>
      <point x="383" y="0" type="line"/>
      <point x="383" y="512" type="line"/>
      <point x="338" y="512" type="line"/>
      <point x="338" y="38" type="line"/>
      <point x="142" y="38" type="line"/>
      <point x="142" y="512" type="line"/>
      <point x="97" y="512" type="line"/>
    </contour>
    <contour>
      <point x="338" y="0" type="line"/>
      <point x="623" y="0" type="line"/>
      <point x="623" y="512" type="line"/>
      <point x="578" y="512" type="line"/>
      <point x="578" y="38" type="line"/>
      <point x="383" y="38" type="line"/>
      <point x="383" y="512" type="line"/>
      <point x="338" y="512" type="line"/>
    </contour>
    <contour>
      <point x="638" y="-149" type="line"/>
      <point x="675" y="-149" type="line"/>
      <point x="682" y="11" type="line"/>
      <point x="682" y="38" type="line"/>
      <point x="602" y="38" type="line"/>
      <point x="602" y="0" type="line"/>
      <point x="638" y="0" type="line"/>
    </contour>
  </outline>
</glyph>
<glyph name="Sigma.sc" format="1">
  <advance width="461"/>
  <outline>
    <contour>
      <point x="47" y="0" type="line"/>
      <point x="425" y="0" type="line"/>
      <point x="425" y="38" type="line"/>
      <point x="106" y="38" type="line"/>
      <point x="294" y="261" type="line"/>
      <point x="109" y="476" type="line"/>
      <point x="398" y="476" type="line"/>
      <point x="398" y="513" type="line"/>
      <point x="51" y="513" type="line"/>
      <point x="51" y="488" type="line"/>
      <point x="247" y="260" type="line"/>
      <point x="47" y="26" type="line"/>
    </contour>
  </outline>
</glyph>
<glyph name="Soft.sc" format="1">
  <advance width="505"/>
  <outline>
    <contour>
      <point x="97" y="0" type="line"/>
      <point x="252" y="0" type="line" smooth="yes"/>
      <point x="380" y="0"/>
      <point x="459" y="38"/>
      <point x="459" y="145" type="curve" smooth="yes"/>
      <point x="459" y="245"/>
      <point x="379" y="292"/>
      <point x="252" y="292" type="curve" smooth="yes"/>
      <point x="142" y="292" type="line"/>
      <point x="142" y="512" type="line"/>
      <point x="97" y="512" type="line"/>
    </contour>
    <contour>
      <point x="142" y="37" type="line"/>
      <point x="142" y="255" type="line"/>
      <point x="242" y="255" type="line"/>
      <point x="357" y="255"/>
      <point x="414" y="223"/>
      <point x="414" y="144" type="curve" smooth="yes"/>
      <point x="414" y="63"/>
      <point x="356" y="37"/>
      <point x="242" y="37" type="curve" smooth="yes"/>
    </contour>
  </outline>
</glyph>
<glyph name="T" format="1">
  <advance width="524"/>
  <outline>
    <contour>
      <point x="239" y="0" type="line"/>
      <point x="285" y="0" type="line"/>
      <point x="285" y="619" type="line"/>
      <point x="495" y="619" type="line"/>
      <point x="495" y="659" type="line"/>
      <point x="29" y="659" type="line"/>
      <point x="29" y="619" type="line"/>
      <point x="239" y="619" type="line"/>
    </contour>
    <contour>
      <point x="260" y="681" type="move" name="aboveUC"/>
    </contour>
    <contour>
      <point x="262" y="0" type="move" name="baseLC"/>
    </contour>
    <contour>
      <point x="262" y="-22" type="move" name="belowLC"/>
    </contour>
  </outline>
</glyph>
<glyph name="T.sups" format="1">
  <advance width="345"/>
  <outline>
    <contour>
      <point x="154" y="269" type="line"/>
      <point x="192" y="269" type="line"/>
      <point x="192" y="669" type="line"/>
      <point x="328" y="669" type="line"/>
      <point x="328" y="701" type="line"/>
      <point x="17" y="701" type="line"/>
      <point x="17" y="669" type="line"/>
      <point x="154" y="669" type="line"/>
    </contour>
  </outline>
</glyph>
<glyph name="Tau.sc" format="1">
  <advance width="453"/>
  <outline>
    <contour>
      <point x="227" y="562" type="move" name="aboveLC"/>
    </contour>
    <contour>
      <point x="219" y="0" type="move" name="baseLC"/>
    </contour>
    <contour>
      <point x="227" y="-22" type="move" name="belowLC"/>
    </contour>
    <component base="T.sc"/>
  </outline>
</glyph>
<glyph name="Tbar" format="1">
  <advance width="524"/>
  <outline>
    <contour>
      <point x="239" y="0" type="line"/>
      <point x="285" y="0" type="line"/>
      <point x="285" y="619" type="line"/>
      <point x="495" y="619" type="line"/>
      <point x="495" y="659" type="line"/>
      <point x="29" y="659" type="line"/>
      <point x="29" y="619" type="line"/>
      <point x="239" y="619" type="line"/>
    </contour>
    <contour>
      <point x="112" y="330" type="line"/>
      <point x="412" y="330" type="line"/>
      <point x="412" y="363" type="line"/>
      <point x="198" y="363" type="line"/>
      <point x="112" y="361" type="line"/>
    </contour>
  </outline>
</glyph>
<glyph name="Tbar.sc" format="1">
  <advance width="453"/>
  <outline>
    <contour>
      <point x="204" y="0" type="line"/>
      <point x="250" y="0" type="line"/>
      <point x="250" y="473" type="line"/>
      <point x="424" y="473" type="line"/>
      <point x="424" y="512" type="line"/>
      <point x="29" y="512" type="line"/>
      <point x="29" y="473" type="line"/>
      <point x="204" y="473" type="line"/>
    </contour>
    <contour>
      <point x="77" y="250" type="line"/>
      <point x="376" y="250" type="line"/>
      <point x="376" y="283" type="line"/>
      <point x="162" y="283" type="line"/>
      <point x="77" y="281" type="line"/>
    </contour>
    <contour>
      <point x="227" y="562" type="move" name="aboveUC"/>
    </contour>
    <contour>
      <point x="219" y="0" type="move" name="baseLC"/>
    </contour>
    <contour>
      <point x="227" y="-22" type="move" name="belowLC"/>
    </contour>
  </outline>
</glyph>
<glyph name="Theta.sc" format="1">
  <advance width="574"/>
  <outline>
    <contour>
      <point x="188" y="253" type="line"/>
      <point x="386" y="253" type="line"/>
      <point x="386" y="290" type="line"/>
      <point x="188" y="290" type="line"/>
    </contour>
    <contour>
      <point x="287" y="-12" type="curve" smooth="yes"/>
      <point x="422" y="-12"/>
      <point x="519" y="93"/>
      <point x="519" y="257" type="curve" smooth="yes"/>
      <point x="519" y="422"/>
      <point x="422" y="524"/>
      <point x="287" y="524" type="curve" smooth="yes"/>
      <point x="151" y="524"/>
      <point x="55" y="422"/>
      <point x="55" y="257" type="curve" smooth="yes"/>
      <point x="55" y="93"/>
      <point x="151" y="-12"/>
    </contour>
    <contour>
      <point x="287" y="28" type="curve" smooth="yes"/>
      <point x="175" y="28"/>
      <point x="102" y="116"/>
      <point x="102" y="257" type="curve" smooth="yes"/>
      <point x="102" y="398"/>
      <point x="175" y="484"/>
      <point x="287" y="484" type="curve" smooth="yes"/>
      <point x="398" y="484"/>
      <point x="472" y="398"/>
      <point x="472" y="257" type="curve" smooth="yes"/>
      <point x="472" y="116"/>
      <point x="398" y="28"/>
    </contour>
  </outline>
</glyph>
<glyph name="Thorn" format="1">
  <advance width="563"/>
  <outline>
    <contour>
      <point x="97" y="0" type="line"/>
      <point x="143" y="0" type="line"/>
      <point x="143" y="166" type="line"/>
      <point x="277" y="166" type="line" smooth="yes"/>
      <point x="424" y="166"/>
      <point x="512" y="229"/>
      <point x="512" y="358" type="curve" smooth="yes"/>
      <point x="512" y="493"/>
      <point x="424" y="542"/>
      <point x="277" y="542" type="curve" smooth="yes"/>
      <point x="143" y="542" type="line"/>
      <point x="143" y="659" type="line"/>
      <point x="97" y="659" type="line"/>
    </contour>
    <contour>
      <point x="143" y="205" type="line"/>
      <point x="143" y="503" type="line"/>
      <point x="266" y="503" type="line" smooth="yes"/>
      <point x="400" y="503"/>
      <point x="465" y="468"/>
      <point x="465" y="358" type="curve" smooth="yes"/>
      <point x="465" y="250"/>
      <point x="400" y="205"/>
      <point x="266" y="205" type="curve" smooth="yes"/>
    </contour>
  </outline>
</glyph>
<glyph name="Tse" format="1">
  <advance width="626"/>
  <outline>
    <contour>
      <point x="97" y="0" type="line"/>
      <point x="523" y="0" type="line"/>
      <point x="523" y="659" type="line"/>
      <point x="477" y="659" type="line"/>
      <point x="477" y="40" type="line"/>
      <point x="143" y="40" type="line"/>
      <point x="143" y="659" type="line"/>
      <point x="97" y="659" type="line"/>
    </contour>
    <contour>
      <point x="547" y="-188" type="line"/>
      <point x="586" y="-188" type="line"/>
      <point x="593" y="14" type="line"/>
      <point x="593" y="40" type="line"/>
      <point x="503" y="40" type="line"/>
      <point x="503" y="0" type="line"/>
      <point x="547" y="0" type="line"/>
    </contour>
    <contour>
      <point x="316" y="681" type="move" name="aboveUC"/>
    </contour>
  </outline>
</glyph>
<glyph name="Tse.sc" format="1">
  <advance width="561"/>
  <outline>
    <contour>
      <point x="97" y="0" type="line"/>
      <point x="462" y="0" type="line"/>
      <point x="462" y="512" type="line"/>
      <point x="416" y="512" type="line"/>
      <point x="416" y="39" type="line"/>
      <point x="143" y="39" type="line"/>
      <point x="143" y="512" type="line"/>
      <point x="97" y="512" type="line"/>
    </contour>
    <contour>
      <point x="484" y="-172" type="line"/>
      <point x="522" y="-172" type="line"/>
      <point x="528" y="13" type="line"/>
      <point x="528" y="39" type="line"/>
      <point x="442" y="39" type="line"/>
      <point x="442" y="0" type="line"/>
      <point x="484" y="0" type="line"/>
    </contour>
  </outline>
</glyph>
<glyph name="Tshe" format="1">
  <advance width="683"/>
  <outline>
    <contour>
      <point x="219" y="0" type="line"/>
      <point x="265" y="0" type="line"/>
      <point x="265" y="345" type="line"/>
      <point x="297" y="351"/>
      <point x="345" y="357"/>
      <point x="386" y="357" type="curve" smooth="yes"/>
      <point x="505" y="357"/>
      <point x="567" y="314"/>
      <point x="567" y="200" type="curve" smooth="yes"/>
      <point x="567" y="0" type="line"/>
      <point x="612" y="0" type="line"/>
      <point x="612" y="200" type="line" smooth="yes"/>
      <point x="612" y="340"/>
      <point x="531" y="397"/>
      <point x="390" y="397" type="curve" smooth="yes"/>
      <point x="347" y="397"/>
      <point x="299" y="392"/>
      <point x="265" y="386" type="curve"/>
      <point x="265" y="659" type="line"/>
      <point x="219" y="659" type="line"/>
    </contour>
    <contour>
      <point x="29" y="619" type="line"/>
      <point x="508" y="619" type="line"/>
      <point x="508" y="659" type="line"/>
      <point x="29" y="659" type="line"/>
    </contour>
  </outline>
</glyph>
<glyph name="Tshe.sc" format="1">
  <advance width="594"/>
  <outline>
    <contour>
      <point x="29" y="473" type="line"/>
      <point x="435" y="473" type="line"/>
      <point x="435" y="512" type="line"/>
      <point x="29" y="512" type="line"/>
    </contour>
    <contour>
      <point x="233" y="512" type="line"/>
      <point x="187" y="512" type="line"/>
      <point x="187" y="0" type="line"/>
      <point x="233" y="0" type="line"/>
      <point x="233" y="262" type="line"/>
      <point x="261" y="267"/>
      <point x="290" y="271"/>
      <point x="333" y="271" type="curve" smooth="yes"/>
      <point x="426" y="271"/>
      <point x="478" y="242"/>
      <point x="478" y="150" type="curve" smooth="yes"/>
      <point x="478" y="0" type="line"/>
      <point x="524" y="0" type="line"/>
      <point x="524" y="150" type="line" smooth="yes"/>
      <point x="524" y="266"/>
      <point x="454" y="307"/>
      <point x="337" y="307" type="curve" smooth="yes"/>
      <point x="293" y="307"/>
      <point x="261" y="304"/>
      <point x="233" y="298" type="curve"/>
    </contour>
  </outline>
</glyph>
<glyph name="Theta" format="1">
  <advance width="652"/>
  <outline>
    <contour>
      <point x="205" y="330" type="line"/>
      <point x="447" y="330" type="line"/>
      <point x="447" y="370" type="line"/>
      <point x="205" y="370" type="line"/>
    </contour>
    <component base="O"/>
  </outline>
</glyph>
<glyph name="Theta.sc" format="1">
  <advance width="574"/>
  <outline>
    <contour>
      <point x="188" y="252" type="line"/>
      <point x="386" y="252" type="line"/>
      <point x="386" y="292" type="line"/>
      <point x="188" y="292" type="line"/>
    </contour>
    <component base="O.sc"/>
  </outline>
</glyph>
<glyph name="Tse.sc" format="1">
  <advance width="561"/>
  <outline>
    <contour>
      <point x="97" y="0" type="line"/>
      <point x="469" y="0" type="line"/>
      <point x="469" y="512" type="line"/>
      <point x="424" y="512" type="line"/>
      <point x="424" y="38" type="line"/>
      <point x="142" y="38" type="line"/>
      <point x="142" y="512" type="line"/>
      <point x="97" y="512" type="line"/>
    </contour>
    <contour>
      <point x="485" y="-149" type="line"/>
      <point x="522" y="-149" type="line"/>
      <point x="529" y="11" type="line"/>
      <point x="529" y="38" type="line"/>
      <point x="448" y="38" type="line"/>
      <point x="448" y="0" type="line"/>
      <point x="485" y="0" type="line"/>
    </contour>
  </outline>
</glyph>
<glyph name="Tshe.sc" format="1">
  <advance width="600"/>
  <outline>
    <contour>
      <point x="188" y="0" type="line"/>
      <point x="233" y="0" type="line"/>
      <point x="233" y="257" type="line"/>
      <point x="258" y="266"/>
      <point x="300" y="271"/>
      <point x="335" y="271" type="curve" smooth="yes"/>
      <point x="426" y="271"/>
      <point x="486" y="239"/>
      <point x="486" y="154" type="curve" smooth="yes"/>
      <point x="486" y="0" type="line"/>
      <point x="530" y="0" type="line"/>
      <point x="530" y="154" type="line" smooth="yes"/>
      <point x="530" y="263"/>
      <point x="451" y="310"/>
      <point x="339" y="310" type="curve" smooth="yes"/>
      <point x="303" y="310"/>
      <point x="261" y="302"/>
      <point x="233" y="293" type="curve"/>
      <point x="233" y="512" type="line"/>
      <point x="188" y="512" type="line"/>
    </contour>
    <contour>
      <point x="29" y="474" type="line"/>
      <point x="407" y="474" type="line"/>
      <point x="407" y="512" type="line"/>
      <point x="29" y="512" type="line"/>
    </contour>
  </outline>
</glyph>
<glyph name="U" format="1">
  <advance width="634"/>
  <outline>
    <contour>
      <point x="316" y="-12" type="curve" smooth="yes"/>
      <point x="430" y="-12"/>
      <point x="539" y="47"/>
      <point x="539" y="253" type="curve" smooth="yes"/>
      <point x="539" y="659" type="line"/>
      <point x="496" y="659" type="line"/>
      <point x="496" y="258" type="line" smooth="yes"/>
      <point x="496" y="83"/>
      <point x="411" y="30"/>
      <point x="316" y="30" type="curve" smooth="yes"/>
      <point x="223" y="30"/>
      <point x="141" y="83"/>
      <point x="141" y="258" type="curve" smooth="yes"/>
      <point x="141" y="659" type="line"/>
      <point x="95" y="659" type="line"/>
      <point x="95" y="253" type="line" smooth="yes"/>
      <point x="95" y="47"/>
      <point x="203" y="-12"/>
    </contour>
    <contour>
      <point x="316" y="681" type="move" name="aboveUC"/>
    </contour>
    <contour>
      <point x="514" y="669" type="move" name="hornLC"/>
    </contour>
    <contour>
      <point x="316" y="0" type="move" name="ogonekUC"/>
    </contour>
    <contour>
      <point x="316" y="-22" type="move" name="belowLC"/>
    </contour>
  </outline>
</glyph>
<glyph name="U.sc" format="1">
  <advance width="569"/>
  <outline>
    <contour>
      <point x="285" y="562" type="move" name="aboveUC"/>
    </contour>
    <contour>
      <point x="449" y="524" type="move" name="hornLC"/>
    </contour>
    <contour>
      <point x="285" y="0" type="move" name="ogonekUC"/>
    </contour>
    <contour>
      <point x="285" y="-22" type="move" name="belowLC"/>
    </contour>
    <contour>
      <point x="285" y="-12" type="curve" smooth="yes"/>
      <point x="383" y="-12"/>
      <point x="474" y="36"/>
      <point x="474" y="198" type="curve" smooth="yes"/>
      <point x="474" y="512" type="line"/>
      <point x="431" y="512" type="line"/>
      <point x="431" y="203" type="line" smooth="yes"/>
      <point x="431" y="68"/>
      <point x="363" y="29"/>
      <point x="285" y="29" type="curve" smooth="yes"/>
      <point x="207" y="29"/>
      <point x="141" y="68"/>
      <point x="141" y="203" type="curve" smooth="yes"/>
      <point x="141" y="512" type="line"/>
      <point x="95" y="512" type="line"/>
      <point x="95" y="198" type="line" smooth="yes"/>
      <point x="95" y="36"/>
      <point x="186" y="-12"/>
    </contour>
  </outline>
</glyph>
<glyph name="U.sups" format="1">
  <advance width="422"/>
  <outline>
    <contour>
      <point x="211" y="261" type="curve" smooth="yes"/>
      <point x="290" y="261"/>
      <point x="361" y="303"/>
      <point x="361" y="439" type="curve" smooth="yes"/>
      <point x="361" y="701" type="line"/>
      <point x="326" y="701" type="line"/>
      <point x="326" y="441" type="line" smooth="yes"/>
      <point x="326" y="329"/>
      <point x="272" y="295"/>
      <point x="211" y="295" type="curve" smooth="yes"/>
      <point x="151" y="295"/>
      <point x="98" y="329"/>
      <point x="98" y="441" type="curve" smooth="yes"/>
      <point x="98" y="701" type="line"/>
      <point x="60" y="701" type="line"/>
      <point x="60" y="439" type="line" smooth="yes"/>
      <point x="60" y="303"/>
      <point x="131" y="261"/>
    </contour>
  </outline>
</glyph>
<glyph name="Ucyr" format="1">
  <advance width="491"/>
  <outline>
    <contour>
      <point x="233" y="681" type="move" name="aboveUC"/>
    </contour>
    <contour>
      <point x="123" y="-12" type="curve" smooth="yes"/>
      <point x="195" y="-12"/>
      <point x="235" y="31"/>
      <point x="263" y="102" type="curve" smooth="yes"/>
      <point x="486" y="659" type="line"/>
      <point x="438" y="659" type="line"/>
      <point x="300" y="307" type="line"/>
      <point x="257" y="194" type="line"/>
      <point x="253" y="194" type="line"/>
      <point x="206" y="307" type="line"/>
      <point x="56" y="659" type="line"/>
      <point x="7" y="659" type="line"/>
      <point x="233" y="144" type="line"/>
      <point x="216" y="101" type="line" smooth="yes"/>
      <point x="195" y="54"/>
      <point x="169" y="34"/>
      <point x="118" y="34" type="curve" smooth="yes"/>
      <point x="103" y="34"/>
      <point x="91" y="36"/>
      <point x="81" y="40" type="curve"/>
      <point x="69" y="-3" type="line"/>
      <point x="86" y="-10"/>
      <point x="99" y="-12"/>
    </contour>
  </outline>
</glyph>
<glyph name="Ucyr.sc" format="1">
  <advance width="419"/>
  <outline>
    <contour>
      <point x="107" y="-12" type="curve" smooth="yes"/>
      <point x="169" y="-12"/>
      <point x="204" y="23"/>
      <point x="229" y="81" type="curve" smooth="yes"/>
      <point x="415" y="512" type="line"/>
      <point x="369" y="512" type="line"/>
      <point x="257" y="250" type="line"/>
      <point x="221" y="160" type="line"/>
      <point x="217" y="160" type="line"/>
      <point x="176" y="250" type="line"/>
      <point x="55" y="512" type="line"/>
      <point x="7" y="512" type="line"/>
      <point x="197" y="112" type="line"/>
      <point x="182" y="79" type="line" smooth="yes"/>
      <point x="167" y="46"/>
      <point x="144" y="30"/>
      <point x="104" y="30" type="curve" smooth="yes"/>
      <point x="92" y="30"/>
      <point x="81" y="32"/>
      <point x="71" y="36" type="curve"/>
      <point x="59" y="-5" type="line"/>
      <point x="72" y="-10"/>
      <point x="87" y="-12"/>
    </contour>
    <contour>
      <point x="205" y="534" type="move" name="aboveUC"/>
    </contour>
  </outline>
</glyph>
<glyph name="Uhorn" format="1">
  <advance width="645"/>
  <outline>
    <contour>
      <point x="318" y="681" type="move" name="aboveUC"/>
    </contour>
    <contour>
      <point x="316" y="-22" type="move" name="belowLC"/>
    </contour>
    <contour>
      <point x="539" y="633" type="line"/>
      <point x="593" y="647"/>
      <point x="645" y="677"/>
      <point x="645" y="750" type="curve" smooth="yes"/>
      <point x="645" y="774"/>
      <point x="638" y="798"/>
      <point x="626" y="820" type="curve"/>
      <point x="586" y="801" type="line"/>
      <point x="596" y="784"/>
      <point x="600" y="763"/>
      <point x="600" y="747" type="curve" smooth="yes"/>
      <point x="600" y="694"/>
      <point x="570" y="668"/>
      <point x="506" y="659" type="curve"/>
    </contour>
    <component base="U"/>
  </outline>
</glyph>
